<?xml version="1.0" standalone="no"?>
<!DOCTYPE svg PUBLIC "-//W3C//DTD SVG 1.1//EN" "http://www.w3.org/Graphics/SVG/1.1/DTD/svg11.dtd" >
<svg xmlns="http://www.w3.org/2000/svg">
<metadata>
This is a custom SVG webfont generated by Font Squirrel.
</metadata>
<defs>
<font id="GSBQMedium" horiz-adv-x="1067" >
<font-face units-per-em="2048" ascent="1638" descent="-410" />
<missing-glyph horiz-adv-x="555" />
<glyph unicode=" "  horiz-adv-x="555" />
<glyph unicode="&#x09;" horiz-adv-x="555" />
<glyph unicode="&#xa0;" horiz-adv-x="555" />
<glyph unicode="!" horiz-adv-x="555" d="M176 127q0 39 12 63q18 39 55.5 62.5t78.5 23.5q59 0 101 -41.5t44 -101.5q0 -27 -6 -47q-33 -104 -139 -104q-23 0 -54 10q-92 39 -92 135zM197 1208q0 111 18 166q33 90 107 90q27 0 47 -12q74 -39 73 -246q0 -86 -11 -195.5t-23.5 -187.5t-34 -206t-29.5 -181h-45 l-49 283q-14 78 -35 237q-18 137 -18 252z" />
<glyph unicode="&#x22;" horiz-adv-x="811" d="M109 1391q-4 43 0 65q8 37 39.5 57.5t70.5 20.5q33 0 60.5 -17.5t35.5 -46.5q6 -27 4 -55l-83 -526h-48zM494 1391q-6 43 0 65q8 37 38.5 57.5t69.5 20.5q33 0 61.5 -17.5t36.5 -46.5q6 -20 2 -55l-81 -526h-48z" />
<glyph unicode="#" horiz-adv-x="1366" d="M86 469v158h305l33 221h-291v158h311l64 438h164l-64 -438h226l65 438h160l-62 -438h283v-158h-303l-33 -221h285v-158h-307l-68 -469h-162l68 469h-228l-67 -469h-166l72 469h-285zM553 627h229l31 221h-227z" />
<glyph unicode="$" horiz-adv-x="1024" d="M117 1092q0 72 20 135q47 129 176 196q27 14 56.5 22.5t58.5 14.5t31 6v172h121v-172q121 -20 249 -77v-220q-16 12 -49 33q-72 41 -149 60l-51 12v-469q141 -94 188 -135q143 -123 143 -295q0 -246 -190 -346q-51 -27 -141 -49v-185h-121v185q-45 4 -82 14 q-109 27 -213 90q-25 16 -45 33v237q27 -25 84 -69q109 -84 256 -115v477q-70 45 -103 70q-51 33 -90 67q-149 132 -149 308zM324 1092q2 -63 35.5 -108.5t99.5 -94.5v383q-43 -16 -56 -25q-79 -55 -79 -155zM580 178q35 10 67 37q61 53 62 147q-2 49 -13 72q-6 18 -15 33.5 t-22.5 30t-21.5 21.5t-28.5 23.5t-28.5 22.5v-387z" />
<glyph unicode="%" horiz-adv-x="1622" d="M63 1001q0 164 43 271q18 53 58 100q29 37 69 62q49 29 111 28q152 0 225 -170q49 -119 49 -274q0 -201 -47 -309q-76 -180 -231 -181q-74 0 -131 45q-109 78 -137 297q-9 65 -9 131zM207 987q0 -233 69 -297q39 -29 66 -26q51 0 84 45q57 84 51 311q0 225 -74 285 q-25 23 -61 22q-20 0 -45 -12q-90 -49 -90 -328zM387 -2l741 1499l107 -51l-746 -1497zM1001 459q0 186 56 301q80 160 225 160q100 0 172 -78q37 -47 53 -86q51 -123 52 -281q0 -182 -41 -291q-76 -199 -238 -198q-74 0 -129 43q-113 82 -141 299q-9 65 -9 131zM1145 451 q0 -223 61 -293q29 -39 76 -37q59 0 92 61q43 86 43 295q-6 205 -59 271q-39 39 -76 38q-23 0 -49 -16q-88 -51 -88 -319z" />
<glyph unicode="&#x26;" horiz-adv-x="1236" d="M49 297q0 92 45 170q35 61 105.5 123.5t112.5 90.5t69 42l-53 74q-39 55 -58.5 89t-37 86t-17.5 105q0 84 39 152q37 68 118 122t212 54q115 0 196 -51q141 -92 142 -267q0 -74 -29 -141q-23 -53 -61.5 -103t-68.5 -76t-93 -79l172 -215q35 45 127 197h211 q-12 -27 -23.5 -49.5t-21 -40t-19.5 -36t-15 -28.5t-17.5 -29.5t-17.5 -27.5t-19.5 -30.5t-20.5 -31t-26.5 -39t-30.5 -45.5l254 -313h-242l-143 174q-25 -23 -78 -68q-170 -133 -348 -133q-68 0 -136 21q-102 35 -165.5 116t-61.5 187zM254 315q0 -41 20 -77 q45 -78 148 -78q43 0 90 16q88 31 205 143l-223 265q-96 -68 -156 -119q-84 -74 -84 -150zM426 1073q0 -33 16 -82q27 -63 111 -160q88 55 127 115q43 61 43 133q0 66 -41 107t-104 39q-39 0 -76 -17q-78 -43 -76 -135z" />
<glyph unicode="'" horiz-adv-x="425" d="M109 1391q-4 43 0 65q8 37 39.5 57.5t70.5 20.5q33 0 60.5 -17.5t35.5 -46.5q6 -27 4 -55l-83 -526h-48z" />
<glyph unicode="(" horiz-adv-x="681" d="M137 580q0 86 15 186q23 125 77 261t92.5 208t73.5 123q49 76 111 149h133q-156 -221 -223 -446q-35 -129 -45 -195q-12 -80 -19 -164q-6 -74 -6 -149q0 -279 82 -530q33 -96 82 -193q59 -117 131 -203h-135q-162 207 -250 406q-39 78 -70 178q-27 109 -39 199 q-10 66 -10 170z" />
<glyph unicode=")" horiz-adv-x="681" d="M0 -373q86 121 136 218.5t89 230.5q25 84 45 194q12 111 17 156q6 78 6 154q0 297 -84 536q-35 104 -90 209q-29 53 -68 113q-47 63 -51 69h135q162 -215 240 -383q129 -274 129 -571q0 -113 -19 -201q-59 -315 -266 -616q-43 -61 -86 -109h-133z" />
<glyph unicode="*" horiz-adv-x="1024" d="M55 1028q0 80 86 80q25 0 62 -12l49 -15q82 -18 170 -24q-57 53 -152 104l-39 23q-72 37 -71 98q0 31 24.5 55.5t55.5 22.5q45 0 84 -60l24 -45q53 -88 115 -159q-2 84 -29 174l-10 47q-10 10 -10 59q0 47 24.5 67.5t50.5 20.5q29 0 52.5 -20.5t23.5 -65.5q0 -35 -10 -65 l-12 -49q-18 -84 -25 -168q35 37 52.5 60.5t52.5 84.5l22 45q37 70 94 70q35 0 57.5 -23.5t22.5 -56.5q0 -10 -3 -21.5t-7 -18.5t-10 -15.5t-12.5 -13.5t-13.5 -10t-11 -8t-10 -5l-7 -4l-45 -23q-59 -31 -143 -100q96 6 176 30l47 13q49 6 58 6q37 0 62.5 -20.5t25.5 -57.5 t-27 -56.5t-61 -19.5q-18 0 -70 11l-41 10q-78 20 -170 28q55 -51 137 -100l43 -24q86 -47 86 -103q0 -10 -5 -26.5t-22.5 -35t-45.5 -18.5q-45 0 -93 64l-24 41q-29 49 -58 88q-18 27 -59 80q6 -78 29 -168l14 -54q6 -43 6 -63q0 -47 -22.5 -68.5t-50.5 -21.5 q-25 0 -45.5 14.5t-28.5 43t-6 46t4 25.5l10 55q33 135 37 197q-49 -57 -101 -148l-26 -51q-49 -80 -100 -80q-33 2 -55.5 25.5t-22.5 54.5q0 23 12 41.5t19.5 24.5t33.5 24l45 25q70 41 154 115q-74 -6 -166 -29l-47 -12q-47 -12 -72 -13q-35 0 -58.5 21.5t-23.5 56.5z" />
<glyph unicode="+" horiz-adv-x="1366" d="M88 514v164h510v510h164v-510h516v-164h-516v-514h-164v514h-510z" />
<glyph unicode="," horiz-adv-x="468" d="M76 143q0 61 43 107.5t104 46.5q63 0 118.5 -58.5t57.5 -170.5q-4 -215 -202 -385q-37 -33 -76 -58l-41 45q70 109 88 203q10 72 10 84v47q-2 0 -12 4t-19 8q-71 39 -71 127z" />
<glyph unicode="-" horiz-adv-x="724" d="M72 387v201h581v-201h-581z" />
<glyph unicode="." horiz-adv-x="468" d="M86 131q0 35 10 55q12 33 46 63t93.5 30t102.5 -40t45 -100q4 -33 -10 -67q-16 -41 -54 -65.5t-83 -24.5q-29 0 -58 12q-92 39 -92 137z" />
<glyph unicode="/" horiz-adv-x="641" d="M-6 0l483 1446h168l-483 -1446h-168z" />
<glyph unicode="0" d="M88 739q0 270 74 449q66 160 170 223.5t207 63.5q109 0 190 -56q102 -72 172 -237.5t78 -411.5q2 -43 0 -114.5t-22.5 -204t-63.5 -222.5q-66 -139 -164 -197.5t-190 -58.5q-111 0 -222.5 82t-171.5 267q-57 179 -57 417zM287 737q0 -342 92 -475q61 -92 162 -92 q109 0 168 102q76 129 71 494q-4 119 -10 176q-27 250 -149 318q-43 25 -89 24q-94 0 -157 -96q-88 -132 -88 -451z" />
<glyph unicode="1" d="M127 1063l459 383h96v-1446h-193v1137l-280 -248z" />
<glyph unicode="2" d="M59 0v27q281 344 390 501q201 293 200 476q0 119 -67.5 194.5t-186.5 75.5q-94 0 -196 -66q-27 -16 -127 -88l2 219q172 135 344 136q156 0 278 -101q160 -131 160 -364q0 -102 -37 -211q-35 -100 -109.5 -224t-126 -193t-151.5 -200h541v-182h-914z" />
<glyph unicode="3" d="M141 59v205q176 -96 291 -96q121 0 191 74q59 66 59 178q0 125 -86 188q-80 59 -242 60l2 180q25 -4 54 0q127 0 196 92q41 59 41 131q0 96 -64.5 152.5t-160.5 56.5q-121 0 -281 -86v203q190 78 314 78q78 0 149 -25q115 -39 178.5 -131t63.5 -215q0 -203 -152 -297 q-27 -20 -82 -41q72 -25 115 -53q158 -102 158 -314q0 -164 -105 -288q-117 -137 -317 -138q-86 0 -154 20.5t-168 65.5z" />
<glyph unicode="4" d="M53 416v92l707 967h69v-887h179v-172h-179v-416h-188v416h-588zM326 588h315l6 463l-86 -131z" />
<glyph unicode="5" d="M133 72v209q59 -41 78 -52q111 -63 235 -63q111 0 185 61q86 70 86 209q0 61 -17 99q-57 168 -294 167q-74 0 -185 -18v762h651v-191h-464v-376q301 12 426 -158q41 -53 59 -125q25 -80 25 -160q0 -100 -35 -192q-53 -131 -166 -201t-258.5 -69.5t-325.5 98.5z" />
<glyph unicode="6" d="M88 498q0 92 27 207q82 315 321 573q53 57 101 98q70 61 159 113l111 -160q-59 -37 -109 -74q-147 -117 -249 -266q-20 -31 -43 -74t-38.5 -73.5t-28.5 -60t-13 -31.5l18 12q20 12 27.5 16t28 15.5t37 16.5t39 11t47 9.5t50.5 3.5q158 0 275 -101q135 -125 135 -327 q0 -168 -98 -285q-125 -147 -328 -148q-131 0 -227 56q-80 43 -134.5 112.5t-75 146.5t-26.5 123t-6 87zM289 444q0 -53 14 -100q27 -86 91.5 -133t154.5 -47q59 0 106 20q131 63 131 222q0 47 -20 108q-18 43 -49 71.5t-63.5 41t-56.5 16.5t-44 4q-23 0 -44.5 -3t-40.5 -9 t-36.5 -13.5t-34 -17.5t-28 -17t-25.5 -19.5t-20.5 -17.5t-16.5 -15l-12 -13q-6 -39 -6 -78z" />
<glyph unicode="7" d="M80 1257v189h891v-47l-617 -1426l-182 95l530 1189h-622z" />
<glyph unicode="8" d="M88 418q0 170 117 266q39 33 100 59q-37 20 -65 41q-82 66 -111 164q-12 43 -12 99q0 82 24 145q45 129 156 206t246 77q145 0 262 -95q150 -125 149 -319q0 -55 -12 -105q-16 -76 -54 -120.5t-112 -92.5q51 -25 78 -43q125 -98 125 -290q0 -182 -127 -310.5t-307 -126.5 q-92 0 -172 31q-131 51 -208 163t-77 251zM281 412q0 -59 20 -99q23 -51 83 -99t157 -46q59 0 108 20q137 61 137 222q0 66 -30 122q-66 123 -224 123q-104 0 -178.5 -69.5t-72.5 -173.5zM307 1051q0 -53 19 -93q29 -61 88 -95t129 -34q90 0 145 50q86 74 76 202 q-10 90 -71.5 147.5t-151.5 57.5q-55 0 -103 -22q-61 -27 -96 -85t-35 -128z" />
<glyph unicode="9" d="M84 1040q0 154 84 269q125 166 342 166q113 0 207 -45q129 -61 195.5 -192.5t66.5 -287.5q0 -123 -39 -248q-37 -123 -96.5 -235.5t-127 -195.5t-116.5 -133t-96 -89q-57 -47 -133 -92l-111 160q70 45 102 71q66 51 141 129t118 146q49 74 120 235q-127 -84 -247 -84 q-164 0 -275 101q-135 120 -135 325zM281 1040q0 -104 64.5 -171.5t168.5 -67.5q133 0 258 125q6 74 6 78q0 76 -30 139q-63 139 -230 139q-66 0 -106 -20q-49 -20 -90 -76t-41 -146z" />
<glyph unicode=":" horiz-adv-x="555" d="M168 133.5q0 63.5 44 105.5t107 42q61 0 103.5 -41t46.5 -101q2 -66 -42 -111.5t-110 -45.5q-63 0 -106 44t-43 107.5zM170 829q0 63 44 105.5t108 42.5q57 0 99 -39t48 -98q4 -29 -8 -64q-14 -43 -54 -70.5t-88 -27.5q-61 0 -105 45t-44 106z" />
<glyph unicode=";" horiz-adv-x="555" d="M168 152q0 59 43 102t104 43q35 0 72 -18q104 -55 105 -213q0 -63 -23 -129q-57 -170 -252 -310l-43 45q66 111 84 180.5t14 151.5q-33 16 -45 25q-59 47 -59 123zM174 829.5q0 59.5 44 102.5t104 43q43 0 61 -14q82 -35 84 -127q0 -31 -12 -64q-16 -39 -54.5 -63.5 t-78.5 -24.5q-59 0 -103.5 44t-44.5 103.5z" />
<glyph unicode="&#x3c;" horiz-adv-x="1366" d="M0 635v176l1366 641v-176l-1161 -553l1161 -553v-176z" />
<glyph unicode="=" horiz-adv-x="1366" d="M0 332v160h1366v-160h-1366zM0 700v162h1366v-162h-1366z" />
<glyph unicode="&#x3e;" horiz-adv-x="1366" d="M0 -6v176l1161 553l-1161 553v176l1366 -641v-176z" />
<glyph unicode="?" horiz-adv-x="681" d="M188 129q0 61 44 106.5t106 45.5q55 -2 97 -39t48 -92q4 -31 -6 -62q-14 -49 -50 -77.5t-85 -28.5q-63 0 -108.5 42t-45.5 105zM205 590q0 51 20.5 99t75.5 138l55 82q47 78 60 133q8 49 8 70q0 39 -12 66q-39 96 -158 96q-16 0 -49 -4l131 203q23 -6 72 -23 q160 -57 206 -188q23 -59 23 -117q0 -133 -105 -301l-81 -137q-100 -166 -113 -246q-4 -23 -4 -62l-33 -20q-96 111 -96 211z" />
<glyph unicode="@" horiz-adv-x="1835" d="M141 481q0 332 199 598q43 59 98.5 112.5t147.5 120t223 106.5t278 40q219 0 371 -104q236 -158 236 -486q0 -63 -8 -120q-45 -303 -213 -478q-127 -127 -254 -127q-119 0 -156 101q-12 33 -14 73q-12 -16 -52 -63q-113 -109 -239 -109q-61 0 -113 25q-156 76 -156 307 q0 145 59.5 283.5t168.5 222.5q96 78 205 76q131 0 202 -109q12 -18 33 -63l31 127h139l-67 -307q-59 -293 -58 -351q0 -90 62 -90q51 0 120 70q68 74 129.5 212t61.5 314q0 129 -43 221q-39 88 -105.5 146.5t-141.5 81t-122 30t-90 7.5q-168 0 -323 -74 q-223 -106 -358.5 -325.5t-135.5 -467.5q0 -156 53 -272q78 -174 247 -262t370 -88q293 0 551 184q55 39 135 115l65 -84q-78 -80 -164 -137q-276 -190 -585 -191q-281 0 -498 145q-90 61 -151 148q-138 180 -138 442zM651 485.5q0 -108.5 49.5 -157.5t114.5 -49 q61 0 125 47q68 53 109 146t49 148.5t8 92.5q2 111 -51.5 164t-118.5 53q-61 -2 -125 -49q-76 -61 -118 -174t-42 -221.5z" />
<glyph unicode="A" horiz-adv-x="1366" d="M0 0l567 1446h176l623 -1446h-231l-195 459h-537l-178 -459h-225zM473 647h385l-201 508z" />
<glyph unicode="B" horiz-adv-x="1150" d="M133 0v1446h316q152 0 249 -31t162 -133q63 -92 64 -229q0 -150 -105 -240q-41 -33 -88 -57q88 -12 129 -31q94 -41 143.5 -127t49.5 -195q0 -129 -72 -233q-41 -57 -93 -93t-122 -51.5t-119 -19.5t-135 -6h-379zM334 193h246q59 0 102 8q160 37 160 205q0 57 -19.5 100 t-50.5 65.5t-57.5 33.5t-52.5 16q-35 6 -222 6h-106v-434zM334 825h135q145 4 201 80q43 61 43 137q0 106 -76 164q-55 41 -203 41h-100v-422z" />
<glyph unicode="C" horiz-adv-x="1366" d="M66 719q0 88 20 176q74 305 315 461q197 125 437 125q225 0 454 -129l-2 -219l-20 12q-23 12 -31 17t-32.5 18.5t-40 19.5t-43 18.5t-49 19.5t-52.5 15.5t-58.5 13.5t-60.5 8t-65 3q-102 0 -195 -33q-172 -61 -265 -201.5t-93 -326.5q0 -129 45 -234q61 -143 196.5 -227 t294.5 -84q80 0 168 18q145 35 324 140v-232q-205 -96 -357 -121q-70 -10 -139 -10q-195 0 -336 74t-221 160q-92 100 -143 239.5t-51 278.5z" />
<glyph unicode="D" horiz-adv-x="1492" d="M133 0v1446h412q227 -6 346 -37q246 -70 381 -287q113 -184 112 -399q0 -106 -32 -221q-45 -154 -151.5 -272.5t-254.5 -172.5q-90 -35 -201.5 -46t-320.5 -11h-291zM338 193h258q127 4 209 21t162 77q78 57 140 164.5t62 267.5q0 174 -86 305q-92 141 -223 179t-346 38 h-176v-1052z" />
<glyph unicode="E" horiz-adv-x="1024" d="M133 0v1446h776v-191h-569v-438h555v-192h-555v-437h596v-188h-803z" />
<glyph unicode="F" horiz-adv-x="937" d="M133 0v1446h746v-195h-541v-383h541v-188h-541v-680h-205z" />
<glyph unicode="G" horiz-adv-x="1492" d="M66 727q0 287 182 498q219 252 567 252q182 0 369 -82q49 -20 143 -70v-219l-20 12q-23 12 -33 18.5t-37 20.5t-46.5 22.5t-51 23t-57 22.5t-60.5 18t-66.5 16.5t-67.5 10.5t-71 4q-127 0 -231 -49q-141 -66 -222 -200t-81 -292q0 -111 42 -212t84 -150t87 -86 q139 -113 340 -113q121 0 301 64v301h-265v176h455v-623q-291 -121 -504 -121q-287 0 -487 170q-270 234 -270 588z" />
<glyph unicode="H" horiz-adv-x="1449" d="M133 0v1446h205v-625h731v625h207v-1446h-207v627h-731v-627h-205z" />
<glyph unicode="I" horiz-adv-x="512" d="M133 0v1446h203v-1446h-203z" />
<glyph unicode="J" horiz-adv-x="512" d="M-139 -215q45 -4 65 -4h16q98 0 142 47q8 10 15 20.5t12.5 24.5t8.5 25.5t5 32t4 31.5t2 39v40v46v48v1311h207v-1356q-2 -33 -2 -100q-8 -188 -74 -285q-39 -59 -84 -82q-78 -45 -237 -45h-27z" />
<glyph unicode="K" horiz-adv-x="1323" d="M133 0v1446h211v-641l539 641h268l-590 -686l801 -760h-301l-717 694v-694h-211z" />
<glyph unicode="L" horiz-adv-x="1024" d="M133 0v1446h205v-1251h641v-195h-846z" />
<glyph unicode="M" horiz-adv-x="1579" d="M133 0v1446h182l455 -598l451 598h182v-1446h-205v858q0 31 1 93.5t3 92.5q4 66 8 103l-424 -592h-36l-424 592q8 -90 12 -268v-879h-205z" />
<glyph unicode="N" horiz-adv-x="1579" d="M133 0v1446h166l713 -858l104 -129q18 -25 51 -72t45 -63q-6 129 -14 383v739h205v-1446h-170l-705 852l-118 152l-86 122q8 -201 12 -399v-727h-203z" />
<glyph unicode="O" horiz-adv-x="1705" d="M66 723q0 254 161 467q219 287 602 287q279 0 482 -162q143 -115 218 -274q69 -147 69 -311q0 -14 -1 -28q-6 -268 -182 -471q-225 -262 -577 -262q-299 0 -516 191q-121 106 -188.5 255.5t-67.5 307.5zM276 719q0 -178 119 -332q25 -33 57.5 -63.5t86 -68.5t128 -61.5 t158.5 -23.5q209 0 367 131q193 162 197 418q0 119 -48 225q-20 49 -55 97.5t-94 104.5t-153.5 92t-207.5 36q-205 0 -350 -121q-96 -78 -151.5 -194.5t-53.5 -239.5z" />
<glyph unicode="P" d="M133 0v1446h379h21q143 0 239 -26q102 -28 176 -128q78 -102 78 -250q0 -217 -162 -329q-109 -78 -328 -78h-22h-174v-635h-207zM340 831h170q59 0 89 1.5t78 14.5t81 38q63 55 63 155q0 84 -45 140q-41 51 -93 62t-183 11h-160v-422z" />
<glyph unicode="Q" horiz-adv-x="1662" d="M66 707q0 307 210 530q109 115 254.5 177.5t300.5 62.5q266 0 478 -166q289 -227 288 -596q0 -279 -172 -482q-80 -92 -159 -137q-70 -43 -217 -84q70 -33 107.5 -49t98 -31.5t117.5 -15.5q63 0 195 35l-199 -221q-166 29 -266.5 59.5t-259.5 99.5l-129 60l-119 49 l-41 16q-115 47 -176 92q-147 100 -229 260.5t-82 340.5zM276 713q0 -125 52 -234q70 -145 206 -231t297 -86q199 0 351 125q96 78 151.5 186.5t57.5 231.5q0 121 -43 221q-63 156 -206 249t-315 93q-115 0 -221 -45q-152 -68 -241 -206t-89 -304z" />
<glyph unicode="R" horiz-adv-x="1193" d="M133 0v1446h313q150 -4 256.5 -39t171.5 -135q61 -92 62 -217q0 -176 -115 -285q-43 -37 -123 -76q4 -2 47 -26q72 -49 191 -238l164 -270q49 -82 121 -160h-273q-123 246 -270 440q-61 84 -118.5 132.5t-139.5 62.5q-33 4 -78 4v-639h-209zM342 829h135q80 4 132.5 23.5 t84.5 79.5q29 51 29 112q0 74 -41 123q-33 41 -84 60.5t-88 21.5q-18 1 -44 1t-58 -1h-66v-420z" />
<glyph unicode="S" horiz-adv-x="1024" d="M106 113l3 241q109 -92 184 -131q119 -59 205 -59q92 0 148 57.5t56 147.5q0 57 -28.5 104t-57 69.5t-88.5 63.5l-127 82q-94 68 -143 110t-98 124t-49 176q0 88 36 166q49 106 147.5 159.5t221.5 53.5q129 0 315 -86v-224q-61 37 -98 56.5t-94 38t-111 18.5 q-111 0 -156.5 -55.5t-45.5 -120.5q0 -51 29.5 -98.5t60 -72t82.5 -59.5l110 -73q49 -33 103 -72q121 -92 161.5 -175t40.5 -179q0 -94 -26 -162q-47 -115 -152.5 -179.5t-232.5 -64.5q-61 0 -129 19q-101 23 -267 125z" />
<glyph unicode="T" horiz-adv-x="1193" d="M0 1255v191h1151v-191h-469v-1255h-209v1255h-473z" />
<glyph unicode="U" horiz-adv-x="1492" d="M129 598v848h205v-819q4 -209 63 -297q27 -43 78 -78q96 -68 244 -68q170 0 272 84q55 43 88 115q33 74 37 254v809h205v-838q0 -121 -8 -176q-16 -139 -82 -232.5t-189 -156.5q-154 -74 -319 -74q-135 0 -263 51.5t-212 147.5q-47 59 -76 129q-39 100 -43 301z" />
<glyph unicode="V" horiz-adv-x="1280" d="M0 1446h223l316 -776l45 -113q6 -20 20 -56t19 -50q25 72 77 211l312 784h225l-586 -1446h-63z" />
<glyph unicode="W" horiz-adv-x="2174" d="M0 1446h238l225 -600q55 -143 92 -252q31 -92 55 -184q25 86 39 127q23 72 72 211l262 698h172l277 -707l47 -127q2 -8 14 -39.5t18 -50.5q12 -33 33 -102l68 217l53 154l244 655h225l-549 -1446h-67l-310 764q-115 303 -139 377l-115 -330l-307 -811h-65z" />
<glyph unicode="X" horiz-adv-x="1492" d="M0 0l602 735l-559 711h264l426 -545l438 545h265l-566 -711l580 -735h-262l-455 569l-463 -569h-270z" />
<glyph unicode="Y" horiz-adv-x="1236" d="M0 1446h252l344 -481l344 481h254l-498 -680v-766h-204v766z" />
<glyph unicode="Z" horiz-adv-x="1323" d="M-16 0l901 1249h-826v197h1219l-903 -1253h862v-193h-1253z" />
<glyph unicode="[" horiz-adv-x="681" d="M156 -373v1880h483v-176h-287v-1530h287v-174h-483z" />
<glyph unicode="\" horiz-adv-x="724" d="M53 1446h164l455 -1446h-164z" />
<glyph unicode="]" horiz-adv-x="681" d="M2 -199h287v1530h-287v176h481v-1880h-481v174z" />
<glyph unicode="^" horiz-adv-x="1492" d="M291 688l385 758h158l368 -758h-198l-254 533l-263 -533h-196z" />
<glyph unicode="_" horiz-adv-x="1024" d="M-20 -281h1064v-161h-1064v161z" />
<glyph unicode="`" horiz-adv-x="555" d="M-152 1374h226l141 -327h-141z" />
<glyph unicode="a" horiz-adv-x="854" d="M23 203q0 131 114 213q88 63 371 151v17q0 135 -64 178q-39 25 -90 24q-45 0 -106.5 -28.5t-92 -49t-89.5 -63.5v197q27 18 79 51q131 72 248 72q154 0 240 -111q57 -74 61 -233v-381q0 -43 6.5 -60.5t30.5 -17.5l25 6l71 27l-2 -140q-143 -80 -206.5 -80t-108.5 74 q-137 -74 -227 -74q-92 0 -166 52q-94 61 -94 176zM229 193q31 -68 113 -68q51 0 166 61v263q-123 -37 -170 -62q-119 -58 -119 -144q0 -29 10 -50z" />
<glyph unicode="b" d="M115 49v1397h192l2 -569q125 88 250 88q166 0 275 -107q137 -137 137 -364q0 -188 -97 -324q-137 -195 -423 -195q-35 0 -68 3.5t-62.5 8.5t-52 10t-49 14t-40 13.5t-37 13.5t-27.5 11zM307 711l2 -531q90 -16 137 -16q74 0 148 29q182 80 182 301q0 74 -24 141 q-25 61 -74 98t-84 45t-70 8q-94 1 -217 -75z" />
<glyph unicode="c" horiz-adv-x="854" d="M53 467q4 111 37 201q18 45 47 88t80 94t133 83t182 32q135 0 275 -70v-201q-57 31 -85 45.5t-74 26.5t-97 12q-141 0 -220 -87t-79 -230q0 -135 78 -217t213 -82q78 0 137 22.5t141 71.5v-197l-65 -36q-100 -47 -226 -48q-174 0 -301 107q-176 141 -176 385z" />
<glyph unicode="d" d="M53 467q0 39 5 80t22.5 111.5t63.5 137t116 109.5q102 63 225 64q102 0 232 -70v547h192v-1446h-192v51q-137 -76 -244 -76q-115 0 -215 62q-205 129 -205 430zM250 477q0 -145 67 -233q72 -96 201 -97q82 0 199 66v514q-96 74 -189 74q-45 0 -92 -15q-96 -31 -141 -117 t-45 -192z" />
<glyph unicode="e" horiz-adv-x="980" d="M53 483q0 94 29 179q45 137 152.5 220t250.5 83q205 0 322 -177q78 -121 90 -346l-645 -2q8 -70 20 -102q33 -86 111 -133t174 -47q131 0 322 112v-188q-53 -33 -68 -41q-139 -66 -281 -66q-174 0 -301 103q-86 70 -131 178t-45 227zM256 584h451q-14 53 -29 84 q-55 119 -195 118q-84 0 -135 -42t-71.5 -86.5t-20.5 -73.5z" />
<glyph unicode="f" horiz-adv-x="555" d="M0 780v160h145v64q-1 25 -1 49.5t1 50.5q8 186 105 276q84 84 219 84q63 0 180 -39v-178q-98 43 -162 43q-70 0 -102 -35q-10 -10 -17.5 -23t-12.5 -25.5t-8 -32t-5 -30.5t-3 -34t-1 -31v-31v-26v-82h184v-160h-184v-780h-193v780h-145z" />
<glyph unicode="g" horiz-adv-x="894" d="M-12 -231q0 152 129 219q16 8 35.5 15t36 13.5t18.5 6.5q-4 2 -12.5 7t-12.5 7q-57 43 -57 100q0 53 43 88q41 39 113 60q-2 0 -20.5 11t-42 25.5t-40.5 26.5q-123 100 -123 262q0 63 23 123q29 74 86 129.5t133 75.5q52 13 138 13q21 0 44 -1l68 -4q55 -8 125 -8 q55 0 84 2h98v-168h-139q59 -98 59 -176q0 -119 -82 -207q-61 -72 -203 -125l-49 -16q-82 -23 -106 -55q-14 -16 -15 -33q0 -25 27 -43q25 -18 121 -43l98 -21q59 -16 94 -29.5t77 -43t69 -70.5q41 -59 41 -135q0 -78 -55 -162q-113 -152 -365 -152q-256 0 -375 131 q-63 73 -63 177zM168 -233q0 -33 14 -58q53 -82 219 -82q129 0 197 37q66 37 66 103q0 76 -76 108q-57 27 -168 27q-123 0 -191 -37q-61 -35 -61 -98zM238 604q0 -53 16 -86q16 -41 51 -66.5t60.5 -31.5t48.5 -6q25 0 53.5 8t59 28.5t49 61.5t18.5 98q0 43 -12 74 q-20 53 -65.5 85t-100.5 32q-33 0 -58 -10q-45 -14 -82.5 -59.5t-37.5 -127.5z" />
<glyph unicode="h" d="M115 0v1446h194v-600q80 61 135.5 86.5t139.5 25.5q117 0 200 -65q57 -47 87 -121t34 -128t4 -148v-496h-190v477q0 20 -1 59t-2 52.5t-3 38t-7.5 37t-13.5 29t-20 30.5q-47 57 -140 57q-55 0 -95 -19.5t-128 -82.5v-678h-194z" />
<glyph unicode="i" horiz-adv-x="468" d="M94 1157q0 25 12 55q33 63 109 64q51 0 86 -36q31 -32 31 -76v-11q-2 -49 -38 -82t-85 -33q-49 2 -82 35t-33 84zM117 0v940h196v-940h-196z" />
<glyph unicode="j" horiz-adv-x="468" d="M-43 -373q74 35 104 72q53 61 58 192v1049h192v-1049q0 -106 -16 -174.5t-72 -134.5q-33 -41 -71 -67q-12 -10 -32 -21.5t-33 -18.5t-15 -7zM98 1157q0 51 34 86t85 35q49 0 85 -35t36 -84q-2 -49 -37 -85t-84 -36q-29 0 -55 15q-64 32 -64 104z" />
<glyph unicode="k" horiz-adv-x="1024" d="M115 0v1446h194v-922l371 416h250l-406 -448l514 -492h-286l-443 440v-440h-194z" />
<glyph unicode="l" horiz-adv-x="468" d="M117 0v1446h192v-1446h-192z" />
<glyph unicode="m" horiz-adv-x="1622" d="M115 0v940h194l2 -82q37 29 56 41q94 59 211 59q109 0 188 -65q31 -27 72 -74q86 74 150.5 106.5t154.5 32.5q164 0 254 -124q31 -43 47 -104.5t18 -103.5t2 -116v-510h-194v477q0 170 -31 223q-41 78 -135 78q-90 0 -217 -104v-674h-195v518q-6 113 -14 148 q-37 113 -148 112q-78 0 -168 -61q-4 -2 -53 -41v-676h-194z" />
<glyph unicode="n" d="M115 0v940h192l2 -82q39 31 61.5 46.5t81 34.5t126.5 19q186 0 274 -137q37 -57 46 -125.5t11 -226.5v-469h-190v463q0 152 -8 184q-10 49 -51.5 91t-120.5 42q-43 0 -88 -17.5t-71 -33.5t-73 -51v-678h-192z" />
<glyph unicode="o" horiz-adv-x="1150" d="M53 473q0 100 43 199q61 133 186.5 213t272.5 80q209 0 355 -149q144 -146 145 -350q0 -163 -99 -290q-154 -201 -401 -201q-109 0 -197 41q-137 59 -221 184.5t-84 272.5zM238 473q0 -59 22 -113q37 -92 117 -146t178 -54q137 0 231 100q84 88 84 211q0 66 -26 125 q-33 74 -95.5 119t-109.5 56q-40 10 -74 10q-6 0 -12 -1q-59 0 -107 -18q-92 -33 -150 -113t-58 -176z" />
<glyph unicode="p" d="M115 -530v1470h194l2 -53q117 78 244 78q111 0 197 -50q74 -41 123 -108.5t67.5 -141t23.5 -115.5t5 -81q0 -205 -109.5 -349.5t-312.5 -144.5q-59 0 -112.5 15.5t-70 25t-57.5 33.5v-579h-194zM309 725l2 -512q111 -66 194 -66h5q59 0 111 23q156 74 155 295 q0 131 -51 211q-70 117 -207 117q-98 0 -209 -68z" />
<glyph unicode="q" horiz-adv-x="1024" d="M53 481q8 205 105 328q117 156 317 156q102 0 187 -45q27 -16 53 -37v57h194v-1470h-194v569q-113 -66 -213 -66q-193 0 -309 119q-59 59 -93 151.5t-40.5 143.5t-6.5 94zM248 469q0 -92 26.5 -158.5t70.5 -100.5t88 -49.5t89 -15.5q88 0 156 41q6 4 18.5 13.5t18.5 13.5 v514q-121 66 -207 66q-80 0 -146 -48q-114 -83 -114 -276z" />
<glyph unicode="r" horiz-adv-x="768" d="M115 0v940h192l2 -147q59 78 114.5 121.5t133.5 43.5q41 0 83 -16t65.5 -31.5t70.5 -50.5l-121 -174q-92 78 -145 78q-88 0 -150 -96q-49 -74 -51 -240v-428h-194z" />
<glyph unicode="s" horiz-adv-x="768" d="M66 66v210q4 -2 29.5 -18t32.5 -20.5t30.5 -17.5t35 -18t33 -15.5t35.5 -14.5t33.5 -10t37 -8t36.5 -2q70 0 98 45q10 20 10 43q0 35 -23.5 60.5t-80.5 64.5l-84 51l-76 49q-82 61 -109.5 114.5t-27.5 116.5q0 76 35 140q74 129 247 129q119 0 267 -78v-201 q-61 35 -72 41q-104 57 -188 59q-49 -2 -73 -25.5t-24 -53.5q0 -27 19.5 -50.5t37 -36t74.5 -47.5l78 -49q37 -20 66 -43q133 -96 133 -229q0 -39 -13.5 -81t-43 -89t-93 -77t-149.5 -30q-137 1 -311 91z" />
<glyph unicode="t" horiz-adv-x="641" d="M0 780l313 406v-246h262v-160h-266l-6 -428v-20q0 -68 12 -101q20 -61 99 -61q76 0 237 94l-2 -205q-168 -82 -272 -82q-106 0 -174 62q-43 37 -65.5 93t-27 99t-4.5 115l9 434h-115z" />
<glyph unicode="u" d="M115 420v520h192v-473q0 -172 21 -217q14 -35 55 -62q47 -29 102 -28q82 0 170 59q20 12 60 47v674h194v-940h-194l-2 82q-47 -35 -68 -47q-88 -53 -201 -53q-164 0 -256 120q-33 43 -49 103.5t-19 100.5t-5 114z" />
<glyph unicode="v" horiz-adv-x="937" d="M0 940h211l240 -580l231 580h215l-416 -940h-61z" />
<glyph unicode="w" horiz-adv-x="1536" d="M0 940h207l131 -317q10 -27 34.5 -87.5t37.5 -93.5q16 -43 32 -96l76 207l146 387h163l142 -375q29 -72 78 -219l81 213l152 381h213l-408 -940h-84l-172 414q-37 94 -41 106q-27 70 -43 127q-18 -55 -32 -94q-8 -23 -68 -168l-164 -385h-84z" />
<glyph unicode="x" horiz-adv-x="1110" d="M0 0l406 481l-371 459h248l252 -319l251 319h254l-376 -459l403 -481h-254l-278 338l-283 -338h-252z" />
<glyph unicode="y" horiz-adv-x="980" d="M0 940h215l172 -375l109 -246l36 99l66 149l170 373h213l-659 -1470h-216l285 641z" />
<glyph unicode="z" horiz-adv-x="937" d="M33 0l502 758h-447v182h786l-501 -764h487v-176h-827z" />
<glyph unicode="{" horiz-adv-x="724" d="M141 506v12q53 12 84 43q16 16 27.5 40t17.5 44.5t10.5 55t4.5 51t1 53.5t1 43v344q0 2 1 17.5t1 25.5t2 31.5t6 37t10 38t15.5 40t22.5 38t30.5 35.5t40 28.5t49.5 23.5q14 6 28.5 10.5t36 6.5t35 3t48 2t55.5 3l-2 -12q-4 -2 -26 -8.5t-32 -10.5q-98 -33 -131 -131 q-14 -41 -16 -192v-201v-41q0 -100 -1 -146.5t-11.5 -97.5t-30.5 -88q-37 -61 -133 -94q113 -41 147 -123q6 -12 10 -24.5t7.5 -28t6.5 -26.5t4 -32.5t2 -33t1 -38.5v-40v-47v-51v-226q2 -170 37 -231q18 -33 46.5 -54.5t51.5 -30.5t70 -24l-2 -12q-14 0 -41 2t-39 2 q-199 10 -262 139q-10 18 -16.5 42t-10.5 40.5t-6 45t-2 41t-1 46t-1 41.5v265v88q0 186 -103 247q-25 13 -43 19z" />
<glyph unicode="|" horiz-adv-x="468" d="M152 -512v2044h165v-2044h-165z" />
<glyph unicode="}" horiz-adv-x="724" d="M59 -500q113 27 158 88q25 33 35 78q8 39 12 176v201v74q0 51 1 68.5t2 55.5t4 54t7.5 41.5t11.5 44t17 35.5q37 61 133 94q-72 27 -106 59q-47 49 -58.5 118t-13.5 216v49v226q0 150 -24 206q-8 20 -19 37q-18 31 -47 50.5t-48.5 26.5t-64.5 22v12q45 -4 70 -4 q145 -10 211 -64q14 -12 27.5 -26.5t22.5 -27.5t16.5 -32.5t12.5 -32t8 -37t5 -34.5t3 -38t2 -35t1 -37v-34v-264q0 -115 2 -137q8 -131 90 -190q20 -12 54 -25v-12q-49 -12 -80 -41q-12 -12 -22.5 -29.5t-17.5 -32t-11 -39t-7.5 -39t-4.5 -42t-1 -37.5v-39v-33v-256 q-2 -37 -2 -109q-10 -213 -145 -282q-14 -6 -25.5 -11.5t-28 -8.5t-25.5 -5t-31.5 -4t-33 -2t-43 -2t-47.5 -2v12z" />
<glyph unicode="~" horiz-adv-x="1492" d="M254 594q121 172 272 172q80 -2 228 -70l67 -30q94 -43 144 -43q76 0 165 90l31 37l78 -148q-51 -59 -90 -88q-88 -74 -191 -74q-72 2 -206 66l-58 29l-14 6q-12 6 -28.5 13t-37 14t-43 11.5t-43 4.5t-37 -3t-34 -13.5l-27.5 -16.5t-26.5 -24.5t-22.5 -24.5t-24.5 -28.5 t-20.5 -27.5z" />
<glyph unicode="&#xa1;" horiz-adv-x="555" d="M88 1313q-2 61 40 106t103 45q25 0 56 -10q92 -37 92 -135q0 -31 -12 -62q-41 -88 -136 -88q-57 0 -99 42.5t-44 101.5zM113 240q0 117 13 235.5t46 304t39 232.5l45 -2q8 -55 27.5 -161t21.5 -120q53 -338 53 -491q0 -195 -75 -240q-25 -16 -52 -16q-20 0 -45 12 q-73 41 -73 246z" />
<glyph unicode="&#xa3;" horiz-adv-x="1193" d="M96 586v147h189q-98 197 -99 326q0 160 107 276q123 135 332 135q207 0 329 -139q41 -49 66 -110q31 -66 43 -162l-178 -62l-2 17q-2 16 -3 26.5t-6.5 32t-10.5 37.5t-14 37.5t-20.5 40t-29 36t-37.5 31.5q-53 37 -141 37q-55 0 -103 -20q-51 -23 -84 -66t-40 -74.5 t-7 -58.5q0 -104 113 -340h323v-147h-268q18 -80 18 -140q0 -96 -57 -190q53 -25 82 -39l117 -51q41 -16 67 -16q25 0 60 14q37 20 100 123l152 -84q-33 -63 -66 -107q-96 -125 -237 -125q-68 0 -181 49l-110 56q-74 35 -113 35q-84 -2 -131 -95q-10 -18 -23 -49l-135 109 l6 10q6 12 8.5 17.5t10.5 18.5t13 21.5t15.5 21.5t19.5 22.5t22.5 21.5t26.5 20.5t29.5 16.5t35 14t59.5 12q45 82 45 154q0 82 -31 133q-10 23 -14 27h-248z" />
<glyph unicode="&#xa4;" horiz-adv-x="1366" d="M86 223l156 154q-104 152 -105 321q0 139 66 254q25 41 39 60l-154 155l123 123l154 -153q154 104 319 104q133 0 248 -59q12 -6 28.5 -17.5t27.5 -19.5t13 -8l154 153l125 -123l-156 -155q102 -139 103 -318q0 -123 -47 -223q-16 -37 -58 -96l158 -156l-127 -123 l-156 156q-141 -102 -315 -102q-166 0 -317 104l-156 -156zM301 694q0 -162 111.5 -272.5t273.5 -110.5q121 0 209 62q168 111 168 323q0 135 -78 238q-117 147 -301 145q-74 0 -141 -24q-113 -43 -177.5 -140.5t-64.5 -220.5z" />
<glyph unicode="&#xa6;" horiz-adv-x="468" d="M152 389h165v-780h-165v780zM152 631v780h165v-780h-165z" />
<glyph unicode="&#xa7;" horiz-adv-x="894" d="M45 627q0 133 102 264q8 10 52 59q-49 92 -49 185q0 109 55 192q96 143 272 143q104 0 174 -55q70 -51 70 -137q0 -53 -33 -90t-88 -37q-76 0 -96 57q-6 20 -2 41l4 27q2 41 -45 41q-29 0 -55 -14q-78 -39 -78 -140q0 -61 42 -130.5t136 -180.5l98 -107l70 -86 q63 -82 88.5 -140t25.5 -146q0 -45 -8 -82q-6 -27 -17 -54.5t-24.5 -50t-30 -47t-26.5 -38t-23 -27.5l-12 -17q55 -119 55 -202q0 -55 -22 -115q-39 -96 -117 -155.5t-176 -59.5q-154 0 -225 90q-35 41 -35 98q0 55 34 96t89 41q70 0 100 -51q8 -14 8 -37v-18q-8 -18 -8 -31 q0 -33 43 -32q23 0 41 8q41 14 63.5 54t22.5 85q0 84 -71 184l-76 92l-117 134l-61 65q-150 177 -150 324zM213 651q0 -25 12 -61q6 -14 12.5 -26.5t18.5 -29t20.5 -27.5t30 -37t33.5 -40l115 -127l98 -108q68 74 68 159q0 49 -23 87t-90 116l-115 135q-100 113 -108 121 q-72 -101 -72 -162z" />
<glyph unicode="&#xa8;" horiz-adv-x="555" d="M-229 1212q0 51 35.5 86t87.5 35q49 0 83.5 -30.5t36.5 -79.5q2 -18 -4 -45q-29 -88 -119 -88q-51 0 -85.5 34.5t-34.5 87.5zM201 1212.5q0 51.5 35.5 86t87.5 32.5q47 0 81.5 -31.5t38.5 -80.5q4 -53 -30.5 -91t-87.5 -38q-51 0 -88 35.5t-37 87z" />
<glyph unicode="&#xa9;" horiz-adv-x="1705" d="M125 725q0 266 166 467q223 260 565 260q246 0 434 -141q45 -33 88 -78t93.5 -119t81 -176t30.5 -219q-6 -279 -180 -479q-102 -117 -245.5 -181.5t-303.5 -64.5q-324 0 -543 237q-186 205 -186 494zM190 723q0 -133 50 -252q76 -186 244.5 -299t371.5 -113q100 0 211 35 q203 68 324.5 240t124.5 387q0 229 -132 403q-31 41 -70.5 79t-104 83t-156.5 72.5t-197 27.5q-221 0 -393 -126q-41 -31 -81 -71t-87 -106.5t-76 -160t-29 -199.5zM383 725q0 211 139.5 349t347.5 138q176 0 310 -108q41 -37 75 -76l-114 -108q-123 137 -273 137 q-76 0 -139 -29q-88 -41 -137 -123t-49 -180q0 -70 30 -141q39 -86 120 -137.5t179 -51.5q150 0 269 133l114 -100q-156 -186 -389 -186q-96 0 -184 32q-139 53 -219 175t-80 276z" />
<glyph unicode="&#xaa;" horiz-adv-x="854" d="M23 203q0 131 114 213q88 63 371 151v17q0 135 -64 178q-39 25 -90 24q-45 0 -106.5 -28.5t-92 -49t-89.5 -63.5v197q27 18 79 51q131 72 248 72q154 0 240 -111q57 -74 61 -233v-381q0 -43 6.5 -60.5t30.5 -17.5l25 6l71 27l-2 -140q-143 -80 -206.5 -80t-108.5 74 q-137 -74 -227 -74q-92 0 -166 52q-94 61 -94 176zM229 193q31 -68 113 -68q51 0 166 61v263q-123 -37 -170 -62q-119 -58 -119 -144q0 -29 10 -50z" />
<glyph unicode="&#xab;" horiz-adv-x="1150" d="M61 465l338 414h226l-344 -414l333 -404h-215zM498 465l336 414h229l-352 -414l344 -404h-221z" />
<glyph unicode="&#xac;" horiz-adv-x="1366" d="M0 518v162h1366v-680h-164v518h-1202z" />
<glyph unicode="&#xad;" horiz-adv-x="724" d="M72 387v201h581v-201h-581z" />
<glyph unicode="&#xae;" horiz-adv-x="1705" d="M125 725q0 266 166 467q223 260 565 260q174 0 327.5 -76t258.5 -217q145 -195 141 -440q0 -264 -174 -469q-88 -104 -209 -167t-197.5 -76t-148.5 -13q-250 0 -446 149q-283 222 -283 582zM190 723q0 -133 50 -252q76 -186 244.5 -299t371.5 -113q111 0 223 39 q199 70 318 241t121 382q0 223 -129 399q-31 41 -71 80t-105.5 85t-158.5 73.5t-198 27.5q-221 0 -393 -126q-41 -31 -81 -71t-87 -106.5t-76 -160t-29 -199.5zM545 268v920h299h18q72 0 112 -3t95 -24.5t88 -64.5q49 -61 49 -144q0 -137 -125 -196q-35 -14 -65 -23 q41 -18 55 -28q16 -12 29.5 -31t20.5 -32t14.5 -40t9.5 -38t6 -41.5t6 -37.5q25 -150 62 -217l-189 2q-10 23 -18 46.5t-13.5 50t-8.5 45t-7 52.5t-6 48q-10 66 -25.5 95.5t-46.5 47.5q-41 25 -139 27h-57v-414h-164zM709 811h137q37 0 55 2q96 8 127 70q14 23 14 57 q0 72 -57 104q-39 18 -123 19q-6 0 -22.5 -1t-24.5 -1h-106v-250z" />
<glyph unicode="&#xb0;" horiz-adv-x="724" d="M33 1216.5q0 137.5 96 233.5t233.5 96t233.5 -96t96 -233q0 -76 -30 -142q-41 -86 -123 -138t-177 -52q-137 2 -233 98t-96 233.5zM201 1221q0 -68 48 -115t113 -47q68 0 115 47t47 115q0 66 -47 113.5t-114.5 47.5t-114.5 -47.5t-47 -113.5z" />
<glyph unicode="&#xb1;" horiz-adv-x="1366" d="M84 0v162h1196v-162h-1196zM84 772v162h520v496h162v-496h514v-162h-514v-496h-162v496h-520z" />
<glyph unicode="&#xb2;" d="M59 0v27q281 344 390 501q201 293 200 476q0 119 -67.5 194.5t-186.5 75.5q-94 0 -196 -66q-27 -16 -127 -88l2 219q172 135 344 136q156 0 278 -101q160 -131 160 -364q0 -102 -37 -211q-35 -100 -109.5 -224t-126 -193t-151.5 -200h541v-182h-914z" />
<glyph unicode="&#xb3;" d="M141 59v205q176 -96 291 -96q121 0 191 74q59 66 59 178q0 125 -86 188q-80 59 -242 60l2 180q25 -4 54 0q127 0 196 92q41 59 41 131q0 96 -64.5 152.5t-160.5 56.5q-121 0 -281 -86v203q190 78 314 78q78 0 149 -25q115 -39 178.5 -131t63.5 -215q0 -203 -152 -297 q-27 -20 -82 -41q72 -25 115 -53q158 -102 158 -314q0 -164 -105 -288q-117 -137 -317 -138q-86 0 -154 20.5t-168 65.5z" />
<glyph unicode="&#xb4;" horiz-adv-x="555" d="M2 1051l133 323h227l-212 -323h-148z" />
<glyph unicode="&#xb5;" horiz-adv-x="1150" d="M141 748q0 94 13 131q37 74 90 71q41 0 65 -39q25 -35 25 -108q0 -51 -12 -158q-6 -57 -23 -194q-20 -162 -27 -195q14 -37 39 -80q66 -92 166 -92q59 0 109 37q20 14 38.5 33.5t31 42t22.5 43t17 43t11.5 36t8.5 29.5l4 17q8 41 12 91t5 98t1 85v70l-2 32q0 135 25 172 q27 39 74 37q31 0 51 -14q53 -39 53 -186q0 -248 -59 -428q-14 -47 -41 -99q39 -104 110 -104q18 0 39 12q49 27 49 111q0 12 -4 45l58 2q29 -70 28 -142q0 -18 -3 -38.5t-15.5 -54.5t-43 -55.5t-77.5 -21.5q-84 0 -139 80q-25 33 -43 90q-117 -178 -299 -178 q-123 0 -209 99q-12 12 -29 36q-14 -209 62 -364l55 -92q39 -66 39 -99q0 -37 -24.5 -61.5t-63.5 -24.5q-23 0 -47 13q-41 20 -68 80q-53 113 -53 352q0 205 22 348l-18 129q-23 173 -23 363z" />
<glyph unicode="&#xb6;" horiz-adv-x="1366" d="M180 1038q0 137 73 241.5t202 145.5q74 20 178 21h471v-111h-70v-1677h-119v1677h-294v-1677h-119v995q-78 14 -119 35q-100 45 -151.5 139t-51.5 211z" />
<glyph unicode="&#xb7;" horiz-adv-x="382" d="M55 598q0 39 15 64q12 25 43.5 50t79.5 25q25 0 49 -10q88 -37 88 -129q0 -25 -11 -51q-37 -92 -133 -88q-57 2 -94 41t-37 98z" />
<glyph unicode="&#xb8;" horiz-adv-x="555" d="M-78 -338q2 0 18.5 -1t34 -2t40 1t40.5 6q86 25 92 98q0 16 -6 28.5t-18 22t-21.5 15.5t-31 11t-27.5 7t-31 5l-22 4l73 170h134l-39 -93q49 -8 69 -20q96 -45 97 -152q0 -63 -41 -110q-84 -111 -277 -111q-41 0 -84 6v115z" />
<glyph unicode="&#xb9;" d="M127 1063l459 383h96v-1446h-193v1137l-280 -248z" />
<glyph unicode="&#xba;" horiz-adv-x="1150" d="M53 473q0 100 43 199q61 133 186.5 213t272.5 80q209 0 355 -149q144 -146 145 -350q0 -163 -99 -290q-154 -201 -401 -201q-109 0 -197 41q-137 59 -221 184.5t-84 272.5zM238 473q0 -59 22 -113q37 -92 117 -146t178 -54q137 0 231 100q84 88 84 211q0 66 -26 125 q-33 74 -95.5 119t-109.5 56q-40 10 -74 10q-6 0 -12 -1q-59 0 -107 -18q-92 -33 -150 -113t-58 -176z" />
<glyph unicode="&#xbb;" horiz-adv-x="1150" d="M47 61l352 414l-344 404h221l336 -404l-336 -414h-229zM485 61l344 414l-335 404h215l340 -404l-340 -414h-224z" />
<glyph unicode="&#xbc;" horiz-adv-x="2390" d="M1376 416v92l707 967h69v-887h179v-172h-179v-416h-188v416h-588zM1649 588h315l6 463l-86 -131zM782 0l740 1489l86 -41l-742 -1493zM127 1063l459 383h96v-1446h-193v1137l-280 -248z" />
<glyph unicode="&#xbd;" horiz-adv-x="2390" d="M1382 0v27q281 344 390 501q201 293 200 476q0 119 -67.5 194.5t-186.5 75.5q-94 0 -196 -66q-27 -16 -127 -88l2 219q172 135 344 136q156 0 278 -101q160 -131 160 -364q0 -102 -37 -211q-35 -100 -109.5 -224t-126 -193t-151.5 -200h541v-182h-914zM782 0l740 1489 l86 -41l-742 -1493zM127 1063l459 383h96v-1446h-193v1137l-280 -248z" />
<glyph unicode="&#xbe;" horiz-adv-x="2390" d="M1376 416v92l707 967h69v-887h179v-172h-179v-416h-188v416h-588zM1649 588h315l6 463l-86 -131zM782 0l740 1489l86 -41l-742 -1493zM141 59v205q176 -96 291 -96q121 0 191 74q59 66 59 178q0 125 -86 188q-80 59 -242 60l2 180q25 -4 54 0q127 0 196 92q41 59 41 131 q0 96 -64.5 152.5t-160.5 56.5q-121 0 -281 -86v203q190 78 314 78q78 0 149 -25q115 -39 178.5 -131t63.5 -215q0 -203 -152 -297q-27 -20 -82 -41q72 -25 115 -53q158 -102 158 -314q0 -164 -105 -288q-117 -137 -317 -138q-86 0 -154 20.5t-168 65.5z" />
<glyph unicode="&#xbf;" horiz-adv-x="681" d="M45 301q0 33 7 70t16.5 64.5t23.5 59t23.5 47t23.5 40.5l13 22l81 135l9 15q10 14 19 30.5t22.5 41t23.5 48t20.5 51t14.5 52.5q6 31 6 70l35 20q6 -6 16.5 -20.5t16.5 -20.5q61 -80 61 -170q0 -53 -19.5 -98t-76.5 -137l-53 -84q-70 -100 -70 -201q0 -33 10 -60 q12 -39 52 -71.5t110 -32.5q14 0 47 4l-129 -203q-2 0 -18.5 5.5t-41 13.5t-38.5 14q-135 59 -184 184q-21 62 -21 111zM199 1296q-4 27 6 64q35 104 137 104q61 0 106.5 -43t45.5 -104.5t-43 -105.5t-105 -44q-55 0 -98 37t-49 92z" />
<glyph unicode="&#xc0;" horiz-adv-x="1366" d="M0 0l567 1446h176l623 -1446h-231l-195 459h-537l-178 -459h-225zM297 1833h338l153 -256h-172zM473 647h385l-201 508z" />
<glyph unicode="&#xc1;" horiz-adv-x="1366" d="M0 0l567 1446h176l623 -1446h-231l-195 459h-537l-178 -459h-225zM473 647h385l-201 508zM547 1577l145 256h332l-311 -256h-166z" />
<glyph unicode="&#xc2;" horiz-adv-x="1366" d="M0 0l567 1446h176l623 -1446h-231l-195 459h-537l-178 -459h-225zM305 1579l180 254h340l183 -254h-183l-168 145l-172 -145h-180zM473 647h385l-201 508z" />
<glyph unicode="&#xc3;" horiz-adv-x="1366" d="M0 0l567 1446h176l623 -1446h-231l-195 459h-537l-178 -459h-225zM311 1651l6.5 13l6.5 13q80 164 198 164q53 0 154 -49l61 -29q45 -23 70 -22q18 0 24 6q27 12 62 88l121 -45q-18 -45 -29.5 -68.5t-35 -57.5t-55.5 -49.5t-73 -15.5q-70 4 -147 41l-72 35q-53 27 -76 27 q-27 -2 -46 -21.5t-23 -31.5q-16 -25 -31 -56zM473 647h385l-201 508z" />
<glyph unicode="&#xc4;" horiz-adv-x="1366" d="M0 0l567 1446h176l623 -1446h-231l-195 459h-537l-178 -459h-225zM233 1696q0 57 41 98t99 41q61 0 101 -42t38 -103q0 -33 -18 -66q-41 -70 -123 -70q-57 0 -97.5 41.5t-40.5 100.5zM473 647h385l-201 508zM805 1698q0 57 41 97t98 40q59 0 100 -42t39 -101 q-2 -57 -40.5 -96.5t-98.5 -39.5q-33 0 -59 13q-35 14 -57.5 51t-22.5 78z" />
<glyph unicode="&#xc5;" horiz-adv-x="1366" d="M0 0l567 1446h176l623 -1446h-231l-195 459h-537l-178 -459h-225zM459 1698q0 45 16 78q23 55 74 88.5t108 31.5q41 0 80 -18q119 -55 115 -182q-2 -82 -57.5 -138.5t-137.5 -56.5q-33 0 -82 17q-63 29 -89.5 84t-26.5 96zM473 647h385l-201 508zM553 1698 q2 -45 31.5 -74t72.5 -29q45 0 73 30t28 73q0 29 -6 43q-27 59 -95 59q-43 0 -73.5 -29.5t-30.5 -72.5z" />
<glyph unicode="&#xc6;" horiz-adv-x="1792" d="M-25 0l836 1446h870v-193h-565v-426h553v-190h-553v-447h586v-190h-793v637h-338l-356 -637h-240zM676 827h233v435z" />
<glyph unicode="&#xc7;" horiz-adv-x="1366" d="M66 719q0 88 20 176q74 305 315 461q197 125 437 125q225 0 454 -129l-2 -219l-20 12q-23 12 -31 17t-32.5 18.5t-40 19.5t-43 18.5t-49 19.5t-52.5 15.5t-58.5 13.5t-60.5 8t-65 3q-102 0 -195 -33q-172 -61 -265 -201.5t-93 -326.5q0 -129 45 -234q61 -143 196.5 -227 t294.5 -84q80 0 168 18q145 35 324 140v-232q-205 -96 -357 -121q-70 -10 -139 -10q-195 0 -336 74t-221 160q-92 100 -143 239.5t-51 278.5zM498 -453l2 115q2 0 17 -1t32.5 -2t40 1t41.5 6q45 12 68.5 42t23.5 56q0 14 -5 25.5t-11.5 20t-20.5 15.5l-22 11q-8 4 -27 8 t-26 5t-25.5 4.5t-20.5 3.5l74 170h133l-37 -93q47 -8 68 -20q96 -45 96 -152q0 -55 -39 -110q-88 -111 -276 -111q-43 0 -86 6z" />
<glyph unicode="&#xc8;" horiz-adv-x="1024" d="M133 0v1446h776v-191h-569v-438h555v-192h-555v-437h596v-188h-803zM150 1833h335l154 -256h-170z" />
<glyph unicode="&#xc9;" horiz-adv-x="1024" d="M133 0v1446h776v-191h-569v-438h555v-192h-555v-437h596v-188h-803zM397 1577l146 256h331l-311 -256h-166z" />
<glyph unicode="&#xca;" horiz-adv-x="1024" d="M133 0v1446h776v-191h-569v-438h555v-192h-555v-437h596v-188h-803zM156 1579l180 254h340l184 -254h-184l-168 145l-172 -145h-180z" />
<glyph unicode="&#xcb;" horiz-adv-x="1024" d="M90 1695.5q0 59.5 41 99.5t100.5 40t99.5 -43t38 -102q0 -33 -19 -66q-41 -70 -123 -70q-57 0 -97 41t-40 100.5zM133 0v1446h776v-191h-569v-438h555v-192h-555v-437h596v-188h-803zM662 1698q0 57 40.5 97t98.5 40q59 0 100 -42t39 -101q0 -57 -40 -96.5t-99 -39.5 q-39 0 -68 17q-33 16 -52 52t-19 73z" />
<glyph unicode="&#xcc;" horiz-adv-x="512" d="M-106 1833h335l154 -256h-170zM133 0v1446h203v-1446h-203z" />
<glyph unicode="&#xcd;" horiz-adv-x="512" d="M133 0v1446h203v-1446h-203zM141 1577l146 256h331l-311 -256h-166z" />
<glyph unicode="&#xce;" horiz-adv-x="512" d="M-100 1579l180 254h340l184 -254h-184l-168 145l-172 -145h-180zM133 0v1446h203v-1446h-203z" />
<glyph unicode="&#xcf;" horiz-adv-x="512" d="M-166 1695.5q0 59.5 41 99.5t100.5 40t99.5 -43t38 -102q0 -33 -19 -66q-41 -70 -123 -70q-57 0 -97 41t-40 100.5zM133 0v1446h203v-1446h-203zM406 1698q0 57 40.5 97t98.5 40q59 0 100 -42t39 -101q0 -57 -40 -96.5t-99 -39.5q-39 0 -68 17q-33 16 -52 52t-19 73z" />
<glyph unicode="&#xd1;" horiz-adv-x="1579" d="M133 0v1446h166l713 -858l104 -129q18 -25 51 -72t45 -63q-6 129 -14 383v739h205v-1446h-170l-705 852l-118 152l-86 122q8 -201 12 -399v-727h-203zM438 1651l6.5 13l6.5 13q80 164 198 164q51 0 156 -49l61 -29q2 -2 12.5 -7t27 -10t28.5 -5q25 0 24 6q31 12 62 88 l123 -45q-23 -59 -40.5 -92t-58 -66t-94.5 -33q-72 4 -147 41l-72 35q-53 27 -76 27q-37 -2 -71 -53q-18 -27 -29 -56z" />
<glyph unicode="&#xd2;" horiz-adv-x="1705" d="M66 723q0 254 161 467q219 287 602 287q279 0 482 -162q143 -115 218 -273.5t68 -339.5q-6 -268 -182 -471q-225 -262 -577 -262q-299 0 -516 191q-121 106 -188.5 255.5t-67.5 307.5zM276 719q0 -178 119 -332q25 -33 57.5 -63.5t86 -68.5t128 -61.5t158.5 -23.5 q209 0 367 131q193 162 197 418q0 119 -48 225q-20 49 -55 97.5t-94 104.5t-153.5 92t-207.5 36q-205 0 -350 -121q-96 -78 -151.5 -194.5t-53.5 -239.5zM489 1833h338l154 -256h-172z" />
<glyph unicode="&#xd3;" horiz-adv-x="1705" d="M66 723q0 254 161 467q219 287 602 287q279 0 482 -162q143 -115 218 -273.5t68 -339.5q-6 -268 -182 -471q-225 -262 -577 -262q-299 0 -516 191q-121 106 -188.5 255.5t-67.5 307.5zM276 719q0 -178 119 -332q25 -33 57.5 -63.5t86 -68.5t128 -61.5t158.5 -23.5 q209 0 367 131q193 162 197 418q0 119 -48 225q-20 49 -55 97.5t-94 104.5t-153.5 92t-207.5 36q-205 0 -350 -121q-96 -78 -151.5 -194.5t-53.5 -239.5zM739 1577l146 256h332l-314 -256h-164z" />
<glyph unicode="&#xd4;" horiz-adv-x="1705" d="M66 723q0 254 161 467q219 287 602 287q279 0 482 -162q143 -115 218 -273.5t68 -339.5q-6 -268 -182 -471q-225 -262 -577 -262q-299 0 -516 191q-121 106 -188.5 255.5t-67.5 307.5zM276 719q0 -178 119 -332q25 -33 57.5 -63.5t86 -68.5t128 -61.5t158.5 -23.5 q209 0 367 131q193 162 197 418q0 119 -48 225q-20 49 -55 97.5t-94 104.5t-153.5 92t-207.5 36q-205 0 -350 -121q-96 -78 -151.5 -194.5t-53.5 -239.5zM496 1579l182 254h340l182 -254h-182l-170 145l-170 -145h-182z" />
<glyph unicode="&#xd5;" horiz-adv-x="1705" d="M66 723q0 254 161 467q219 287 602 287q279 0 482 -162q143 -115 218 -273.5t68 -339.5q-6 -268 -182 -471q-225 -262 -577 -262q-299 0 -516 191q-121 106 -188.5 255.5t-67.5 307.5zM276 719q0 -178 119 -332q25 -33 57.5 -63.5t86 -68.5t128 -61.5t158.5 -23.5 q209 0 367 131q193 162 197 418q0 119 -48 225q-20 49 -55 97.5t-94 104.5t-153.5 92t-207.5 36q-205 0 -350 -121q-96 -78 -151.5 -194.5t-53.5 -239.5zM502 1651q10 23 14 26q76 164 197 164q55 0 155 -49l62 -29q2 -2 13 -7t27.5 -10t28.5 -5q18 0 25 6q27 12 61 88 l121 -45q-23 -59 -40 -92t-58 -66t-94 -33q-70 4 -148 41l-71 35q-53 27 -76 27q-37 -2 -72 -53q-23 -37 -29 -56z" />
<glyph unicode="&#xd6;" horiz-adv-x="1705" d="M66 723q0 254 161 467q219 287 602 287q279 0 482 -162q143 -115 218 -273.5t68 -339.5q-6 -268 -182 -471q-225 -262 -577 -262q-299 0 -516 191q-121 106 -188.5 255.5t-67.5 307.5zM276 719q0 -178 119 -332q25 -33 57.5 -63.5t86 -68.5t128 -61.5t158.5 -23.5 q209 0 367 131q193 162 197 418q0 119 -48 225q-20 49 -55 97.5t-94 104.5t-153.5 92t-207.5 36q-205 0 -350 -121q-96 -78 -151.5 -194.5t-53.5 -239.5zM406 1695.5q0 59.5 40.5 99.5t100 40t99.5 -43t38 -102q0 -35 -16 -62q-12 -25 -44 -49.5t-81 -24.5q-57 0 -97 41 t-40 100.5zM977 1698q0 57 41 97t98 40q59 0 100 -42t41 -101q-2 -16 -10 -52q-35 -84 -131 -84q-33 0 -59 13q-35 14 -57.5 51t-22.5 78z" />
<glyph unicode="&#xd7;" horiz-adv-x="1366" d="M158 188l411 410l-411 412l112 114l414 -411l410 411l114 -114l-409 -412l409 -410l-114 -114l-410 409l-414 -409z" />
<glyph unicode="&#xd8;" horiz-adv-x="1705" d="M66 719q0 279 180 493q37 43 83 82t118.5 84t174 72t214.5 27q195 0 344 -78q53 -31 96 -62l137 162l88 -74l-137 -161q70 -78 100 -121q133 -193 133 -430q0 -131 -50 -264.5t-136 -231.5q-82 -94 -227.5 -171t-352.5 -77q-201 0 -354 82q-47 27 -110 76l-140 -160 l-88 74l137 162q-53 59 -90 112q-120 177 -120 404zM281 719q0 -88 28.5 -169t48 -110.5t58.5 -81.5l725 826q-154 92 -297 92q-121 0 -236 -47q-158 -66 -242.5 -201t-84.5 -309zM502 279q51 -37 90 -56q100 -53 242 -53q217 0 368 133q182 158 182 418q0 74 -14 138.5 t-45 118.5t-46 74.5t-48 61.5z" />
<glyph unicode="&#xd9;" horiz-adv-x="1492" d="M129 598v848h205v-819q4 -209 63 -297q27 -43 78 -78q96 -68 244 -68q170 0 272 84q55 43 88 115q33 74 37 254v809h205v-838q0 -121 -8 -176q-16 -139 -82 -232.5t-189 -156.5q-154 -74 -319 -74q-135 0 -263 51.5t-212 147.5q-47 59 -76 129q-39 100 -43 301zM383 1833 h338l153 -256h-172z" />
<glyph unicode="&#xda;" horiz-adv-x="1492" d="M129 598v848h205v-819q4 -209 63 -297q27 -43 78 -78q96 -68 244 -68q170 0 272 84q55 43 88 115q33 74 37 254v809h205v-838q0 -121 -8 -176q-16 -139 -82 -232.5t-189 -156.5q-154 -74 -319 -74q-135 0 -263 51.5t-212 147.5q-47 59 -76 129q-39 100 -43 301zM633 1577 l145 256h332l-313 -256h-164z" />
<glyph unicode="&#xdb;" horiz-adv-x="1492" d="M129 598v848h205v-819q4 -209 63 -297q27 -43 78 -78q96 -68 244 -68q170 0 272 84q55 43 88 115q33 74 37 254v809h205v-838q0 -121 -8 -176q-16 -139 -82 -232.5t-189 -156.5q-154 -74 -319 -74q-135 0 -263 51.5t-212 147.5q-47 59 -76 129q-39 100 -43 301zM389 1579 l182 254h340l183 -254h-183l-170 145l-170 -145h-182z" />
<glyph unicode="&#xdc;" horiz-adv-x="1492" d="M129 598v848h205v-819q4 -209 63 -297q27 -43 78 -78q96 -68 244 -68q170 0 272 84q55 43 88 115q33 74 37 254v809h205v-838q0 -121 -8 -176q-16 -139 -82 -232.5t-189 -156.5q-154 -74 -319 -74q-135 0 -263 51.5t-212 147.5q-47 59 -76 129q-39 100 -43 301zM299 1696 q2 59 43 99t98 40q59 0 99.5 -43t38.5 -102q0 -39 -19 -66q-39 -70 -123 -70q-57 0 -97 41.5t-40 100.5zM870 1698q0 57 41 97t99 40q59 0 100 -42t41 -101q-2 -57 -42 -96.5t-97 -39.5q-39 0 -64 13q-35 16 -56.5 53t-21.5 76z" />
<glyph unicode="&#xdd;" horiz-adv-x="1236" d="M522 1600l133 323h227l-212 -323h-148zM0 1446h252l344 -481l344 481h254l-498 -680v-766h-204v766z" />
<glyph unicode="&#xdf;" d="M115 0v1010q0 195 65 290q43 63 127 113.5t211 50.5q121 0 220.5 -54t138.5 -161q23 -61 22 -145q0 -68 -16.5 -121t-49 -90t-54 -53.5t-58.5 -40.5q59 -25 96 -49q137 -98 137 -314q0 -186 -81.5 -295.5t-184.5 -142.5q-59 -16 -115 -16q-57 0 -145 16l2 199 q66 -27 113 -27q68 0 114 29q102 68 103 233q0 106 -45 168t-105 84q-47 20 -168 25v165q59 2 91 6.5t70 25t65 61.5q37 61 34 129q0 113 -75 161q-41 27 -107 27q-119 0 -176 -92q-35 -55 -37 -238v-954h-192z" />
<glyph unicode="&#xe0;" horiz-adv-x="854" d="M23 203q0 131 114 213q88 63 371 151q4 150 -64 195q-39 25 -90 24q-45 0 -106.5 -28.5t-92 -49t-89.5 -63.5v197q27 18 79 51q131 72 248 72q154 0 240 -111q57 -74 61 -233v-381q0 -43 6.5 -60.5t30.5 -17.5l25 6l71 27l-2 -140q-143 -80 -206.5 -80t-108.5 74 q-137 -74 -227 -74q-92 0 -166 52q-94 61 -94 176zM147 1374h226l141 -327h-141zM219 240q0 -27 10 -47q31 -68 113 -68q51 0 166 61v263q-123 -37 -170 -62q-121 -59 -119 -147z" />
<glyph unicode="&#xe1;" horiz-adv-x="854" d="M23 203q0 131 114 213q88 63 371 151q4 150 -64 195q-39 25 -90 24q-45 0 -106.5 -28.5t-92 -49t-89.5 -63.5v197q27 18 79 51q131 72 248 72q154 0 240 -111q57 -74 61 -233v-381q0 -43 6.5 -60.5t30.5 -17.5l25 6l71 27l-2 -140q-143 -80 -206.5 -80t-108.5 74 q-137 -74 -227 -74q-92 0 -166 52q-94 61 -94 176zM219 240q0 -27 10 -47q31 -68 113 -68q51 0 166 61v263q-123 -37 -170 -62q-121 -59 -119 -147zM301 1051l133 323h225l-210 -323h-148z" />
<glyph unicode="&#xe2;" horiz-adv-x="854" d="M23 203q0 131 114 213q88 63 371 151q4 150 -64 195q-39 25 -90 24q-45 0 -106.5 -28.5t-92 -49t-89.5 -63.5v197q27 18 79 51q131 72 248 72q154 0 240 -111q57 -74 61 -233v-381q0 -43 6.5 -60.5t30.5 -17.5l25 6l71 27l-2 -140q-143 -80 -206.5 -80t-108.5 74 q-137 -74 -227 -74q-92 0 -166 52q-94 61 -94 176zM61 1049l238 325h203l243 -325h-153l-191 178l-190 -178h-150zM219 240q0 -27 10 -47q31 -68 113 -68q51 0 166 61v263q-123 -37 -170 -62q-121 -59 -119 -147z" />
<glyph unicode="&#xe3;" horiz-adv-x="854" d="M23 203q0 131 114 213q88 63 371 151q4 150 -64 195q-39 25 -90 24q-45 0 -106.5 -28.5t-92 -49t-89.5 -63.5v197q27 18 79 51q131 72 248 72q154 0 240 -111q57 -74 61 -233v-381q0 -43 6.5 -60.5t30.5 -17.5l25 6l71 27l-2 -140q-143 -80 -206.5 -80t-108.5 74 q-137 -74 -227 -74q-92 0 -166 52q-94 61 -94 176zM55 1171q39 80 70 117q57 72 139 72q47 0 160 -53l61 -29q61 -20 74 -21q43 0 76 95l127 -45l-19 -43q-66 -147 -178 -148q-61 0 -147 41l-60 29q-63 33 -84 33q-33 0 -52 -21.5t-52 -81.5zM219 240q0 -27 10 -47 q31 -68 113 -68q51 0 166 61v263q-123 -37 -170 -62q-121 -59 -119 -147z" />
<glyph unicode="&#xe4;" horiz-adv-x="854" d="M23 203q0 131 114 213q88 63 371 151q4 150 -64 195q-39 25 -90 24q-45 0 -106.5 -28.5t-92 -49t-89.5 -63.5v197q27 18 79 51q131 72 248 72q154 0 240 -111q57 -74 61 -233v-381q0 -43 6.5 -60.5t30.5 -17.5l25 6l71 27l-2 -140q-143 -80 -206.5 -80t-108.5 74 q-137 -74 -227 -74q-92 0 -166 52q-94 61 -94 176zM51 1210q0 53 34 88t87 35q49 0 84 -30.5t39 -79.5q4 -55 -33 -94t-92 -39q-51 0 -85 34.5t-34 85.5zM219 240q0 -27 10 -47q31 -68 113 -68q51 0 166 61v263q-123 -37 -170 -62q-121 -59 -119 -147zM479 1212.5 q0 51.5 36 86t87 32.5q49 0 84 -31.5t37 -80.5q4 -53 -30 -91t-87 -38t-90 35.5t-37 87z" />
<glyph unicode="&#xe5;" horiz-adv-x="854" d="M23 203q0 131 114 213q88 63 371 151q4 150 -64 195q-39 25 -90 24q-45 0 -106.5 -28.5t-92 -49t-89.5 -63.5v197q27 18 79 51q131 72 248 72q154 0 240 -111q57 -74 61 -233v-381q0 -43 6.5 -60.5t30.5 -17.5l25 6l71 27l-2 -140q-143 -80 -206.5 -80t-108.5 74 q-137 -74 -227 -74q-92 0 -166 52q-94 61 -94 176zM188 1198q0 84 57.5 142.5t139.5 58.5q33 0 68 -13q125 -49 129 -184q0 -49 -17 -86q-16 -39 -61 -77t-117 -38q-84 0 -141.5 56.5t-57.5 140.5zM219 240q0 -27 10 -47q31 -68 113 -68q51 0 166 61v263q-123 -37 -170 -62 q-121 -59 -119 -147zM283 1200q0 -45 29.5 -74.5t74.5 -29.5q43 2 71.5 32.5t28.5 73.5q-2 43 -29.5 72t-72.5 29q-43 0 -72.5 -30t-29.5 -73z" />
<glyph unicode="&#xe6;" horiz-adv-x="1409" d="M23 213q0 119 127 209q131 92 368 151q0 53 -4 82q-16 94 -84 121q-25 12 -68 12q-104 0 -294 -147v201q188 123 335 123q23 0 44.5 -3.5t41 -9.5t34 -11t30.5 -15.5t25.5 -16.5t22.5 -18t19 -18l17 -17l12 -14q37 37 64 55q88 68 219 68q197 0 301 -164q70 -111 90 -350 h-635q8 -92 31 -142q29 -61 86 -97t96 -43t72 -7q143 0 334 121v-197q-186 -111 -344 -111q-78 0 -151 30t-97.5 50.5t-67.5 59.5q-47 -33 -90 -60q-137 -80 -262 -80q-61 0 -115 23q-70 27 -113.5 85t-43.5 130zM221 238q0 -20 10 -41q31 -72 115 -72q57 0 172 70l-2 251 q-147 -49 -190 -73q-105 -53 -105 -135zM694 588h436l-9 40q-3 13 -19.5 48t-35.5 55.5t-58 37.5t-86 17q-139 0 -199 -114q-13 -23 -29 -84z" />
<glyph unicode="&#xe7;" horiz-adv-x="854" d="M53 467q4 111 37 201q18 45 47 88t80 94t133 83t182 32q135 0 275 -70v-201q-57 31 -85 45.5t-74 26.5t-97 12q-141 0 -220 -87t-79 -230q0 -135 78 -217t213 -82q78 0 137 22.5t141 71.5v-197l-65 -36q-100 -47 -226 -48q-174 0 -301 107q-176 141 -176 385zM242 -453 l2 115q2 0 17 -1t32.5 -2t40 1t41.5 6q45 12 68.5 42t23.5 56q0 14 -5 25.5t-11.5 20t-20.5 15.5l-22 11q-8 4 -27 8t-26 5t-25.5 4.5t-20.5 3.5l74 170h133l-37 -93q47 -8 68 -20q96 -45 96 -152q0 -55 -39 -110q-88 -111 -278 -111q-41 0 -84 6z" />
<glyph unicode="&#xe8;" horiz-adv-x="980" d="M53 483q0 94 29 179q45 137 152.5 220t250.5 83q205 0 322 -177q78 -121 90 -346l-645 -2q8 -70 20 -102q33 -86 111 -133t174 -47q131 0 322 112v-188q-53 -33 -68 -41q-139 -66 -281 -66q-174 0 -301 103q-86 70 -131 178t-45 227zM231 1374h228l139 -327h-139z M256 584h451q-14 53 -29 84q-55 119 -195 118q-84 0 -135 -42t-71.5 -86.5t-20.5 -73.5z" />
<glyph unicode="&#xe9;" horiz-adv-x="980" d="M53 483q0 94 29 179q45 137 152.5 220t250.5 83q205 0 322 -177q78 -121 90 -346l-645 -2q8 -70 20 -102q33 -86 111 -133t174 -47q131 0 322 112v-188q-53 -33 -68 -41q-139 -66 -281 -66q-174 0 -301 103q-86 70 -131 178t-45 227zM256 584h451q-14 53 -29 84 q-55 119 -195 118q-84 0 -135 -42t-71.5 -86.5t-20.5 -73.5zM387 1051l133 323h225l-213 -323h-145z" />
<glyph unicode="&#xea;" horiz-adv-x="980" d="M53 483q0 94 29 179q45 137 152.5 220t250.5 83q205 0 322 -177q78 -121 90 -346l-645 -2q8 -70 20 -102q33 -86 111 -133t174 -47q131 0 322 112v-188q-53 -33 -68 -41q-139 -66 -281 -66q-174 0 -301 103q-86 70 -131 178t-45 227zM147 1049l238 325h203l243 -325h-155 l-189 178l-192 -178h-148zM256 584h451q-14 53 -29 84q-55 119 -195 118q-84 0 -135 -42t-71.5 -86.5t-20.5 -73.5z" />
<glyph unicode="&#xeb;" horiz-adv-x="980" d="M53 483q0 94 29 179q45 137 152.5 220t250.5 83q205 0 322 -177q78 -121 90 -346l-645 -2q8 -70 20 -102q33 -86 111 -133t174 -47q131 0 322 112v-188q-53 -33 -68 -41q-139 -66 -281 -66q-174 0 -301 103q-86 70 -131 178t-45 227zM156 1212q0 51 34.5 86t88.5 35 q47 0 81.5 -30.5t38.5 -79.5q0 -29 -6 -45q-4 -16 -14 -34t-39 -36t-66 -18q-51 0 -84.5 34.5t-33.5 87.5zM256 584h451q-14 53 -29 84q-55 119 -195 118q-84 0 -135 -42t-71.5 -86.5t-20.5 -73.5zM584 1212.5q0 51.5 35.5 86t87.5 32.5q49 0 83.5 -31.5t36.5 -80.5 q4 -53 -30.5 -91t-87.5 -38q-51 0 -88 35.5t-37 87z" />
<glyph unicode="&#xec;" horiz-adv-x="468" d="M-25 1374h228l139 -327h-139zM117 0v940h194v-940h-194z" />
<glyph unicode="&#xed;" horiz-adv-x="468" d="M117 0v940h194v-940h-194zM131 1051l133 323h225l-213 -323h-145z" />
<glyph unicode="&#xee;" horiz-adv-x="468" d="M-109 1049l238 325h203l243 -325h-155l-189 178l-192 -178h-148zM117 0v940h194v-940h-194z" />
<glyph unicode="&#xef;" horiz-adv-x="468" d="M-100 1212q0 51 34.5 86t88.5 35q47 0 81.5 -30.5t38.5 -79.5q0 -29 -4 -45q-29 -88 -121 -88q-51 0 -84.5 34.5t-33.5 87.5zM117 0v940h194v-940h-194zM328 1212.5q0 51.5 35.5 86t87.5 32.5q49 0 83.5 -31.5t36.5 -80.5q4 -53 -30.5 -91t-87.5 -38q-51 0 -88 35.5 t-37 87z" />
<glyph unicode="&#xf1;" d="M115 0v940h192l2 -82q39 31 61.5 46.5t81 34.5t126.5 19q186 0 274 -137q37 -57 46 -125.5t11 -226.5v-469h-190v463q0 152 -8 184q-10 49 -51.5 91t-120.5 42q-43 0 -88 -17.5t-71 -33.5t-73 -51v-678h-192zM182 1171q49 90 70 117q57 72 139 72q45 0 162 -53l59 -29 q61 -20 74 -21q20 0 36.5 18.5t23 31t18.5 45.5l125 -45q-4 -8 -8 -22.5t-9 -20.5q-66 -147 -180 -148q-57 0 -147 41l-58 29q-66 33 -86 33q-33 0 -52 -21.5t-52 -81.5z" />
<glyph unicode="&#xf2;" horiz-adv-x="1150" d="M53 473q0 100 43 199q61 133 186.5 213t272.5 80q209 0 355.5 -148.5t144.5 -355.5q0 -158 -99 -285q-154 -201 -401 -201q-109 0 -197 41q-137 59 -221 184.5t-84 272.5zM238 473q0 -59 22 -113q37 -92 117 -146t178 -54q137 0 231 100q84 88 84 211q0 66 -26 125 q-33 74 -95.5 119t-109.5 56t-86 9q-59 0 -107 -18q-92 -33 -150 -113t-58 -176zM317 1374h226l141 -327h-141z" />
<glyph unicode="&#xf3;" horiz-adv-x="1150" d="M53 473q0 100 43 199q61 133 186.5 213t272.5 80q209 0 355.5 -148.5t144.5 -355.5q0 -158 -99 -285q-154 -201 -401 -201q-109 0 -197 41q-137 59 -221 184.5t-84 272.5zM238 473q0 -59 22 -113q37 -92 117 -146t178 -54q137 0 231 100q84 88 84 211q0 66 -26 125 q-33 74 -95.5 119t-109.5 56t-86 9q-59 0 -107 -18q-92 -33 -150 -113t-58 -176zM473 1051l131 323h227l-213 -323h-145z" />
<glyph unicode="&#xf4;" horiz-adv-x="1150" d="M53 473q0 100 43 199q61 133 186.5 213t272.5 80q209 0 355.5 -148.5t144.5 -355.5q0 -158 -99 -285q-154 -201 -401 -201q-109 0 -197 41q-137 59 -221 184.5t-84 272.5zM231 1049l238 325h203l243 -325h-153l-191 178l-190 -178h-150zM238 473q0 -59 22 -113 q37 -92 117 -146t178 -54q137 0 231 100q84 88 84 211q0 66 -26 125q-33 74 -95.5 119t-109.5 56t-86 9q-59 0 -107 -18q-92 -33 -150 -113t-58 -176z" />
<glyph unicode="&#xf5;" horiz-adv-x="1150" d="M53 473q0 100 43 199q61 133 186.5 213t272.5 80q209 0 355.5 -148.5t144.5 -355.5q0 -158 -99 -285q-154 -201 -401 -201q-109 0 -197 41q-137 59 -221 184.5t-84 272.5zM225 1171q49 90 70 117q57 72 139 72q47 0 160 -53l61 -29q61 -20 74 -21q20 0 36.5 18.5t23 31 t18.5 45.5l125 -45l-19 -43q-61 -147 -178 -148q-61 0 -147 41l-58 29q-66 33 -86 33q-33 0 -52 -21.5t-52 -81.5zM238 473q0 -59 22 -113q37 -92 117 -146t178 -54q137 0 231 100q84 88 84 211q0 66 -26 125q-33 74 -95.5 119t-109.5 56t-86 9q-59 0 -107 -18 q-92 -33 -150 -113t-58 -176z" />
<glyph unicode="&#xf6;" horiz-adv-x="1150" d="M53 473q0 100 43 199q61 133 186.5 213t272.5 80q209 0 355.5 -148.5t144.5 -355.5q0 -158 -99 -285q-154 -201 -401 -201q-109 0 -197 41q-137 59 -221 184.5t-84 272.5zM215 1210q0 53 34 88t89 35q47 0 82 -30.5t39 -79.5q4 -55 -33 -94t-92 -39q-51 0 -85 34.5 t-34 85.5zM238 473q0 -59 22 -113q37 -92 117 -146t178 -54q137 0 231 100q84 88 84 211q0 66 -26 125q-33 74 -95.5 119t-109.5 56t-86 9q-59 0 -107 -18q-92 -33 -150 -113t-58 -176zM643 1212.5q0 51.5 36 86t87 32.5q49 0 84 -31.5t37 -80.5q4 -53 -30 -91t-87 -38 q-51 0 -89 35.5t-38 87z" />
<glyph unicode="&#xf7;" horiz-adv-x="1366" d="M0 514v162h1366v-162h-1366zM569 297q0 49 34 83t83 34t82 -34t33 -83t-34 -82t-83 -31q-47 0 -81 33t-34 80zM569 891q0 49 34 83t83 34q49 -2 82 -36t33 -83q0 -47 -34 -80t-81 -33q-49 2 -83 34t-34 81z" />
<glyph unicode="&#xf8;" horiz-adv-x="1150" d="M51 -12l137 151q-135 154 -135 330q2 207 147.5 352.5t352.5 145.5q147 0 299 -101l137 152l70 -64l-135 -153q4 -6 20.5 -24.5t24.5 -31.5q86 -119 86 -276q0 -106 -35 -188q-18 -47 -47 -92.5t-81 -97.5t-137 -84t-190 -32q-166 0 -309 99l-133 -148zM236 469 q0 -104 67 -203l428 473q-78 53 -172 54q-70 0 -123 -23q-90 -35 -145 -120t-55 -181zM381 207q80 -61 184 -62q98 0 178 52q135 92 136 270q0 100 -74 207z" />
<glyph unicode="&#xf9;" d="M115 420v520h192v-473q0 -172 21 -217q14 -35 55 -62q47 -29 102 -28q82 0 170 59q20 12 60 47v674h194v-940h-194l-2 82q-47 -35 -68 -47q-88 -53 -201 -53q-164 0 -256 120q-33 43 -49 103.5t-19 100.5t-5 114zM274 1374h228l139 -327h-139z" />
<glyph unicode="&#xfa;" d="M115 420v520h192v-473q0 -172 21 -217q14 -35 55 -62q47 -29 102 -28q82 0 170 59q20 12 60 47v674h194v-940h-194l-2 82q-47 -35 -68 -47q-88 -53 -201 -53q-164 0 -256 120q-33 43 -49 103.5t-19 100.5t-5 114zM430 1051l133 323h225l-213 -323h-145z" />
<glyph unicode="&#xfb;" d="M115 420v520h192v-473q0 -172 21 -217q14 -35 55 -62q47 -29 102 -28q82 0 170 59q20 12 60 47v674h194v-940h-194l-2 82q-47 -35 -68 -47q-88 -53 -201 -53q-164 0 -256 120q-33 43 -49 103.5t-19 100.5t-5 114zM188 1049l240 325h203l241 -325h-153l-191 178l-190 -178 h-150z" />
<glyph unicode="&#xfc;" d="M115 420v520h192v-473q0 -172 21 -217q14 -35 55 -62q47 -29 102 -28q82 0 170 59q20 12 60 47v674h194v-940h-194l-2 82q-47 -35 -68 -47q-88 -53 -201 -53q-164 0 -256 120q-33 43 -49 103.5t-19 100.5t-5 114zM176 1210q0 53 34 88t87 35q49 0 84 -30.5t39 -79.5 q4 -55 -33 -94t-92 -39q-51 0 -85 34.5t-34 85.5zM604 1212.5q0 51.5 36 86t87 32.5q49 0 84 -31.5t37 -80.5q4 -53 -30 -91t-89 -38q-51 0 -88 35.5t-37 87z" />
<glyph unicode="&#xfd;" horiz-adv-x="980" d="M416 1088l133 323h227l-212 -323h-148zM0 940h215l172 -375l109 -246l36 99l66 149l170 373h213l-659 -1470h-216l285 641z" />
<glyph unicode="&#xff;" horiz-adv-x="980" d="M0 940h215l172 -375l109 -246l36 99l66 149l170 373h213l-659 -1470h-216l285 641zM156 1212q0 51 34.5 86t88.5 35q47 0 81.5 -30.5t38.5 -79.5q0 -29 -6 -45q-4 -16 -14 -34t-39 -36t-66 -18q-51 0 -84.5 34.5t-33.5 87.5zM584 1212.5q0 51.5 35.5 86t87.5 32.5 q49 0 83.5 -31.5t36.5 -80.5q4 -53 -30.5 -91t-87.5 -38q-51 0 -88 35.5t-37 87z" />
<glyph unicode="&#x152;" horiz-adv-x="1792" d="M66 723q0 96 24 190q43 168 151.5 292t268.5 186q141 55 358 55h834v-193h-547v-436h504v-188h-504v-443h539v-186h-799q-231 0 -365 45q-215 72 -339.5 260.5t-124.5 417.5zM289 717q0 -199 125 -348q139 -162 395 -181q70 -2 143 0l-2 1065q-209 -2 -339 -42t-224 -177 q-98 -143 -98 -317z" />
<glyph unicode="&#x153;" horiz-adv-x="1792" d="M53 469q6 113 45 201q61 137 183 216t274 79q102 0 190 -39q104 -43 205 -166q29 43 49 67q119 137 295 138q90 0 164 -33q172 -78 228 -289q14 -61 22 -190l-653 -2q12 -98 20 -121q29 -84 102.5 -128t168.5 -44q111 0 231 51q25 10 115 61v-188q-59 -33 -89 -47.5 t-114 -37t-170 -22.5q-55 0 -98 9q-135 29 -215 127q-20 23 -56 86q-14 -31 -53 -72q-127 -150 -340 -150q-190 0 -321 111q-84 70 -133.5 172t-49.5 211zM244 469q0 -57 24 -115q37 -88 116 -138t177 -50q68 0 125 24q84 35 133 114t47 173q0 66 -30 127q-39 80 -116 125 t-167 45q-66 0 -123 -24q-82 -35 -134 -114t-52 -167zM1055 588h461q-8 51 -23 82q-55 119 -203 118q-137 0 -205 -116q-14 -25 -30 -84z" />
<glyph unicode="&#x178;" horiz-adv-x="1236" d="M0 1446h252l344 -481l344 481h254l-498 -680v-766h-204v766zM197 1695.5q0 59.5 41 99.5t100 40t99 -43t38 -102q0 -33 -18 -66q-41 -70 -123 -70q-57 0 -97 41t-40 100.5zM768 1698q0 57 41 97t98 40q59 0 100.5 -42t39.5 -101q0 -57 -40 -96.5t-100 -39.5q-39 0 -67 17 q-33 16 -52.5 52t-19.5 73z" />
<glyph unicode="&#x2c6;" horiz-adv-x="555" d="M-238 1049l238 325h203l243 -325h-153l-191 178l-190 -178h-150z" />
<glyph unicode="&#x2dc;" horiz-adv-x="555" d="M-244 1171q49 90 70 117q57 72 139 72q47 0 160 -53l61 -29q61 -20 74 -21q20 0 36.5 18.5t23 31t18.5 45.5l125 -45l-19 -43q-66 -147 -178 -148q-61 0 -147 41l-60 29q-63 33 -84 33q-33 0 -52 -21.5t-52 -81.5z" />
<glyph unicode="&#x2000;" horiz-adv-x="960" />
<glyph unicode="&#x2001;" horiz-adv-x="1923" />
<glyph unicode="&#x2002;" horiz-adv-x="960" />
<glyph unicode="&#x2003;" horiz-adv-x="1923" />
<glyph unicode="&#x2004;" horiz-adv-x="641" />
<glyph unicode="&#x2005;" horiz-adv-x="479" />
<glyph unicode="&#x2006;" horiz-adv-x="319" />
<glyph unicode="&#x2007;" horiz-adv-x="319" />
<glyph unicode="&#x2008;" horiz-adv-x="239" />
<glyph unicode="&#x2009;" horiz-adv-x="382" />
<glyph unicode="&#x200a;" horiz-adv-x="106" />
<glyph unicode="&#x2010;" horiz-adv-x="724" d="M72 387v201h581v-201h-581z" />
<glyph unicode="&#x2011;" horiz-adv-x="724" d="M72 387v201h581v-201h-581z" />
<glyph unicode="&#x2012;" horiz-adv-x="724" d="M72 387v201h581v-201h-581z" />
<glyph unicode="&#x2013;" d="M72 385v203h923v-203h-923z" />
<glyph unicode="&#x2014;" horiz-adv-x="1366" d="M0 518v162h1366v-162h-1366z" />
<glyph unicode="&#x2018;" horiz-adv-x="468" d="M70 1016q0 184 163 356q43 43 111 92l41 -49q-45 -82 -49 -94q-43 -90 -47 -240q104 -45 104 -137q0 -66 -44 -109.5t-107 -43.5q-43 0 -80 22q-92 56 -92 203z" />
<glyph unicode="&#x2019;" horiz-adv-x="468" d="M76 1313q0 63 44 108t107 45q51 -4 86 -26q86 -55 86 -199q0 -80 -35.5 -164t-66.5 -123t-59 -67q-31 -31 -113 -96l-41 51q4 8 12 21.5t14.5 24.5t10.5 21q12 25 22.5 48.5t16.5 48t10 40t7 40t3 32.5v33l2 25q-106 39 -106 137z" />
<glyph unicode="&#x201a;" horiz-adv-x="468" d="M76 143q0 61 43 107.5t104 46.5q63 0 118.5 -58.5t57.5 -170.5q-4 -215 -202 -385q-37 -33 -76 -58l-41 45q70 109 88 203q10 72 10 84v47q-2 0 -12 4t-19 8q-71 39 -71 127z" />
<glyph unicode="&#x201c;" horiz-adv-x="937" d="M72 1020q0 195 155 348q41 41 115 96l45 -51q-29 -41 -53 -90q-47 -102 -47 -240q106 -37 106 -143q0 -29 -12 -61q-33 -86 -131 -86q-53 0 -93 31.5t-53.5 57t-21.5 50.5q-10 35 -10 88zM539 1026q0 133 94 264q20 29 69 82q51 55 109 92l43 -49q-33 -53 -48 -80.5 t-32.5 -97.5t-17.5 -154q20 -6 41 -16q66 -39 65 -127q0 -39 -10 -61q-41 -90 -139 -91q-68 0 -121 59.5t-53 178.5z" />
<glyph unicode="&#x201d;" horiz-adv-x="937" d="M76 1315q0 33 12 61q16 41 54 65.5t83 24.5q70 -2 123 -60t51 -177q0 -57 -12 -101q-53 -193 -260 -337l-43 49q2 4 8 12t8 12q88 137 82 307q-106 35 -106 144zM547 1315q0 25 6 45t18.5 40.5t44 41t74.5 20.5q117 0 164 -131q14 -39 14 -98q-4 -199 -155 -346 q-37 -35 -115 -96l-47 51q33 43 51 84q49 98 49 245q-68 23 -90 74q-14 31 -14 70z" />
<glyph unicode="&#x201e;" horiz-adv-x="937" d="M76 152q0 33 12 61q37 88 137 88q70 0 123 -59.5t51 -178.5q0 -61 -16 -114q-29 -90 -100.5 -179t-155.5 -143l-43 49q2 4 8 12.5t8 12.5q88 137 82 307q-29 10 -41 17q-65 39 -65 127zM547 152q0 31 10 57q33 90 131 90q53 0 94 -31.5t55.5 -58.5t20.5 -49 q10 -37 10 -90q0 -45 -10 -101q-31 -125 -135 -235q-41 -41 -125 -107l-47 51q35 47 53 89q47 98 47 241q-104 38 -104 144z" />
<glyph unicode="&#x2022;" horiz-adv-x="681" d="M74 723q0 49 20 98q33 78 100.5 123t151.5 45q111 0 185.5 -76.5t76.5 -189.5q0 -55 -22 -113q-70 -154 -240 -153q-113 0 -192.5 76.5t-79.5 189.5z" />
<glyph unicode="&#x2026;" horiz-adv-x="2048" d="M225 104q0 20 8 43q31 72 111 72q47 0 80 -33.5t33 -81.5q0 -49 -33 -82.5t-82 -33.5t-83 33.5t-34 82.5zM909 104q0 27 9 46q31 70 108 69q47 0 81 -33.5t34 -81.5q0 -49 -34 -82.5t-83 -33.5q-47 0 -81 33.5t-34 82.5zM1591 104q0 47 35 81t82 34q49 0 82 -33.5 t33 -81.5q0 -49 -33 -82.5t-82 -33.5t-83 33.5t-34 82.5z" />
<glyph unicode="&#x202f;" horiz-adv-x="382" />
<glyph unicode="&#x2039;" horiz-adv-x="1366" d="M0 635v176l1366 641v-176l-1161 -553l1161 -553v-176z" />
<glyph unicode="&#x203a;" horiz-adv-x="1366" d="M0 -6v176l1161 553l-1161 553v176l1366 -641v-176z" />
<glyph unicode="&#x2044;" horiz-adv-x="256" d="M-285 0l740 1489l86 -41l-742 -1493z" />
<glyph unicode="&#x205f;" horiz-adv-x="479" />
<glyph unicode="&#x2122;" horiz-adv-x="1406" d="M33 1346v100h553v-100h-213v-580h-121v580h-219zM643 766v680h162l170 -537l166 537h162v-680h-117l4 422q0 70 6 137q-12 -49 -35 -115l-137 -444h-104l-140 446q-6 18 -17 55.5t-18 55.5q8 -59 9 -135l6 -422h-117z" />
<glyph unicode="&#xe000;" horiz-adv-x="940" d="M0 940h940v-940h-940v940z" />
<glyph unicode="&#xfb01;" horiz-adv-x="1024" d="M0 780v160h145v64q-2 49 0 100q8 186 105 276q84 84 219 84q63 0 180 -39v-178q-98 43 -162 43q-70 0 -102 -35q-10 -10 -17.5 -23t-12.5 -25.5t-8 -32t-5 -30.5t-3 -34t-1 -31v-31v-26v-82h184v-160h-184v-780h-193v780h-145zM649 1157q0 25 13 55q33 63 108 64 q51 0 86 -36t31 -87q-2 -49 -38 -82t-85 -33q-49 2 -82 35t-33 84zM672 0v940h196v-940h-196z" />
<glyph unicode="&#xfb02;" horiz-adv-x="1024" d="M0 780v160h145v64q-2 49 0 100q8 186 105 276q84 84 219 84q63 0 180 -39v-178q-98 43 -162 43q-70 0 -102 -35q-10 -10 -17.5 -23t-12.5 -25.5t-8 -32t-5 -30.5t-3 -34t-1 -31v-31v-26v-82h184v-160h-184v-780h-193v780h-145zM672 0v1446h192v-1446h-192z" />
<glyph unicode="&#xfb03;" horiz-adv-x="1579" d="M1204 1157q0 25 12 55q33 63 109 64q51 0 86 -36q31 -32 31 -76v-11q-2 -49 -38 -82t-85 -33q-49 2 -82 35t-33 84zM1227 0v940h196v-940h-196zM555 780v160h145v64q-1 25 -1 49.5t1 50.5q8 186 105 276q84 84 219 84q63 0 180 -39v-178q-98 43 -162 43q-70 0 -102 -35 q-10 -10 -17.5 -23t-12.5 -25.5t-8 -32t-5 -30.5t-3 -34t-1 -31v-31v-26v-82h184v-160h-184v-780h-193v780h-145zM0 780v160h145v64q-1 25 -1 49.5t1 50.5q8 186 105 276q84 84 219 84q63 0 180 -39v-178q-98 43 -162 43q-70 0 -102 -35q-10 -10 -17.5 -23t-12.5 -25.5 t-8 -32t-5 -30.5t-3 -34t-1 -31v-31v-26v-82h184v-160h-184v-780h-193v780h-145z" />
<glyph unicode="&#xfb04;" horiz-adv-x="1579" d="M1227 0v1446h192v-1446h-192zM555 780v160h145v64q-1 25 -1 49.5t1 50.5q8 186 105 276q84 84 219 84q63 0 180 -39v-178q-98 43 -162 43q-70 0 -102 -35q-10 -10 -17.5 -23t-12.5 -25.5t-8 -32t-5 -30.5t-3 -34t-1 -31v-31v-26v-82h184v-160h-184v-780h-193v780h-145z M0 780v160h145v64q-1 25 -1 49.5t1 50.5q8 186 105 276q84 84 219 84q63 0 180 -39v-178q-98 43 -162 43q-70 0 -102 -35q-10 -10 -17.5 -23t-12.5 -25.5t-8 -32t-5 -30.5t-3 -34t-1 -31v-31v-26v-82h184v-160h-184v-780h-193v780h-145z" />
</font>
</defs>
</svg>
