<?xml version="1.0" standalone="no"?>
<!DOCTYPE svg PUBLIC "-//W3C//DTD SVG 1.1//EN" "http://www.w3.org/Graphics/SVG/1.1/DTD/svg11.dtd" >
<svg xmlns="http://www.w3.org/2000/svg">
<metadata>
This is a custom SVG webfont generated by Font Squirrel.
</metadata>
<defs>
<font id="GSBQBRegular" horiz-adv-x="1110" >
<font-face units-per-em="2048" ascent="1638" descent="-410" />
<missing-glyph horiz-adv-x="598" />
<glyph unicode=" "  horiz-adv-x="598" />
<glyph unicode="&#x09;" horiz-adv-x="598" />
<glyph unicode="&#xa0;" horiz-adv-x="598" />
<glyph unicode="!" horiz-adv-x="598" d="M123 168q2 82 59.5 136t136.5 54q51 0 89 -20q47 -23 75.5 -72t28.5 -102q0 -33 -16 -82q-25 -51 -73 -82t-104 -31q-43 0 -90 23q-106 57 -106 176zM133 1235q0 27 4 63q14 98 82 150q41 35 98 35q49 0 91 -29q90 -57 90 -207q0 -68 -6 -131q-39 -369 -109 -606 q-10 -39 -16.5 -47t-28.5 -10h-35q-29 0 -37 12q-12 23 -63 274q-27 129 -51 303q-19 132 -19 193z" />
<glyph unicode="&#x22;" horiz-adv-x="811" d="M68 1438q6 35 38.5 65.5t92.5 30.5q53 0 82.5 -27.5t35.5 -58.5q2 -20 0 -55l-96 -531h-55l-96 508q-6 52 -2 68zM494 1438q8 37 39.5 66.5t93.5 29.5q51 0 79.5 -26.5t34.5 -53.5q6 -20 2 -61l-96 -531h-55l-96 508q-4 43 -2 68z" />
<glyph unicode="#" horiz-adv-x="1366" d="M86 438v205h276l27 193h-258v204h285l55 406h213l-57 -406h200l56 406h207l-56 -406h242v-204h-268l-29 -193h252v-205h-277l-63 -438h-207l64 438h-203l-62 -438h-209l62 438h-250zM569 643h205l27 193h-203z" />
<glyph unicode="$" horiz-adv-x="1193" d="M59 1038q0 133 73 237.5t198 156.5q57 25 157 38v213h193v-215q102 -12 170 -34.5t174 -77.5l-2 -297q-37 25 -57 35q-172 96 -328 100v-281q8 -4 38 -15t40 -15l36 -15q26 -10 39 -16t35.5 -16.5t37 -18.5t33.5 -19.5t36 -23.5l33 -24q160 -141 159 -334 q0 -127 -65.5 -229.5t-179.5 -157.5q-76 -39 -197 -56v-249h-195l-2 247q-125 16 -205.5 45t-195.5 95l-2 327q49 -33 74 -47q193 -119 364 -135v326q-190 76 -260 118q-201 125 -201 338zM410 1079q0 -23 12 -47q25 -43 98 -80v232q-27 -4 -43 -13q-67 -33 -67 -92z M641 266q96 16 125 66q12 25 12 51q0 31 -14 53q-25 47 -123 101v-271z" />
<glyph unicode="%" horiz-adv-x="1662" d="M37 977q0 195 55 315q76 172 254 172q100 0 170 -61q133 -117 129 -406q-2 -287 -123 -401q-74 -72 -182 -72q-98 0 -168 60q-135 110 -135 393zM254 958q0 -92 12 -157q18 -80 76 -80q39 0 59 41q25 49 25 248q4 156 -16 209q-18 53 -66 53q-31 0 -49 -27 q-41 -54 -41 -287zM367 0l747 1520l141 -78l-747 -1520zM977 436q0 244 83 365t226 121q98 0 166 -60q133 -113 133 -407q-2 -285 -123 -402q-76 -72 -182 -71q-104 0 -178 67q-125 115 -125 387zM1194 432q0 -123 16.5 -188.5t69.5 -65.5q37 0 57 35q29 53 29 254 q0 141 -12 188q-14 74 -70 74q-29 0 -49 -24q-41 -50 -41 -273z" />
<glyph unicode="&#x26;" horiz-adv-x="1492" d="M76 365q0 76 35 149q35 82 95 136.5t163 117.5q-63 88 -94 158.5t-31 158.5q0 154 102 267q115 129 332 129q88 0 162 -23q76 -25 129 -67.5t76.5 -93t32.5 -90.5t9 -81q0 -113 -55 -189.5t-164 -164.5l-47 -35l185 -205q82 96 151 240h313q-29 -76 -51 -131 q-74 -162 -219 -332l270 -309h-440l-80 92l-61 -37q-166 -86 -357 -86q-168 0 -276 74q-80 53 -130 140.5t-50 181.5zM412 377q0 -33 18 -68q43 -74 143 -73q94 0 195 69l-225 258q-2 -2 -27 -20l-8 -6q-8 -6 -13.5 -10.5t-14.5 -11.5t-15 -15t-15.5 -18.5t-15.5 -21.5 t-11 -24.5t-8 -28t-3 -30.5zM551 1116q0 -29 12 -55q4 -12 9.5 -21.5t14.5 -22.5t15 -21.5t22.5 -28t26.5 -31.5l56 37q98 59 98 139q0 39 -28.5 84t-98.5 45t-98.5 -43t-28.5 -82z" />
<glyph unicode="'" horiz-adv-x="425" d="M90 1370q-6 49 0 74q10 43 48 66.5t83 23.5q90 0 115 -78q6 -20 2 -63l-96 -531h-56z" />
<glyph unicode="(" horiz-adv-x="854" d="M123 559q0 109 16 213q43 262 240 539l98 133l107 123h266l-156 -217q-129 -195 -184 -379.5t-55 -415.5q0 -186 49 -375.5t209 -427.5q55 -80 139 -186h-268q-109 119 -158 186q-207 272 -279 561q-24 135 -24 246z" />
<glyph unicode=")" horiz-adv-x="854" d="M-41 -434q197 266 268 411q129 266 129 603q0 137 -18 243q-61 344 -365 727q-10 12 -14 17h268q102 -113 164 -195q211 -279 273 -561q25 -113 24 -240q-2 -213 -61.5 -385t-188.5 -354q-53 -78 -104 -139q-70 -86 -107 -127h-268z" />
<glyph unicode="*" horiz-adv-x="1024" d="M53 877q2 35 70 47l244 77l-252 82q-57 12 -58 43q0 18 17 45l63 105q27 45 45 45q27 0 64 -43l184 -180l-61 272q-6 18 -7 35q0 45 66 41h121q70 6 69 -39q0 -20 -10 -51l-57 -250l201 186q27 25 45 25q25 -2 41 -35l65 -106q20 -29 21 -50q-2 -35 -72 -55l-244 -74 l262 -79q57 -16 58 -41q0 -12 -21 -48l-61 -106q-25 -45 -49.5 -45t-57.5 39l-190 174l59 -262l2 -13q4 -12 4 -20q0 -23 -14 -31t-51 -10h-123q-68 -6 -68 37q0 18 11 49l57 252l-209 -186q-20 -18 -37 -19q-12 0 -24.5 10.5t-18.5 19.5t-6 11l-59 102q-19 36 -19 46z" />
<glyph unicode="+" horiz-adv-x="1366" d="M86 492v208h494v494h211v-494h489v-208h-489v-492h-211v492h-494z" />
<glyph unicode="," horiz-adv-x="512" d="M35 170q0 49 18 82q27 59 78 83.5t88 22.5q76 0 142.5 -63.5t66.5 -192.5q0 -125 -74 -227q-49 -72 -131 -131q-39 -29 -95 -54.5t-68.5 -25.5t-16.5 25l-4 37q-4 27 18 47l11 12q20 25 28 39q39 59 62 178q-29 10 -52 25q-71 49 -71 143z" />
<glyph unicode="-" horiz-adv-x="724" d="M29 350v328h626v-328h-626z" />
<glyph unicode="." horiz-adv-x="512" d="M41 164q0 47 20 88q25 49 74 77.5t103 28.5q80 0 135 -57t55 -137q0 -82 -56.5 -137.5t-138 -55.5t-137 55.5t-55.5 137.5z" />
<glyph unicode="/" horiz-adv-x="768" d="M-8 0l475 1446h268l-475 -1446h-268z" />
<glyph unicode="0" d="M43 721q0 94 8 170q27 326 193 481q123 111 286 111q225 0 359 -183q129 -184 135 -569q2 -207 -35 -366.5t-151 -274.5q-127 -127 -306 -127q-166 0 -286 111q-203 186 -203 647zM381 713q0 -141 12 -236q12 -111 43 -160q35 -57 96 -57q74 0 113 84q41 94 41 379 q-4 131 -8 201q0 104 -37 180q-39 82 -111 82q-90 0 -122 -133q-27 -111 -27 -340z" />
<glyph unicode="1" d="M199 827v275q141 55 231 178q45 68 62 100q14 31 26 66h248v-1446h-322l-2 944q-87 -58 -243 -117z" />
<glyph unicode="2" d="M-4 0l104 152l150 204l98 146q86 137 105 170q106 186 106 303q0 41 -12 74q-45 143 -207 143q-100 0 -234 -74q-10 -4 -63 -43v297q20 12 61 33q162 78 345 78q172 0 284 -88q158 -119 158 -336q0 -86 -29 -185q-61 -201 -330 -581h441v-293h-977z" />
<glyph unicode="3" d="M68 39l2 283q55 -31 59 -33q121 -55 233 -56q57 0 99 17q57 23 93 70t36 106q0 53 -31 102q-59 96 -227 97l2 264q57 0 86 8q133 41 133 154q0 35 -16 71q-51 96 -197 97q-74 0 -244 -52v258q193 57 326 58q270 0 397 -168q74 -96 74 -225q0 -170 -115 -269 q-37 -33 -110 -61q109 -31 172 -101q90 -100 90 -249q0 -109 -47 -199q-53 -96 -169 -172t-298 -76q-135 0 -275 47q-24 9 -73 29z" />
<glyph unicode="4" d="M4 340v235l655 885h228v-874h98v-246h-98v-340h-324v340h-559zM281 586h286l4 344q0 31 9 71q-27 -47 -39 -63z" />
<glyph unicode="5" d="M90 39v278q168 -80 297 -79q119 0 184 65q49 51 50 125q0 55 -29 96q-68 98 -232 99q-55 0 -198 -23v846h737v-297h-442l2 -277q188 8 303 -63q201 -123 201 -387q0 -215 -153 -337t-370 -122q-143 0 -293 51q-20 9 -57 25z" />
<glyph unicode="6" d="M61 485q0 94 35 204t63.5 165t98.5 182l238 410h366l-307 -528q102 4 166 -15q145 -39 222 -166t77 -282.5t-74 -274.5q-141 -217 -397 -217q-109 0 -201 41t-155.5 110.5t-88 146.5t-34 129t-9.5 95zM395 453q0 -111 46 -164t110 -53q47 0 88 30q72 53 72 187 q0 109 -46.5 162t-111.5 53q-78 -2 -123 -70q-35 -61 -35 -145z" />
<glyph unicode="7" d="M31 1149v297h960l-483 -1487l-315 115l370 1075h-532z" />
<glyph unicode="8" d="M51 410q0 174 117 282q16 16 38.5 32.5t43.5 29.5l18 12q-57 39 -80 63q-96 104 -96 256q0 106 49 191q43 80 143.5 143.5t258.5 63.5q186 0 313 -105.5t127 -290.5q0 -141 -86 -245q-31 -37 -90 -80q39 -18 65 -39q61 -47 98.5 -117.5t44.5 -116t7 -83.5 q0 -125 -66 -230q-66 -106 -181.5 -159.5t-248.5 -53.5q-182 0 -303 92q-172 130 -172 355zM393 416q0 -104 43 -162q10 -16 36 -33.5t60 -17.5q37 0 64 20q82 51 82 197q-2 102 -44 155.5t-99 51.5q-25 0 -50 -11q-92 -42 -92 -200zM420 1059q0 -86 33 -144q39 -49 82 -49 q55 0 83 45q37 55 35 162q0 68 -26 115q-31 57 -88 57q-51 0 -85 -49t-34 -137z" />
<glyph unicode="9" d="M47 993q0 154 74 273q131 217 397 217q221 0 356 -154q131 -147 132 -366q0 -96 -34 -203t-66 -169.5t-97 -180.5l-238 -410h-366l307 530q-102 -4 -166 13q-145 41 -222 166.5t-77 283.5zM356 993q0 -109 46.5 -161t111.5 -52q76 0 121 68q37 57 37 145q-2 111 -48 164 t-110 53q-47 0 -86 -28q-72 -54 -72 -189z" />
<glyph unicode=":" horiz-adv-x="598" d="M125 164q0 92 63 143q61 51 134 51q80 0 134 -57t54 -139t-55.5 -136.5t-137 -54.5t-137 55.5t-55.5 137.5zM125 770q0 43 14 76q20 51 72.5 85t110.5 34q80 0 134 -57.5t54 -137.5q0 -82 -55.5 -137t-137 -55t-137 55t-55.5 137z" />
<glyph unicode=";" horiz-adv-x="598" d="M98 770q0 37 15 76q23 53 75 86t109 33q80 0 134 -57.5t54 -137.5q0 -82 -56 -137t-138 -55t-137.5 55t-55.5 137zM117 172q0 35 14 78q23 49 70 79.5t100 28.5q53 0 100 -28q106 -70 107 -226q0 -80 -25 -141q-49 -131 -180 -219q-41 -29 -95 -54.5t-66.5 -25.5 t-16.5 25l-4 37q-6 29 16 47l10 12q20 25 31 39q43 68 60 178q-43 18 -54 27q-67 49 -67 143z" />
<glyph unicode="&#x3c;" horiz-adv-x="1366" d="M0 614v213l1366 625v-231l-1083 -500l1083 -498v-229z" />
<glyph unicode="=" horiz-adv-x="1366" d="M0 299v211h1366v-211h-1366zM0 684v211h1366v-211h-1366z" />
<glyph unicode="&#x3e;" horiz-adv-x="1366" d="M0 -6v229l1081 498l-1081 500v231l1366 -625v-213z" />
<glyph unicode="?" horiz-adv-x="937" d="M199 1167l88 295q96 20 178 21q127 0 221 -60q154 -109 154 -290q0 -76 -23.5 -132.5t-77.5 -136.5l-43 -55q-82 -111 -105.5 -161t-33.5 -134l-2 -18q-2 -29 -10 -35t-37 -6h-66q-16 2 -18 4q-20 10 -45 89t-25 154q0 113 74 248l18 35q49 84 50 135q0 37 -26 70t-85 33 q-51 -1 -186 -56zM287 162q0 84 56 139t138 55q39 0 82 -18q49 -20 80 -70.5t31 -105.5q0 -37 -17 -74q-23 -53 -71.5 -86t-106.5 -33q-51 0 -92 23q-47 25 -73.5 71t-26.5 99z" />
<glyph unicode="@" horiz-adv-x="1835" d="M141 483q0 340 203 607q43 57 98.5 109t147.5 116.5t221 103.5t274 39q246 0 406 -129q203 -168 203 -465q0 -162 -59.5 -328.5t-168.5 -275.5q-121 -119 -254 -119q-121 0 -161 92q-8 18 -17 64q-47 -59 -88 -90q-92 -66 -186 -66q-59 0 -111 23q-166 78 -166 317 q0 139 57.5 277.5t159.5 222.5q109 86 222 84q115 0 182 -78q10 -12 20.5 -27.5t16.5 -27.5t8 -14l25 104h161l-67 -317q-57 -276 -58 -345q0 -74 54 -73q78 4 168 151q117 188 116 422q0 125 -41 211q-37 84 -100.5 139.5t-136 77t-116.5 27.5t-87 6q-279 0 -498 -199 q-135 -123 -211.5 -290.5t-76.5 -348.5q0 -133 47 -250q72 -174 236.5 -262t363.5 -88q256 0 491 152q111 70 185 147l82 -104q-336 -332 -752 -332q-186 0 -356 70q-211 86 -322 256q-115 165 -115 411zM670 492q0 -121 69 -168q35 -25 80 -25q37 0 85 26.5t89 82.5 q53 74 75 162.5t22 144.5q0 43 -11 80q-37 115 -145 114q-49 0 -103 -35q-74 -53 -117.5 -166.5t-43.5 -215.5z" />
<glyph unicode="A" horiz-adv-x="1622" d="M-4 0l594 1446h409l586 -1446h-387l-104 250h-607l-100 -250h-391zM600 526h381l-193 492z" />
<glyph unicode="B" horiz-adv-x="1409" d="M127 0v1446h588q111 -4 174 -21q127 -33 203.5 -128t76.5 -226q0 -164 -106 -254q-20 -16 -72 -39q82 -16 131 -49q76 -49 117 -136t41 -183q-2 -127 -69.5 -224.5t-186.5 -144.5q-88 -33 -268 -41h-629zM487 276h201q141 2 189 62q33 45 32 100q0 53 -26 94 q-47 70 -189 70h-207v-326zM487 883h140q33 0 49 2q76 10 110 71q18 37 19 76q0 47 -27 84q-20 27 -58 40t-59.5 14t-72.5 1h-101v-288z" />
<glyph unicode="C" horiz-adv-x="1492" d="M53 709q4 295 189 501q233 266 630 267q264 0 527 -144v-332q-281 164 -481 164q-154 0 -293 -86q-188 -127 -189 -358q0 -98 37 -182q37 -80 98.5 -134.5t131 -76t113.5 -27.5t85 -6q135 0 250 44t266 132v-338q-74 -41 -112 -59q-215 -104 -447 -105q-178 0 -344 66.5 t-281 193.5q-180 197 -180 480z" />
<glyph unicode="D" horiz-adv-x="1622" d="M127 0v1446l559 6q47 0 141 -4q403 -23 586 -326q113 -190 113 -417q0 -233 -123 -412q-80 -121 -217 -195q-80 -43 -182.5 -64.5t-175 -25.5t-289.5 -6q-59 -2 -90 -2h-322zM489 285h109q86 0 131 3t111.5 15t117 44t95.5 83q96 111 96 283q0 266 -182 389 q-55 37 -124 54q-65 16 -125 17q-4 0 -7 -1q-63 -1 -136 -1l-86 3v-889z" />
<glyph unicode="E" horiz-adv-x="1236" d="M127 0v1446h995v-277h-630v-292h598v-279h-598v-322h645v-276h-1010z" />
<glyph unicode="F" horiz-adv-x="1150" d="M127 0v1446h948v-277h-588v-288h580v-279h-580v-602h-360z" />
<glyph unicode="G" horiz-adv-x="1622" d="M53 717q0 104 26.5 199.5t63.5 160t88.5 121.5t89 88t78.5 57q207 133 498 134q242 0 432 -80q59 -25 111 -56v-327q-74 41 -113 59q-203 86 -391 86q-217 0 -360.5 -120.5t-143.5 -336.5q0 -197 131 -315q68 -61 148 -84q68 -23 159 -22q104 0 228 43v168h-185v278 l533 -12v-623q-90 -49 -123 -63q-229 -102 -471 -103q-164 0 -311 54q-225 84 -356.5 269t-131.5 425z" />
<glyph unicode="H" horiz-adv-x="1705" d="M127 0v1446h360v-582h689v582h362v-1446h-362v586h-689v-586h-360z" />
<glyph unicode="I" horiz-adv-x="641" d="M129 0v1446h340v-1446h-340z" />
<glyph unicode="J" horiz-adv-x="681" d="M-98 -100l4 -2h13q7 0 16.5 -1t19.5 -1h21q11 0 22.5 1t19.5 3q74 16 109 77q27 47 27 160v1309h362v-1325q0 -39 -4 -121q-16 -199 -133 -301q-129 -115 -354 -115q-55 0 -123 10v306z" />
<glyph unicode="K" horiz-adv-x="1449" d="M127 0v1446h360v-641l416 641h420l-471 -696l635 -750h-469l-529 655v-655h-362z" />
<glyph unicode="L" horiz-adv-x="1236" d="M127 0v1446h362v-1165h701v-281h-1063z" />
<glyph unicode="M" horiz-adv-x="1748" d="M127 0v1446h309l418 -561l424 561h301v-1446h-354v483q0 170 6 256q2 51 14 146l-43 -68l-61 -86l-252 -325h-70l-278 366q-45 55 -76 113q12 -152 12 -156q2 -41 2 -122t2 -122v-485h-354z" />
<glyph unicode="N" horiz-adv-x="1792" d="M131 0v1446h365l651 -774q27 -33 76 -99l51 -71q-12 96 -14 149q-2 27 -3 78v717h365v-1446h-365l-632 752q-84 106 -90 114q-31 39 -54 78q8 -80 11 -115q4 -70 4 -102v-727h-365z" />
<glyph unicode="O" horiz-adv-x="1792" d="M53 727q2 229 97.5 378.5t211.5 231.5q201 139 510 140q350 0 570 -185q250 -209 254 -559q0 -301 -185 -510q-231 -254 -647 -254q-102 0 -202 19q-281 53 -455 274q-154 195 -154 465zM432 729q0 -119 49 -217q37 -72 94.5 -121t120 -68.5t102.5 -25.5t76 -6 q188 0 314.5 119.5t128.5 306.5q0 111 -47 209q-35 76 -92.5 127t-121 71.5t-104.5 26.5t-82 6q-178 0 -295 -96q-143 -117 -143 -332z" />
<glyph unicode="P" horiz-adv-x="1193" d="M127 0v1446h508h27q107 0 185 -14q87 -16 163 -76q156 -123 155 -348q0 -229 -166 -344q-55 -39 -133 -58.5t-126 -22.5t-146 -5l-107 -3v-575h-360zM487 860h97q137 0 182 68q25 37 25 84q0 57 -31 94q-27 39 -69 51q-36 11 -107 11q-12 0 -25 -1l-72 -2v-305z" />
<glyph unicode="Q" horiz-adv-x="1792" d="M53 733q0 317 213 524q225 221 619 222q182 0 327 -56q221 -82 352.5 -269t131.5 -421q0 -262 -144 -457q-45 -61 -112 -116q-133 -113 -312 -154q82 -47 99 -53q141 -66 426 -74l-336 -244q-156 35 -297 103q-193 92 -410 270q-166 51 -256 115q-45 33 -90 80t-96 121.5 t-83 181t-32 227.5zM426 729q0 -86 33 -172q33 -84 90 -141.5t121.5 -81t108.5 -31.5t85 -8q197 0 329 124q126 118 126 303v17q0 80 -37 166q-53 121 -161.5 186.5t-246.5 65.5q-109 0 -198 -37q-119 -49 -184.5 -154.5t-65.5 -236.5z" />
<glyph unicode="R" horiz-adv-x="1366" d="M127 0v1446h508q94 -2 151.5 -7t133 -31t131.5 -75q125 -106 125 -307q0 -199 -146 -297q-39 -25 -98 -47q88 -45 131 -94t111 -193l20 -53q92 -203 180 -342h-426q-57 135 -129 285q-80 162 -119 207q-31 39 -65 59q-48 27 -130 27h-11v-578h-367zM494 858h77h18 q127 0 175 55q33 37 33 97q0 84 -58 127q-43 31 -145 30h-100v-309z" />
<glyph unicode="S" horiz-adv-x="1236" d="M53 1042q0 190 146 316q143 121 372 121q102 0 204 -26t138.5 -43t104.5 -52v-297q-225 137 -400 137q-109 0 -157 -41q-35 -25 -35 -67q0 -23 12 -46q29 -55 152 -108l112 -47q131 -51 197 -92q225 -143 221 -373q0 -231 -184 -354q-150 -100 -371 -101q-225 0 -471 137 q-10 6 -14 9l2 327q145 -92 168 -104q150 -78 289 -78q88 0 141 31q70 37 70 104q-2 47 -37 82q-43 51 -168 98l-58 23q-172 68 -243 113q-191 122 -191 331z" />
<glyph unicode="T" horiz-adv-x="1409" d="M-4 1167v279h1374v-279h-506v-1167h-364v1167h-504z" />
<glyph unicode="U" horiz-adv-x="1705" d="M119 655v791h362v-754q6 -137 21 -188q29 -106 120 -163q88 -54 199 -54h8q119 0 203 47q37 20 63.5 43.5t42 61.5t24.5 56.5t12.5 74t4.5 65.5t1 76v735h364v-799q0 -80 -2 -119q-10 -184 -117 -315q-102 -125 -259.5 -184.5t-334.5 -59.5q-240 0 -428 111 q-92 55 -153 121q-49 53 -76 116q-29 66 -41 135.5t-14 202.5z" />
<glyph unicode="V" horiz-adv-x="1536" d="M2 1446h391l279 -625q61 -143 80 -223q10 39 34 113l56 143l266 592h391l-657 -1446h-185z" />
<glyph unicode="W" horiz-adv-x="2304" d="M2 1446h393l187 -459q57 -135 86 -219q14 -37 41 -131q31 111 47 154q18 53 59 155l205 500h227l219 -526q70 -172 99 -283q20 82 45 147q25 74 86 217l182 445h391l-608 -1446h-211l-279 774q-12 29 -16 43q-6 16 -20 70q-20 -76 -25 -88q-16 -45 -25 -66l-266 -733 h-209z" />
<glyph unicode="X" horiz-adv-x="1792" d="M-4 0l653 756l-602 690h479l291 -361q25 -33 60 -88q39 68 96 138l254 311h481l-604 -690l647 -756h-477l-334 385q-33 41 -66 94q-10 -16 -34 -49q-6 -10 -19.5 -25.5t-17.5 -21.5l-326 -383h-481z" />
<glyph unicode="Y" horiz-adv-x="1449" d="M2 1446h434l199 -320q47 -78 74 -143q25 66 114 221l144 242h442l-522 -770v-676h-361v676z" />
<glyph unicode="Z" horiz-adv-x="1409" d="M-20 0l706 1067q55 76 96 119q-88 -16 -166 -17h-563v277h1313l-674 -1030q-53 -80 -125 -160q74 20 166 23h633v-279h-1386z" />
<glyph unicode="[" horiz-adv-x="894" d="M164 -434v2001h678v-240h-361v-1520h361v-241h-678z" />
<glyph unicode="\" horiz-adv-x="724" d="M29 1446h211l467 -1483h-209z" />
<glyph unicode="]" horiz-adv-x="894" d="M12 -193h361v1520h-361v240h676v-2001h-676v241z" />
<glyph unicode="^" horiz-adv-x="1492" d="M262 662l400 784h186l383 -784h-242l-239 503l-248 -503h-240z" />
<glyph unicode="_" horiz-adv-x="1024" d="M-20 -256h1064v-211h-1064v211z" />
<glyph unicode="`" horiz-adv-x="598" d="M-197 1446h330l135 -361h-215z" />
<glyph unicode="a" d="M31 213q0 76 49 145q37 49 102.5 88t114.5 57.5t129 41.5l166 51q0 109 -62 141q-37 18 -86 19q-182 0 -350 -170l2 258q55 39 96 61.5t130.5 47t191.5 24.5q260 0 354 -156q25 -41 39 -94q9 -37 9 -105q0 -23 -1 -49v-163q2 -33 3 -97q-2 -29 0 -45t10 -27.5t26 -11.5 q27 2 111 33v-192l-94 -41q-139 -55 -205 -56q-76 0 -125 50q-14 14 -35 47l-37 -19q-63 -33 -89.5 -45t-79 -27.5t-99.5 -15.5q-59 0 -115 23q-68 31 -111.5 93t-43.5 134zM362 252q6 -72 74 -72q41 0 125 49l29 17v170l-33 -8q-39 -10 -72 -25q-123 -51 -123 -131z" />
<glyph unicode="b" horiz-adv-x="1280" d="M115 0v1446h325v-531q131 55 238 56q203 0 335 -147.5t132 -350.5q0 -98 -35 -190q-51 -137 -166 -221.5t-260 -84.5q-115 0 -244 68v-45h-325zM440 272q96 -53 156 -53q43 0 90 21q123 61 123 231q0 59 -14 107q-53 154 -197 153q-70 0 -158 -53v-406z" />
<glyph unicode="c" horiz-adv-x="980" d="M53 467q6 180 107 307q158 203 440 203q129 0 311 -66v-256q-10 4 -26.5 13.5t-26.5 13.5q-104 45 -190 45q-117 0 -196 -70.5t-79 -187.5q0 -115 77 -183.5t192 -68.5q104 0 264 74v-256q-174 -72 -320 -72q-109 0 -207 33q-156 51 -251 179t-95 292z" />
<glyph unicode="d" horiz-adv-x="1236" d="M182 824.5q131 146.5 336 146.5q100 0 238 -56v531h323v-1446h-323v45q-150 -68 -252 -68q-172 0 -305 127q-147 147 -148 365q0 209 131 355.5zM385 473q0 -61 16 -106q8 -27 26.5 -55.5t66 -60.5t106.5 -32q76 0 156 53v406q-84 53 -160 53q-102 0 -156.5 -76 t-54.5 -182z" />
<glyph unicode="e" horiz-adv-x="1150" d="M53 481q2 117 41 203q20 47 54 92t89.5 93.5t141.5 78t192 29.5q98 0 183 -31q219 -80 286 -332q18 -74 19 -180l-660 -10q12 -94 62 -145q74 -80 213 -80q61 0 102 10q78 16 252 108v-235q-225 -119 -426 -119q-111 0 -207 33q-49 16 -99 48t-109.5 87t-96.5 146 t-37 204zM408 616h321q-10 43 -22 68q-41 92 -134 92q-29 0 -61 -14q-29 -14 -50.5 -40t-31.5 -47.5t-22 -58.5z" />
<glyph unicode="f" horiz-adv-x="724" d="M14 729v219h144v45q0 88 18 162q10 43 33.5 89t68 102.5t122 92.5t178.5 36q80 0 198 -35v-269q-100 35 -145 35q-90 0 -125 -80q-20 -43 -21 -137v-41h179v-219h-179v-729h-327v729h-144z" />
<glyph unicode="g" horiz-adv-x="1024" d="M-18 -201q0 55 26 105q53 100 209 145q-6 4 -27 19q-66 50 -65 97q0 29 20 60q29 41 127 72q-96 43 -145 88q-98 98 -98 229q2 88 45 168q55 96 157.5 145.5t219.5 49.5q51 0 133 -12l24 -4q57 -8 123 -9h264v-190h-123q47 -94 48 -164q0 -72 -39 -141 q-12 -23 -28.5 -43.5t-36 -36t-37 -27.5t-39 -21.5t-37 -15.5t-37 -11t-30.5 -7t-28 -4l-18 -4l-27 -4l-59 -13q-41 -8 -60 -32q-10 -16 -10 -29q0 -16 10 -31q18 -25 111 -41l37 -6q10 -2 29.5 -5t29.5 -5q301 -63 301 -295q0 -100 -57 -176q-113 -154 -412 -154 q-197 0 -323 62q-96 45 -137 111.5t-41 129.5zM270 -188q2 -45 54 -70q49 -25 157 -25q90 0 143.5 28t51.5 77q-4 31 -25 49q-39 35 -166 35q-119 0 -168 -27q-47 -22 -47 -67zM330 623q0 -29 4 -43q4 -23 15 -47.5t44 -49t80 -24.5q74 0 112 50q36 48 36 118q0 90 -48 128 q-45 36 -96 36q-43 0 -78 -23q-69 -45 -69 -145z" />
<glyph unicode="h" horiz-adv-x="1236" d="M115 0v1446h325v-524q0 -47 -8 -99q37 39 55 58q100 90 256 90q74 0 127 -23q131 -53 183 -217q23 -68 26 -213v-518h-327v455q-4 143 -23 184q-35 70 -113 70q-18 0 -36.5 -4.5t-35 -11.5t-30.5 -15t-27.5 -18.5t-21.5 -17.5t-16 -15l-9 -6v-621h-325z" />
<glyph unicode="i" horiz-adv-x="598" d="M113 0v940h327v-940h-327zM115 1303q0 29 10 55q6 20 20.5 41.5t50 44t80.5 22.5q39 0 66 -12q45 -20 72.5 -62t27.5 -92q0 -31 -12 -63q-25 -59 -73 -81q-44 -20 -78 -20q-3 0 -7 1q-66 2 -111.5 50t-45.5 116z" />
<glyph unicode="j" horiz-adv-x="598" d="M-76 -223q92 25 133 71q27 31 41.5 77t15.5 74t1 85v856h327v-872q0 -35 -4 -109q-6 -102 -28.5 -173t-79.5 -136q-90 -102 -271 -182zM115 1305q0 14 8 55q45 111 158 110q68 0 115.5 -49t47.5 -118q0 -68 -49 -116q-47 -46 -113 -46h-6q-68 0 -114.5 47t-46.5 117z" />
<glyph unicode="k" horiz-adv-x="1150" d="M115 0v1446h327v-887l285 381h377l-336 -442l414 -498h-396l-344 426v-426h-327z" />
<glyph unicode="l" horiz-adv-x="598" d="M113 0v1446h329v-1446h-329z" />
<glyph unicode="m" horiz-adv-x="1878" d="M115 0v940h327q0 -68 -10 -123q18 25 41 47q119 113 272 113q133 0 222 -72q14 -12 75 -86l9 8q147 150 323 150q135 0 223 -84q29 -25 64 -78q27 -47 40 -108.5t15 -98.5t4 -116v-492h-327v463q0 10 -1 34.5t-1 33t-1 25.5t-2.5 24.5t-3.5 19.5t-5 21.5t-7 17.5 q-34 74 -112 74h-5q-82 0 -172 -90v-623h-327v449v29q0 22 -1 29t-1 23.5t-1 22.5t-2 19.5t-2 18.5l-4 15q-2 10 -5 16.5t-7 13.5t-8 15q-39 61 -115 62q-51 -2 -121 -45l-47 -47v-621h-327z" />
<glyph unicode="n" horiz-adv-x="1236" d="M115 0v940h329q-6 -86 -12 -119q156 156 313 156q49 0 96.5 -15.5t98.5 -50t87 -104.5t48 -166q4 -41 4 -127v-514h-325v457q0 141 -25 186q-33 68 -113 68q-18 0 -39.5 -6.5t-39 -15.5t-36 -20.5t-28.5 -20.5t-20 -17l-11 -8v-623h-327z" />
<glyph unicode="o" horiz-adv-x="1236" d="M53 471q8 207 135 346q150 160 418 160q102 0 195 -31q152 -51 243 -178q96 -133 97 -297q0 -107 -41 -195q-63 -154 -201.5 -233.5t-308.5 -79.5q-227 0 -373 135q-76 70 -120 169.5t-44 203.5zM391 465q0 -106 54.5 -183t156.5 -77q45 0 82 18q59 31 90 105 q29 69 29 138q0 52 -12 99q-47 170 -193 170q-63 0 -100 -26q-43 -27 -75 -90.5t-32 -153.5z" />
<glyph unicode="p" horiz-adv-x="1280" d="M115 -530v1470h325l2 -35q141 55 238 56q170 0 297 -109q164 -141 164 -393q0 -162 -82 -285q-37 -53 -92 -102q-117 -100 -275 -101q-115 0 -252 62v-563h-325zM442 270q92 -57 158 -57q29 0 90 20q117 63 117 238q0 147 -90 215q-51 37 -115 37q-70 0 -160 -59v-394z " />
<glyph unicode="q" horiz-adv-x="1193" d="M53 461q0 195 107 330q53 70 132 110.5t129 50t95 9.5q102 0 238 -56v35h325v-1470h-325v563q-139 -61 -254 -62q-182 0 -312 140q-135 143 -135 350zM385 471q0 -47 12 -84q25 -96 81.5 -135t117.5 -39q63 0 158 57l-2 400q-98 53 -160 53q-45 0 -86 -21 q-59 -29 -90 -94t-31 -137z" />
<glyph unicode="r" horiz-adv-x="894" d="M115 0v940h327v-49q0 -80 -12 -158q94 154 152 199q55 43 120 43q33 0 74 -13.5t65.5 -24.5t30.5 -17q6 -2 48 -29l-136 -287q-88 63 -143 64q-45 0 -74 -29q-39 -39 -86 -137q-8 -20 -15 -39t-11 -39.5t-7.5 -32.5t-4.5 -37.5t-1 -34t-1 -41t-1 -40.5v-238h-325z" />
<glyph unicode="s" horiz-adv-x="854" d="M37 66l2 256l14 -11l31.5 -18t44.5 -24.5t54.5 -27t58 -23.5t63.5 -17t62 -6q41 0 61.5 20.5t20.5 44.5q0 53 -107 94l-63 29q-20 8 -62 29q-180 94 -180 260q0 61 29 125q35 72 117.5 126t215.5 54q127 0 250 -47q16 -6 78 -37v-236q-137 92 -260 93q-29 0 -57.5 -13.5 t-28.5 -40.5q0 -8 8 -24q12 -20 94 -56l64 -26q2 0 22.5 -10.5t48 -24.5t46.5 -27q123 -86 122 -237q0 -98 -51 -174t-145 -115t-191 -39q-145 0 -286 66q-8 4 -76 37z" />
<glyph unicode="t" horiz-adv-x="854" d="M23 721v113l434 446h65v-340h332v-219h-332v-277q0 -109 15 -149q31 -78 127 -78q70 0 196 62l-2 -232q-35 -18 -65 -29q-127 -45 -250 -45q-150 0 -227.5 66.5t-104.5 153.5q-20 61 -21 155q0 51 5 150v223h-172z" />
<glyph unicode="u" horiz-adv-x="1236" d="M115 424v516h325v-510q2 -8 2 -20.5t2 -20.5q12 -160 134 -160q72 0 176 93v618h325v-940h-325v49q2 37 12 72q-53 -51 -64 -62q-121 -98 -249 -98q-31 0 -64 6t-77 23.5t-86 58.5t-68 101q-43 92 -43 274z" />
<glyph unicode="v" horiz-adv-x="1067" d="M0 940h352l168 -457l168 457h348l-409 -940h-211z" />
<glyph unicode="w" horiz-adv-x="1622" d="M0 940h348l162 -420l172 420h227l172 -420l160 420h346l-405 -940h-191l-198 455l-191 -455h-194z" />
<glyph unicode="x" horiz-adv-x="1193" d="M0 0l375 498l-342 442h397l84 -109q39 -53 61 -108q16 37 19 41q12 20 61 88l70 88h395l-348 -444l375 -496h-397l-113 145q-43 57 -62 107q-27 -55 -75 -121l-99 -131h-401z" />
<glyph unicode="y" d="M6 940h359l151 -336q20 -55 27 -69q20 63 49 131l121 274h346l-658 -1470h-354l328 706z" />
<glyph unicode="z" horiz-adv-x="1067" d="M8 0l402 633q25 41 51 67h-385v240h911l-412 -649q-14 -23 -40 -53h479v-238h-1006z" />
<glyph unicode="{" horiz-adv-x="724" d="M106 504v14q29 6 56 21q45 27 67.5 83t25.5 96t3 109v21v254q0 76 2 112q8 223 166 287q61 25 268 31v-14q-27 -6 -59 -17q-115 -39 -143 -151q-10 -41 -11 -176v-197q-2 -236 -18 -297q-12 -49 -41 -86q-41 -55 -135 -84q80 -25 129 -74q33 -39 48 -97t16 -99t3 -174 v-224v-33v-37q0 -7 1 -33t4.5 -38t7.5 -31.5t11 -36t17 -30.5q6 -10 13.5 -20.5t17.5 -17.5t16.5 -13.5t18.5 -12.5t17 -9t21.5 -8t19.5 -7t23.5 -8.5t22.5 -6.5v-12q-111 0 -166 6q-115 16 -176 68q-16 12 -28.5 27.5t-21.5 35t-16 32.5t-11.5 38.5t-7.5 37t-4 42t-2 38 t-1 41.5v35v351q0 131 -55 200q-23 29 -53 47q-21 11 -46 17z" />
<glyph unicode="|" horiz-adv-x="468" d="M129 -512v2044h211v-2044h-211z" />
<glyph unicode="}" horiz-adv-x="724" d="M31 -500q127 31 172 99q29 45 35 89t6 156v199q2 236 18 297q12 49 41 86q39 53 137 82q-86 25 -129 76q-35 39 -50 96t-16 98t-3 174v224q2 98 -5.5 146t-31.5 89q-20 33 -52 54.5t-50.5 28.5t-71.5 24v14q16 0 50 -2t50 -2q168 -8 242 -72q18 -14 32.5 -33.5t23.5 -35 t15.5 -42t10.5 -40t6 -46t3 -42t1 -47.5v-42v-262v-39v-43q0 -12 1 -38.5t4 -42t8 -37t13.5 -40t20.5 -34.5q20 -35 63 -60q14 -8 43 -18v-12q-39 -12 -55 -23q-45 -27 -67.5 -83t-25.5 -96t-3 -110v-20v-254q0 -139 -8 -188q-27 -156 -158 -209q-12 -6 -25.5 -10.5 t-24.5 -6.5t-28.5 -4t-28 -4t-35 -3t-36.5 -1t-44 -1t-48 -1v12z" />
<glyph unicode="~" horiz-adv-x="1492" d="M231 604q121 182 299 182q78 0 218 -65l71 -33l12 -4q10 -6 24.5 -12t33 -12.5t40 -10.5t38.5 -4q96 0 200 127l95 -182q-154 -166 -301 -166q-76 0 -211 65l-60 29q-102 47 -158 47q-37 0 -69 -14q-20 -8 -42 -26.5t-38 -36t-53 -62.5z" />
<glyph unicode="&#xa1;" horiz-adv-x="598" d="M41 1288q0 45 18 82q25 51 73 82t104 31q47 0 90 -23q49 -27 77.5 -74t26.5 -100q0 -82 -57.5 -137t-139.5 -55q-45 0 -86 20q-47 23 -76.5 72t-29.5 102zM55 205q0 43 8 133q41 375 109 604q10 37 16.5 46t28.5 11h35q31 0 37 -12q18 -29 63 -274q29 -137 51 -303 q18 -129 19 -191q0 -31 -4 -63q-14 -98 -82 -150q-45 -37 -98 -37q-43 0 -91 29q-92 62 -92 207z" />
<glyph unicode="&#xa3;" horiz-adv-x="1366" d="M88 608v226l143 2q-39 102 -38 190q6 188 120 307q150 150 389 150q301 0 428 -221q37 -63 72 -191l-276 -98q-33 248 -209 246q-33 0 -58 -7q-131 -35 -131 -174q0 -70 66 -204h332v-226h-248q20 -82 20 -129q0 -20 -3 -51t-7 -53.5t-4 -24.5l123 -49l29 -10 q37 -12 53 -12q25 0 49.5 18t35.5 30.5t32 43.5l26 39l244 -138l-21 -32q-43 -76 -112 -154q-104 -111 -238 -111q-41 0 -65 7q-43 8 -228 92l-37 16q-66 29 -100 29q-31 0 -49 -13q-14 -6 -27.5 -18t-28 -29.5t-21.5 -28t-22.5 -34t-17.5 -27.5l-217 174q94 162 199 217 q33 14 80 29q-2 121 -41 219h-242z" />
<glyph unicode="&#xa4;" horiz-adv-x="1366" d="M51 221l162 160q-96 143 -96 315q0 168 94 312l-158 159l158 158l158 -160q37 25 55 35q115 63 260 64q143 0 254 -62q8 -4 59 -35l158 158l160 -158l-160 -159q2 -4 16.5 -27t24.5 -41q53 -111 53 -246q0 -168 -98 -315l164 -162l-160 -158l-162 164q-41 -29 -63 -39 q-115 -57 -248 -57q-145 0 -252 61q-14 6 -61 35l-160 -160zM324 694q0 -84 30 -149q43 -98 134.5 -155.5t197.5 -57.5q74 0 152 33q96 45 149 134t55 197q0 66 -22 129q-39 104 -132 169t-206 65q-80 -4 -141 -29q-102 -43 -159.5 -133t-57.5 -203z" />
<glyph unicode="&#xa6;" horiz-adv-x="468" d="M129 389h211v-780h-211v780zM129 631v780h211v-780h-211z" />
<glyph unicode="&#xa7;" horiz-adv-x="1193" d="M41 522q0 106 41 190.5t125 196.5q-80 119 -80 221q0 86 43 156q115 197 416 197q139 0 245 -51q82 -41 118 -102.5t36 -112.5q0 -41 -14 -70q-18 -43 -59.5 -69.5t-88.5 -26.5q-74 0 -116 63q-2 4 -19 39l-4 18q-12 25 -18 35q-31 43 -107 43q-57 0 -85 -31.5t-28 -64.5 q0 -27 15 -53q27 -47 149 -127l74 -47q158 -100 231 -162q170 -139 170 -344q0 -33 -4 -65.5t-13 -62.5t-17.5 -55.5t-22.5 -51t-24.5 -43t-26.5 -40t-23.5 -33t-21.5 -27.5t-17 -19q82 -106 82 -226q0 -90 -53 -168q-125 -180 -403 -180q-176 0 -291 78q-113 76 -113 186 q0 39 17 74q20 41 61 67.5t86 26.5q66 0 105 -51q4 -6 28 -53l4 -13q8 -29 19 -38q31 -45 100 -45q47 0 85 26.5t38 71.5q0 43 -45 88q-33 29 -131 96l-115 76q-172 113 -227 174q-121 127 -121 309zM332 590q0 -76 51 -132.5t178 -144.5l51 -34l123 -78q59 78 60 141 q0 80 -58.5 142.5t-199.5 152.5l-84 53l-64 41q-57 -63 -57 -141z" />
<glyph unicode="&#xa8;" horiz-adv-x="598" d="M-311 1260q0 66 47 111.5t112 45.5q68 0 116 -47t48 -115q-2 -66 -48 -111.5t-111 -47.5q-70 -2 -117 46t-47 118zM201 1257q0 68 47 115t114 45q68 0 114 -47t46 -113q-2 -68 -47 -113.5t-113 -47.5q-68 0 -115.5 46.5t-45.5 114.5z" />
<glyph unicode="&#xa9;" horiz-adv-x="1705" d="M125 725q0 266 166 467q223 260 565 260q246 0 434 -141q45 -33 88 -78t93.5 -119t81 -176t30.5 -219q-6 -279 -180 -479q-102 -117 -245.5 -181.5t-303.5 -64.5q-324 0 -543 237q-186 205 -186 494zM190 723q0 -133 50 -252q76 -186 244.5 -299t371.5 -113q100 0 211 35 q203 68 324.5 240t124.5 387q0 229 -132 403q-31 41 -70.5 79t-104 83t-156.5 72.5t-197 27.5q-221 0 -393 -126q-41 -31 -81 -71t-87 -106.5t-76 -160t-29 -199.5zM371 725q0 180 100 311q143 188 397 189q227 0 396 -181l-148 -139q-115 121 -248 121q-74 0 -139 -33 q-74 -37 -112.5 -109.5t-38.5 -158.5q0 -131 81.5 -214t212.5 -83q141 0 244 115l148 -135q-162 -178 -398 -179q-219 0 -357 139.5t-138 356.5z" />
<glyph unicode="&#xaa;" d="M31 213q0 76 49 145q37 49 102.5 88t114.5 57.5t129 41.5l166 51q0 109 -62 141q-37 18 -86 19q-182 0 -350 -170l2 258q55 39 96 61.5t130.5 47t191.5 24.5q260 0 354 -156q25 -41 39 -94q9 -37 9 -105q0 -23 -1 -49v-163q2 -33 3 -97q-2 -29 0 -45t10 -27.5t26 -11.5 q27 2 111 33v-192l-94 -41q-139 -55 -205 -56q-76 0 -125 50q-14 14 -35 47l-37 -19q-63 -33 -89.5 -45t-79 -27.5t-99.5 -15.5q-59 0 -115 23q-68 31 -111.5 93t-43.5 134zM362 252q6 -72 74 -72q41 0 125 49l29 17v170l-33 -8q-39 -10 -72 -25q-123 -51 -123 -131z" />
<glyph unicode="&#xab;" horiz-adv-x="1366" d="M59 518l357 483h297l-353 -483l353 -483h-297zM629 518l350 483h301l-350 -483l350 -483h-301z" />
<glyph unicode="&#xac;" horiz-adv-x="1366" d="M0 496v211h1366v-707h-211v496h-1155z" />
<glyph unicode="&#xad;" horiz-adv-x="724" d="M29 350v328h626v-328h-626z" />
<glyph unicode="&#xae;" horiz-adv-x="1705" d="M125 725q0 266 166 467q223 260 565 260q174 0 327.5 -76t258.5 -217q145 -195 141 -440q0 -264 -174 -469q-88 -104 -209 -167t-197.5 -76t-148.5 -13q-250 0 -446 149q-283 222 -283 582zM190 723q0 -133 50 -252q76 -186 244.5 -299t371.5 -113q111 0 223 39 q199 70 318 241t121 382q0 223 -129 399q-31 41 -71 80t-105.5 85t-158.5 73.5t-198 27.5q-221 0 -393 -126q-41 -31 -81 -71t-87 -106.5t-76 -160t-29 -199.5zM528 266v928h318h18q72 0 113 -3t97 -23.5t91 -63.5q55 -70 56 -156q0 -82 -54 -141q-33 -33 -57 -47 q-8 -6 -68 -29q41 -20 62 -41q18 -18 31.5 -49t17.5 -49.5t10 -62.5t8 -52q23 -135 66 -211h-223q-2 4 -6 13.5t-7 13.5q-16 41 -43 211q-12 70 -23 97.5t-40 45.5q-31 18 -125 21h-47v-402h-195zM723 823h119q76 0 112.5 11.5t55.5 46.5q16 27 16 57q0 23 -14 55 q-14 25 -42 37t-46.5 13t-57.5 1h-143v-221z" />
<glyph unicode="&#xb0;" horiz-adv-x="724" d="M10 1194q0 147 103.5 249.5t248.5 102.5q147 -2 250 -105.5t103 -248.5t-103.5 -248.5t-249.5 -103.5q-147 0 -249.5 104.5t-102.5 249.5zM215 1192q2 -61 45 -104.5t102 -43.5q61 0 104.5 44.5t43.5 103.5t-44 102t-104 43q-61 0 -104 -43t-43 -102z" />
<glyph unicode="&#xb1;" horiz-adv-x="1366" d="M86 0v211h1194v-211h-1194zM86 766v211h494v461h211v-461h489v-211h-489v-463h-211v463h-494z" />
<glyph unicode="&#xb2;" d="M-4 0l104 152l150 204l98 146q86 137 105 170q106 186 106 303q0 41 -12 74q-45 143 -207 143q-100 0 -234 -74q-10 -4 -63 -43v297q20 12 61 33q162 78 345 78q172 0 284 -88q158 -119 158 -336q0 -86 -29 -185q-61 -201 -330 -581h441v-293h-977z" />
<glyph unicode="&#xb3;" d="M68 39l2 283q55 -31 59 -33q121 -55 233 -56q57 0 99 17q57 23 93 70t36 106q0 53 -31 102q-59 96 -227 97l2 264q57 0 86 8q133 41 133 154q0 35 -16 71q-51 96 -197 97q-74 0 -244 -52v258q193 57 326 58q270 0 397 -168q74 -96 74 -225q0 -170 -115 -269 q-37 -33 -110 -61q109 -31 172 -101q90 -100 90 -249q0 -109 -47 -199q-53 -96 -169 -172t-298 -76q-135 0 -275 47q-24 9 -73 29z" />
<glyph unicode="&#xb4;" horiz-adv-x="598" d="M-45 1085l131 361h324l-244 -361h-211z" />
<glyph unicode="&#xb5;" horiz-adv-x="1150" d="M131 762q0 86 19 129q29 66 94 65q31 0 53 -20q47 -41 47 -131q0 -55 -25.5 -269t-37.5 -284q33 -63 45 -82q59 -82 151 -82q96 0 166 105q66 102 78 290q4 43 4 133q0 8 -1 48.5t0 69t2 66.5t7 67.5t17 45.5q29 43 81 43q43 0 68 -24q49 -43 49 -184q0 -254 -63 -439 q-14 -43 -39 -88q33 -100 102 -100q37 0 60.5 32.5t23.5 92.5q0 29 -4 45l66 2q31 -68 30 -146q0 -74 -36.5 -122t-108.5 -48q-84 0 -139 76q-31 41 -41 86q-63 -96 -148.5 -133t-154.5 -37q-80 0 -150 45q-37 25 -55 45q-6 6 -23 27q-20 -221 111 -422q47 -76 47 -110 q-2 -39 -30.5 -65t-65.5 -26q-27 0 -56 15q-43 23 -71 86q-51 115 -51 340q0 201 24 354q-45 232 -45 504z" />
<glyph unicode="&#xb6;" horiz-adv-x="1366" d="M174 1022q0 74 19 135q55 195 243 262q78 27 197 27h489v-135h-71v-1653h-144v1653h-270v-1653h-143l-2 969q-84 18 -127 43q-191 106 -191 352z" />
<glyph unicode="&#xb7;" horiz-adv-x="382" d="M33 596q0 31 14 68q18 41 59 67.5t87 26.5q66 0 111.5 -47t45.5 -113q0 -68 -48 -116t-114 -46q-66 0 -110.5 47t-44.5 113z" />
<glyph unicode="&#xb8;" horiz-adv-x="598" d="M-150 -473l29 160q20 -4 68.5 -2t68.5 12q6 2 15.5 8t19.5 19.5t10 27.5q0 16 -8 27q-10 20 -69 49l63 186l170 -10l-35 -98q12 -6 37 -23q88 -59 88 -145q-6 -57 -26 -90q-14 -25 -36 -45.5t-46.5 -32.5t-49 -20.5t-50 -13.5t-44 -7t-35.5 -4h-14q-10 0 -34.5 -1 t-34.5 -1q-30 0 -87 4z" />
<glyph unicode="&#xb9;" d="M199 827v275q141 55 231 178q45 68 62 100q14 31 26 66h248v-1446h-322l-2 944q-87 -58 -243 -117z" />
<glyph unicode="&#xba;" horiz-adv-x="1236" d="M53 471q8 207 135 346q150 160 418 160q102 0 195 -31q152 -51 243 -178q96 -133 97 -297q0 -107 -41 -195q-63 -154 -201.5 -233.5t-308.5 -79.5q-227 0 -373 135q-76 70 -120 169.5t-44 203.5zM391 465q0 -106 54.5 -183t156.5 -77q45 0 82 18q59 31 90 105 q29 69 29 138q0 52 -12 99q-47 170 -193 170q-63 0 -100 -26q-43 -27 -75 -90.5t-32 -153.5z" />
<glyph unicode="&#xbb;" horiz-adv-x="1366" d="M43 35l348 483l-348 483h299l350 -483l-350 -483h-299zM610 35l353 483l-353 483h297l357 -483l-357 -483h-297z" />
<glyph unicode="&#xbc;" horiz-adv-x="2476" d="M1370 340v235l655 885h228v-874h98v-246h-98v-340h-324v340h-559zM1647 586h286l4 344q0 31 9 71q-27 -47 -39 -63zM817 0l737 1505l115 -57l-741 -1507zM199 827v275q141 55 231 178q45 68 62 100q14 31 26 66h248v-1446h-322l-2 944q-87 -58 -243 -117z" />
<glyph unicode="&#xbd;" horiz-adv-x="2476" d="M1362 0l104 152l150 204l98 146q86 137 105 170q106 186 106 303q0 41 -12 74q-45 143 -207 143q-100 0 -234 -74q-10 -4 -63 -43v297q20 12 61 33q162 78 345 78q172 0 284 -88q158 -119 158 -336q0 -86 -29 -185q-61 -201 -330 -581h441v-293h-977zM817 0l737 1505 l115 -57l-741 -1507zM199 827v275q141 55 231 178q45 68 62 100q14 31 26 66h248v-1446h-322l-2 944q-87 -58 -243 -117z" />
<glyph unicode="&#xbe;" horiz-adv-x="2476" d="M1370 340v235l655 885h228v-874h98v-246h-98v-340h-324v340h-559zM1647 586h286l4 344q0 31 9 71q-27 -47 -39 -63zM817 0l737 1505l115 -57l-741 -1507zM68 39l2 283q55 -31 59 -33q121 -55 233 -56q57 0 99 17q57 23 93 70t36 106q0 53 -31 102q-59 96 -227 97l2 264 q57 0 86 8q133 41 133 154q0 35 -16 71q-51 96 -197 97q-74 0 -244 -52v258q193 57 326 58q270 0 397 -168q74 -96 74 -225q0 -170 -115 -269q-37 -33 -110 -61q109 -31 172 -101q90 -100 90 -249q0 -109 -47 -199q-53 -96 -169 -172t-298 -76q-135 0 -275 47q-24 9 -73 29z " />
<glyph unicode="&#xbf;" horiz-adv-x="937" d="M55 319q0 76 23.5 131.5t79.5 137.5l43 55q98 137 118 199q10 25 21 96l2 18q0 29 8 36t37 5h68q18 0 24 -10q20 -23 42 -93.5t22 -143.5q0 -109 -76 -248l-18 -33q-49 -98 -50 -137q0 -35 26 -68t87 -33q49 0 184 56l-86 -297q-102 -20 -180 -21q-137 0 -233 70 q-142 108 -142 280zM221 1290q0 35 17 72q23 57 71.5 89t108.5 32q51 0 92 -23q100 -51 100 -170q0 -82 -57 -137t-139 -55q-43 0 -82 16q-49 20 -80 70.5t-31 105.5z" />
<glyph unicode="&#xc0;" horiz-adv-x="1622" d="M-4 0l594 1446h409l586 -1446h-387l-104 250h-607l-100 -250h-391zM506 1833h303l164 -283h-207zM600 526h381l-193 492z" />
<glyph unicode="&#xc1;" horiz-adv-x="1622" d="M-4 0l594 1446h409l586 -1446h-387l-104 250h-607l-100 -250h-391zM600 526h381l-193 492zM659 1548l154 285h303l-256 -285h-201z" />
<glyph unicode="&#xc2;" horiz-adv-x="1622" d="M-4 0l594 1446h409l586 -1446h-387l-104 250h-607l-100 -250h-391zM449 1548l233 285h254l233 -285h-266l-96 111l-94 -111h-264zM600 526h381l-193 492z" />
<glyph unicode="&#xc3;" horiz-adv-x="1622" d="M-4 0l594 1446h409l586 -1446h-387l-104 250h-607l-100 -250h-391zM424 1628q31 49 46 71.5t48 61.5t69 55.5t79 16.5q55 0 184 -57l39 -17q45 -23 74 -22q16 0 32 8q25 14 74 88l127 -74q-8 -23 -46 -83t-83 -91q-39 -25 -86 -24q-45 0 -119 30l-96 35q-72 29 -96 29 q-23 0 -48.5 -22.5t-34.5 -38.5l-28 -46zM600 526h381l-193 492z" />
<glyph unicode="&#xc4;" horiz-adv-x="1622" d="M-4 0l594 1446h409l586 -1446h-387l-104 250h-607l-100 -250h-391zM354 1696q0 29 11 53q14 39 52 64.5t81 25.5q31 0 57 -12q90 -37 90 -135q0 -59 -40 -101.5t-99 -44.5q-63 -2 -107.5 42.5t-44.5 107.5zM600 526h381l-193 492zM944 1694q0 37 10 59q14 39 51 62.5 t80 23.5q27 0 54 -10q92 -39 92 -135q0 -88 -72 -127q-35 -20 -72 -21q-45 0 -94 34t-49 114z" />
<glyph unicode="&#xc5;" horiz-adv-x="1622" d="M-4 0l594 1446h409l586 -1446h-387l-104 250h-607l-100 -250h-391zM553 1694q0 94 74.5 151.5t171.5 57.5q94 0 162.5 -55.5t70.5 -147.5q2 -96 -69.5 -155.5t-167.5 -59.5q-51 0 -103 18q-78 29 -108.5 84.5t-30.5 106.5zM600 526h381l-193 492zM705 1692 q0 -37 26.5 -61.5t63.5 -24.5q37 2 62.5 28.5t23.5 63.5q-2 35 -28 59.5t-60 24.5q-37 0 -62.5 -26.5t-25.5 -63.5z" />
<glyph unicode="&#xc6;" horiz-adv-x="2174" d="M2 0l801 1446h1259v-279h-632v-293h598v-280h-598v-318h647v-276h-1010v594h-319l-328 -594h-418zM885 874h184v220q2 47 10 141z" />
<glyph unicode="&#xc7;" horiz-adv-x="1492" d="M53 709q4 295 189 501q233 266 630 267q264 0 527 -144v-332q-281 164 -481 164q-154 0 -293 -86q-188 -127 -189 -358q0 -98 37 -182q37 -80 98.5 -134.5t131 -76t113.5 -27.5t85 -6q135 0 250 44t266 132v-338q-74 -41 -112 -59q-215 -104 -447 -105q-178 0 -344 66.5 t-281 193.5q-180 197 -180 480zM492 -473l26 160q20 -4 69.5 -2t69.5 12q4 2 13.5 8t20.5 19.5t11 27.5q-4 16 -8 27q-4 8 -8 13t-11 10t-11.5 7.5t-18.5 8.5t-22 10l65 186l168 -10l-35 -98q12 -6 37 -23q88 -53 88 -145q0 -49 -24 -90q-14 -25 -36 -45.5t-47.5 -32.5 t-50 -20.5t-50 -13.5t-44 -7t-35.5 -4h-14q-10 0 -33.5 -1t-36.5 -1q-30 0 -83 4z" />
<glyph unicode="&#xc8;" horiz-adv-x="1236" d="M127 0v1446h995v-277h-630v-292h598v-279h-598v-322h645v-276h-1010zM313 1833h305l162 -283h-207z" />
<glyph unicode="&#xc9;" horiz-adv-x="1236" d="M127 0v1446h995v-277h-630v-292h598v-279h-598v-322h645v-276h-1010zM467 1548l154 285h305l-256 -285h-203z" />
<glyph unicode="&#xca;" horiz-adv-x="1236" d="M127 0v1446h995v-277h-630v-292h598v-279h-598v-322h645v-276h-1010zM258 1548l231 285h256l232 -285h-266l-97 111l-94 -111h-262z" />
<glyph unicode="&#xcb;" horiz-adv-x="1236" d="M127 0v1446h995v-277h-630v-292h598v-279h-598v-322h645v-276h-1010zM176 1696q0 29 10 53q14 39 53.5 64.5t82.5 25.5q31 0 55 -12q90 -37 90 -135q0 -59 -40 -101.5t-99 -44.5q-63 -2 -107.5 42.5t-44.5 107.5zM766 1694q0 37 10 59q14 39 51 62.5t80 23.5q25 0 56 -10 q90 -39 90 -135q0 -92 -72 -127q-35 -20 -72 -21q-45 0 -94 34t-49 114z" />
<glyph unicode="&#xcc;" horiz-adv-x="641" d="M14 1833h305l162 -283h-205zM129 0v1446h340v-1446h-340z" />
<glyph unicode="&#xcd;" horiz-adv-x="641" d="M129 0v1446h340v-1446h-340zM168 1548l154 285h305l-256 -285h-203z" />
<glyph unicode="&#xce;" horiz-adv-x="641" d="M-41 1548l231 285h256l232 -285h-266l-95 111l-94 -111h-264zM129 0v1446h340v-1446h-340z" />
<glyph unicode="&#xcf;" horiz-adv-x="641" d="M-123 1696q0 29 10 53q14 39 53.5 64.5t82.5 25.5q31 0 57 -12q53 -20 71.5 -61.5t16.5 -73.5q0 -59 -40 -101.5t-99 -44.5q-63 -2 -107.5 42.5t-44.5 107.5zM129 0v1446h340v-1446h-340zM467 1694q0 29 10 59q14 39 51 62.5t80 23.5q25 0 56 -10q92 -39 92 -135 q-2 -92 -74 -127q-27 -20 -72 -20.5t-94 33.5t-49 114z" />
<glyph unicode="&#xd1;" horiz-adv-x="1792" d="M131 0v1446h365l651 -774q27 -33 76 -99l51 -71q-12 96 -14 149q-2 27 -3 78v717h365v-1446h-365l-632 752q-84 106 -90 114q-31 39 -54 78q8 -80 11 -115q4 -70 4 -102v-727h-365zM510 1628q27 47 43 71.5t49 62.5t70 54.5t80 16.5q53 0 182 -57l41 -17q33 -23 74 -22 q16 0 32 8q20 10 74 88l127 -74q-8 -23 -46 -83t-83 -91q-39 -25 -86 -24q-45 0 -119 30l-96 35q-72 29 -96 29q-10 0 -20.5 -4t-20.5 -12.5t-17.5 -14.5t-16.5 -19.5t-14 -19.5t-13.5 -20.5t-10.5 -16.5z" />
<glyph unicode="&#xd2;" horiz-adv-x="1792" d="M53 727q2 229 97.5 378.5t211.5 231.5q201 139 510 140q350 0 570 -185q250 -209 254 -559q0 -301 -185 -510q-231 -254 -647 -254q-102 0 -202 19q-281 53 -455 274q-154 195 -154 465zM432 729q0 -119 49 -217q37 -72 94.5 -121t120 -68.5t102.5 -25.5t76 -6 q188 0 314.5 119.5t128.5 306.5q0 111 -47 209q-35 76 -92.5 127t-121 71.5t-104.5 26.5t-82 6q-178 0 -295 -96q-143 -117 -143 -332zM590 1833h305l162 -283h-205z" />
<glyph unicode="&#xd3;" horiz-adv-x="1792" d="M53 727q2 229 97.5 378.5t211.5 231.5q201 139 510 140q350 0 570 -185q250 -209 254 -559q0 -301 -185 -510q-231 -254 -647 -254q-102 0 -202 19q-281 53 -455 274q-154 195 -154 465zM432 729q0 -119 49 -217q37 -72 94.5 -121t120 -68.5t102.5 -25.5t76 -6 q188 0 314.5 119.5t128.5 306.5q0 111 -47 209q-35 76 -92.5 127t-121 71.5t-104.5 26.5t-82 6q-178 0 -295 -96q-143 -117 -143 -332zM743 1548l154 285h305l-256 -285h-203z" />
<glyph unicode="&#xd4;" horiz-adv-x="1792" d="M53 727q2 229 97.5 378.5t211.5 231.5q201 139 510 140q350 0 570 -185q250 -209 254 -559q0 -301 -185 -510q-231 -254 -647 -254q-102 0 -202 19q-281 53 -455 274q-154 195 -154 465zM432 729q0 -119 49 -217q37 -72 94.5 -121t120 -68.5t102.5 -25.5t76 -6 q188 0 314.5 119.5t128.5 306.5q0 111 -47 209q-35 76 -92.5 127t-121 71.5t-104.5 26.5t-82 6q-178 0 -295 -96q-143 -117 -143 -332zM535 1548l231 285h256l231 -285h-266l-94 111l-94 -111h-264z" />
<glyph unicode="&#xd5;" horiz-adv-x="1792" d="M53 727q2 229 97.5 378.5t211.5 231.5q201 139 510 140q350 0 570 -185q250 -209 254 -559q0 -301 -185 -510q-231 -254 -647 -254q-102 0 -202 19q-281 53 -455 274q-154 195 -154 465zM432 729q0 -119 49 -217q37 -72 94.5 -121t120 -68.5t102.5 -25.5t76 -6 q188 0 314.5 119.5t128.5 306.5q0 111 -47 209q-35 76 -92.5 127t-121 71.5t-104.5 26.5t-82 6q-178 0 -295 -96q-143 -117 -143 -332zM510 1628q27 47 43 71.5t49 62.5t70 54.5t80 16.5q53 0 182 -57l41 -17q33 -23 74 -22q16 0 32 8q20 10 74 88l127 -74q-8 -23 -46 -83 t-83 -91q-39 -25 -86 -24q-45 0 -119 30l-96 35q-72 29 -96 29q-10 0 -20.5 -4t-20.5 -12.5t-17.5 -14.5t-16.5 -19.5t-14 -19.5t-13.5 -20.5t-10.5 -16.5z" />
<glyph unicode="&#xd6;" horiz-adv-x="1792" d="M53 727q2 229 97.5 378.5t211.5 231.5q201 139 510 140q350 0 570 -185q250 -209 254 -559q0 -301 -185 -510q-231 -254 -647 -254q-102 0 -202 19q-281 53 -455 274q-154 195 -154 465zM403 1696q0 35 13 59q16 37 53 60.5t78 23.5q63 0 106 -44t41 -105 q0 -59 -41 -100.5t-100 -43.5q-61 -2 -105.5 42.5t-44.5 107.5zM432 729q0 -119 49 -217q37 -72 94.5 -121t120 -68.5t102.5 -25.5t76 -6q188 0 314.5 119.5t128.5 306.5q0 111 -47 209q-35 76 -92.5 127t-121 71.5t-104.5 26.5t-82 6q-178 0 -295 -96q-143 -117 -143 -332z M991 1694q4 39 10 57q6 16 19.5 33.5t44.5 36t68 18.5q29 0 55 -10q92 -39 92 -135q0 -84 -72 -127q-39 -20 -71 -21q-45 0 -95.5 34t-50.5 114z" />
<glyph unicode="&#xd7;" horiz-adv-x="1366" d="M139 205l391 393l-391 393l152 152l391 -393l393 393l152 -152l-393 -393l393 -393l-152 -152l-393 393l-391 -393z" />
<glyph unicode="&#xd8;" horiz-adv-x="1792" d="M53 731q0 125 35 232.5t90 182.5t102.5 120t98.5 80q199 131 491 131q238 0 443 -101l176 209l121 -102l-162 -203q45 -35 90 -90q160 -193 160 -467q-2 -264 -151.5 -459.5t-403.5 -261.5q-127 -33 -275 -33q-227 0 -428 97l-176 -209l-121 94l166 207q-35 27 -63 57 q-193 199 -193 516zM430 719q0 -133 66 -236q18 -27 41 -53l557 676q-127 47 -222 47q-201 0 -325 -125q-117 -119 -117 -309zM664 334q113 -45 206 -45q39 0 81 7t103.5 26.5t120 69.5t97.5 124q49 98 49 201q0 117 -57 225q-10 18 -27 41l-18 25z" />
<glyph unicode="&#xd9;" horiz-adv-x="1705" d="M119 655v791h362v-754q6 -137 21 -188q29 -106 120 -162.5t207 -54.5q119 0 203 47q37 20 63.5 43.5t42 61.5t24.5 56.5t12.5 74t4.5 65.5t1 76v735h364v-799q0 -80 -2 -119q-10 -184 -117 -315q-102 -125 -259.5 -184.5t-334.5 -59.5q-240 0 -428 111q-92 55 -153 121 q-49 53 -76 116q-29 66 -41 135.5t-14 202.5zM547 1833h305l164 -283h-207z" />
<glyph unicode="&#xda;" horiz-adv-x="1705" d="M119 655v791h362v-754q6 -137 21 -188q29 -106 120 -162.5t207 -54.5q119 0 203 47q37 20 63.5 43.5t42 61.5t24.5 56.5t12.5 74t4.5 65.5t1 76v735h364v-799q0 -80 -2 -119q-10 -184 -117 -315q-102 -125 -259.5 -184.5t-334.5 -59.5q-240 0 -428 111q-92 55 -153 121 q-49 53 -76 116q-29 66 -41 135.5t-14 202.5zM700 1548l156 285h303l-256 -285h-203z" />
<glyph unicode="&#xdb;" horiz-adv-x="1705" d="M119 655v791h362v-754q6 -137 21 -188q29 -106 120 -162.5t207 -54.5q119 0 203 47q37 20 63.5 43.5t42 61.5t24.5 56.5t12.5 74t4.5 65.5t1 76v735h364v-799q0 -80 -2 -119q-10 -184 -117 -315q-102 -125 -259.5 -184.5t-334.5 -59.5q-240 0 -428 111q-92 55 -153 121 q-49 53 -76 116q-29 66 -41 135.5t-14 202.5zM492 1548l231 285h256l231 -285h-266l-94 111l-94 -111h-264z" />
<glyph unicode="&#xdc;" horiz-adv-x="1705" d="M119 655v791h362v-754q6 -137 21 -188q29 -106 120 -162.5t207 -54.5q119 0 203 47q37 20 63.5 43.5t42 61.5t24.5 56.5t12.5 74t4.5 65.5t1 76v735h364v-799q0 -80 -2 -119q-10 -184 -117 -315q-102 -125 -259.5 -184.5t-334.5 -59.5q-240 0 -428 111q-92 55 -153 121 q-49 53 -76 116q-29 66 -41 135.5t-14 202.5zM389 1696q0 29 10 53q14 39 53.5 64.5t79.5 25.5q27 0 52 -8q96 -39 96 -141q0 -16 -10 -58q-12 -29 -44 -56.5t-85 -29.5q-63 -2 -107.5 42.5t-44.5 107.5zM979 1692q0 61 39 104t102 43q31 0 54 -10q92 -39 92 -135 q0 -88 -72 -127q-35 -20 -72 -21q-45 0 -94 34t-49 112z" />
<glyph unicode="&#xdd;" horiz-adv-x="1449" d="M600 1599l131 361h324l-244 -361h-211zM2 1446h434l199 -320q47 -78 74 -143q25 66 114 221l144 242h442l-522 -770v-676h-361v676z" />
<glyph unicode="&#xdf;" horiz-adv-x="1280" d="M115 0v989q6 135 26 199q39 113 154 201t315 88q49 0 131 -11q188 -35 273 -153q68 -92 67 -209q0 -139 -86 -225q-29 -25 -73 -50q43 -16 77 -38q143 -102 144 -338q0 -207 -101 -322q-129 -154 -360 -154q-68 0 -147 19l2 237q72 -10 90 -10q57 0 106 37q78 61 78 223 q0 55 -10 95q-29 102 -107 137q-49 18 -133 18v191q59 0 92 10q102 33 103 151q0 88 -47 124t-101 36q-117 -4 -151 -102q-23 -70 -17 -314v-829h-325z" />
<glyph unicode="&#xe0;" d="M31 213q0 76 49 145q37 49 102.5 88t114.5 57.5t129 41.5l166 51q0 109 -62 141q-37 18 -86 19q-182 0 -350 -170l2 258q55 39 96 61.5t130.5 47t191.5 24.5q260 0 354 -156q25 -41 39 -94q12 -49 8 -154v-163q2 -33 3 -97q-2 -29 0 -45t10 -27.5t26 -11.5q27 2 111 33 v-192l-94 -41q-139 -55 -205 -56q-76 0 -125 50q-14 14 -35 47l-37 -19q-63 -33 -89.5 -45t-79 -27.5t-99.5 -15.5q-59 0 -115 23q-68 31 -111.5 93t-43.5 134zM188 1446h330l133 -361h-213zM362 252q6 -72 74 -72q41 0 125 49l29 17v170l-33 -8q-39 -10 -72 -25 q-123 -51 -123 -131z" />
<glyph unicode="&#xe1;" d="M31 213q0 76 49 145q37 49 102.5 88t114.5 57.5t129 41.5l166 51q0 109 -62 141q-37 18 -86 19q-182 0 -350 -170l2 258q55 39 96 61.5t130.5 47t191.5 24.5q260 0 354 -156q25 -41 39 -94q12 -49 8 -154v-163q2 -33 3 -97q-2 -29 0 -45t10 -27.5t26 -11.5q27 2 111 33 v-192l-94 -41q-139 -55 -205 -56q-76 0 -125 50q-14 14 -35 47l-37 -19q-63 -33 -89.5 -45t-79 -27.5t-99.5 -15.5q-59 0 -115 23q-68 31 -111.5 93t-43.5 134zM338 1085l131 361h324l-244 -361h-211zM362 252q6 -72 74 -72q41 0 125 49l29 17v170l-33 -8q-39 -10 -72 -25 q-123 -51 -123 -131z" />
<glyph unicode="&#xe2;" d="M31 213q0 76 49 145q37 49 102.5 88t114.5 57.5t129 41.5l166 51q0 109 -62 141q-37 18 -86 19q-182 0 -350 -170l2 258q55 39 96 61.5t130.5 47t191.5 24.5q260 0 354 -156q25 -41 39 -94q12 -49 8 -154v-163q2 -33 3 -97q-2 -29 0 -45t10 -27.5t26 -11.5q27 2 111 33 v-192l-94 -41q-139 -55 -205 -56q-76 0 -125 50q-14 14 -35 47l-37 -19q-63 -33 -89.5 -45t-79 -27.5t-99.5 -15.5q-59 0 -115 23q-68 31 -111.5 93t-43.5 134zM96 1085l246 361h287l260 -361h-260l-137 189l-138 -189h-258zM362 252q6 -72 74 -72q41 0 125 49l29 17v170 l-33 -8q-39 -10 -72 -25q-123 -51 -123 -131z" />
<glyph unicode="&#xe3;" d="M31 213q0 76 49 145q37 49 102.5 88t114.5 57.5t129 41.5l166 51q0 109 -62 141q-37 18 -86 19q-182 0 -350 -170l2 258q55 39 96 61.5t130.5 47t191.5 24.5q260 0 354 -156q25 -41 39 -94q12 -49 8 -154v-163q2 -33 3 -97q-2 -29 0 -45t10 -27.5t26 -11.5q27 2 111 33 v-192l-94 -41q-139 -55 -205 -56q-76 0 -125 50q-14 14 -35 47l-37 -19q-63 -33 -89.5 -45t-79 -27.5t-99.5 -15.5q-59 0 -115 23q-68 31 -111.5 93t-43.5 134zM100 1192q127 219 265 219q57 0 159 -51l51 -27q70 -35 101 -35q20 0 37 13q35 23 59 80l154 -101 q-76 -137 -150 -182q-47 -31 -90 -31q-59 0 -162 56l-65 30q-72 33 -97 33q-45 -2 -106 -100zM362 252q6 -72 74 -72q41 0 125 49l29 17v170l-33 -8q-39 -10 -72 -25q-123 -51 -123 -131z" />
<glyph unicode="&#xe4;" d="M31 213q0 76 49 145q37 49 102.5 88t114.5 57.5t129 41.5l166 51q0 109 -62 141q-37 18 -86 19q-182 0 -350 -170l2 258q55 39 96 61.5t130.5 47t191.5 24.5q260 0 354 -156q25 -41 39 -94q12 -49 8 -154v-163q2 -33 3 -97q-2 -29 0 -45t10 -27.5t26 -11.5q27 2 111 33 v-192l-94 -41q-139 -55 -205 -56q-76 0 -125 50q-14 14 -35 47l-37 -19q-63 -33 -89.5 -45t-79 -27.5t-99.5 -15.5q-59 0 -115 23q-68 31 -111.5 93t-43.5 134zM109 1260q0 66 47 111.5t112.5 45.5t113.5 -47t48 -115q0 -66 -46 -111.5t-112 -47.5q-70 -2 -116.5 46 t-46.5 118zM362 252q6 -72 74 -72q41 0 125 49l29 17v170l-33 -8q-39 -10 -72 -25q-123 -51 -123 -131zM618 1255q0 68 48.5 116t115.5 46q31 0 64 -12q96 -45 94 -148q0 -33 -14 -65q-39 -92 -144 -96q-39 0 -67 14q-55 25 -76 67.5t-21 77.5z" />
<glyph unicode="&#xe5;" d="M31 213q0 76 49 145q37 49 102.5 88t114.5 57.5t129 41.5l166 51q0 109 -62 141q-37 18 -86 19q-182 0 -350 -170l2 258q55 39 96 61.5t130.5 47t191.5 24.5q260 0 354 -156q25 -41 39 -94q12 -49 8 -154v-163q2 -33 3 -97q-2 -29 0 -45t10 -27.5t26 -11.5q27 2 111 33 v-192l-94 -41q-139 -55 -205 -56q-76 0 -125 50q-14 14 -35 47l-37 -19q-63 -33 -89.5 -45t-79 -27.5t-99.5 -15.5q-59 0 -115 23q-68 31 -111.5 93t-43.5 134zM289 1265.5q0 98.5 67.5 167t165.5 68.5q43 0 86 -16q70 -27 111 -87.5t41 -135.5q-8 -68 -23 -99 q-29 -61 -89 -97t-128 -36q-98 0 -164.5 68.5t-66.5 167zM362 252q6 -72 74 -72q41 0 125 49l29 17v170l-33 -8q-39 -10 -72 -25q-123 -51 -123 -131zM428 1264q0 -39 27.5 -66t66.5 -27q41 0 68.5 29t25.5 70q-2 37 -28.5 63.5t-65.5 26.5t-66.5 -28.5t-27.5 -67.5z" />
<glyph unicode="&#xe6;" horiz-adv-x="1622" d="M31 215q0 113 106 201q82 61 248 119l211 69q0 55 -10 80q-27 76 -140 76q-63 0 -120 -23q-92 -35 -234 -145l2 258q57 35 78 43q168 84 334 84q129 0 217 -47q6 -4 45 -31q2 2 16.5 10.5t19.5 10.5t19.5 9t22.5 10t24.5 10t27.5 9.5t29.5 7.5t35 7t37 3t40.5 1 q162 0 286 -85t173 -235q33 -98 33 -225l-629 -10q6 -84 51 -137q70 -88 207 -88q135 0 348 116l-2 -233q-66 -35 -99.5 -51.5t-128.5 -41t-192 -24.5q-98 0 -182 28.5t-115.5 51.5t-87.5 68q-57 -37 -86 -54q-160 -94 -299 -94q-55 0 -112 19q-78 27 -126 89t-48 144z M358 248q0 -25 18.5 -47.5t59.5 -22.5q47 0 139 58l21 14v166q-135 -35 -193 -84q-45 -37 -45 -84zM903 616h289q-31 158 -143 158q-39 0 -70 -21.5t-46 -55t-21.5 -50.5t-8.5 -31z" />
<glyph unicode="&#xe7;" horiz-adv-x="980" d="M53 467q6 180 107 307q158 203 440 203q129 0 311 -66v-256q-10 4 -26.5 13.5t-26.5 13.5q-104 45 -190 45q-117 0 -196 -70.5t-79 -187.5q0 -115 77 -183.5t192 -68.5q104 0 264 74v-256q-174 -72 -320 -72q-109 0 -207 33q-156 51 -251 179t-95 292zM233 -473l29 160 q20 -4 69.5 -2t69.5 12q4 2 13.5 8t20.5 19.5t11 27.5q-4 16 -8 27q-4 8 -8 13t-11 10t-11.5 7.5t-18.5 8.5t-22 10l65 186l168 -10l-35 -98q12 -6 37 -23q88 -53 88 -145q0 -49 -24 -90q-14 -25 -36 -45.5t-47.5 -32.5t-50 -20.5t-50 -13.5t-44 -7t-32.5 -4h-17 q-10 0 -33.5 -1t-36.5 -1q-29 0 -86 4z" />
<glyph unicode="&#xe8;" horiz-adv-x="1150" d="M53 481q2 117 41 203q20 47 54 92t89.5 93.5t141.5 78t192 29.5q98 0 183 -31q219 -80 286 -332q18 -74 19 -180l-660 -10q12 -94 62 -145q74 -80 213 -80q61 0 102 10q78 16 252 108v-235q-225 -119 -426 -119q-111 0 -207 33q-49 16 -99 48t-109.5 87t-96.5 146 t-37 204zM272 1446h330l135 -361h-215zM408 616h321q-10 43 -22 68q-41 92 -134 92q-29 0 -61 -14q-29 -14 -50.5 -40t-31.5 -47.5t-22 -58.5z" />
<glyph unicode="&#xe9;" horiz-adv-x="1150" d="M53 481q2 117 41 203q20 47 54 92t89.5 93.5t141.5 78t192 29.5q98 0 183 -31q219 -80 286 -332q18 -74 19 -180l-660 -10q12 -94 62 -145q74 -80 213 -80q61 0 102 10q78 16 252 108v-235q-225 -119 -426 -119q-111 0 -207 33q-49 16 -99 48t-109.5 87t-96.5 146 t-37 204zM408 616h321q-10 43 -22 68q-41 92 -134 92q-29 0 -61 -14q-29 -14 -50.5 -40t-31.5 -47.5t-22 -58.5zM424 1085l131 361h324l-244 -361h-211z" />
<glyph unicode="&#xea;" horiz-adv-x="1150" d="M53 481q2 117 41 203q20 47 54 92t89.5 93.5t141.5 78t192 29.5q98 0 183 -31q219 -80 286 -332q18 -74 19 -180l-660 -10q12 -94 62 -145q74 -80 213 -80q61 0 102 10q78 16 252 108v-235q-225 -119 -426 -119q-111 0 -207 33q-49 16 -99 48t-109.5 87t-96.5 146 t-37 204zM180 1085l248 361h287l258 -361h-258l-140 189l-137 -189h-258zM408 616h321q-10 43 -22 68q-41 92 -134 92q-29 0 -61 -14q-29 -14 -50.5 -40t-31.5 -47.5t-22 -58.5z" />
<glyph unicode="&#xeb;" horiz-adv-x="1150" d="M53 481q2 117 41 203q20 47 54 92t89.5 93.5t141.5 78t192 29.5q98 0 183 -31q219 -80 286 -332q18 -74 19 -180l-660 -10q12 -94 62 -145q74 -80 213 -80q61 0 102 10q78 16 252 108v-235q-225 -119 -426 -119q-111 0 -207 33q-49 16 -99 48t-109.5 87t-96.5 146 t-37 204zM158 1260q0 66 47 111.5t114 45.5q66 0 114 -47t48 -115q0 -66 -46 -111.5t-111 -47.5q-70 -2 -118 46t-48 118zM408 616h321q-10 43 -22 68q-41 92 -134 92q-29 0 -61 -14q-29 -14 -50.5 -40t-31.5 -47.5t-22 -58.5zM670 1257q0 68 48 115t113 45q68 0 114 -47 t46 -112.5t-46 -112.5t-111 -49q-68 0 -117 46.5t-47 114.5z" />
<glyph unicode="&#xec;" horiz-adv-x="598" d="M-4 1446h330l135 -361h-215zM113 0v940h329v-940h-329z" />
<glyph unicode="&#xed;" horiz-adv-x="598" d="M113 0v940h329v-940h-329zM145 1085l131 361h324l-242 -361h-213z" />
<glyph unicode="&#xee;" horiz-adv-x="598" d="M-96 1085l246 361h286l260 -361h-260l-137 189l-137 -189h-258zM113 0v940h329v-940h-329z" />
<glyph unicode="&#xef;" horiz-adv-x="598" d="M-119 1260q0 66 47 111.5t113 45.5q68 0 115 -47t47 -115q0 -66 -46 -111.5t-112 -47.5q-70 -2 -117 46t-47 118zM113 0v940h329v-940h-329zM391 1257q2 68 49 115t115 45q66 0 113 -47t45 -113q0 -66 -45 -112.5t-113 -48.5q-68 0 -116 46.5t-48 114.5z" />
<glyph unicode="&#xf1;" horiz-adv-x="1236" d="M115 0v940h329q-6 -86 -12 -119q156 156 313 156q49 0 96.5 -15.5t98.5 -50t87 -104.5t48 -166q4 -41 4 -127v-514h-325v457q0 141 -25 186q-33 68 -113 68q-18 0 -39.5 -6.5t-39 -15.5t-36 -20.5t-28.5 -20.5t-20 -17l-11 -8v-623h-327zM227 1192q127 219 265 219 q59 0 161 -51l52 -27q70 -35 98 -35q20 0 39 13q29 18 59 80l154 -101q-76 -135 -150 -182q-45 -31 -92 -31q-55 0 -162 56l-63 30q-72 33 -96 33q-47 -2 -109 -100z" />
<glyph unicode="&#xf2;" horiz-adv-x="1236" d="M53 471q8 207 135 346q150 160 418 160q102 0 195 -31q152 -51 244 -178t96 -287q2 -113 -41 -205q-63 -154 -201.5 -233.5t-308.5 -79.5q-227 0 -373 135q-76 70 -120 169.5t-44 203.5zM295 1446h330l135 -361h-215zM391 465q0 -106 54.5 -183t156.5 -77q45 0 82 18 q59 31 90 104.5t29 147.5q0 43 -12 90q-47 170 -193 170q-63 0 -100 -26q-43 -27 -75 -90.5t-32 -153.5z" />
<glyph unicode="&#xf3;" horiz-adv-x="1236" d="M53 471q8 207 135 346q150 160 418 160q102 0 195 -31q152 -51 244 -178t96 -287q2 -113 -41 -205q-63 -154 -201.5 -233.5t-308.5 -79.5q-227 0 -373 135q-76 70 -120 169.5t-44 203.5zM391 465q0 -106 54.5 -183t156.5 -77q45 0 82 18q59 31 90 104.5t29 147.5 q0 43 -12 90q-47 170 -193 170q-63 0 -100 -26q-43 -27 -75 -90.5t-32 -153.5zM444 1085l131 361h324l-242 -361h-213z" />
<glyph unicode="&#xf4;" horiz-adv-x="1236" d="M53 471q8 207 135 346q150 160 418 160q102 0 195 -31q152 -51 244 -178t96 -287q2 -113 -41 -205q-63 -154 -201.5 -233.5t-308.5 -79.5q-227 0 -373 135q-76 70 -120 169.5t-44 203.5zM203 1085l246 361h286l260 -361h-260l-137 189l-137 -189h-258zM391 465 q0 -106 54.5 -183t156.5 -77q45 0 82 18q59 31 90 104.5t29 147.5q0 43 -12 90q-47 170 -193 170q-63 0 -100 -26q-43 -27 -75 -90.5t-32 -153.5z" />
<glyph unicode="&#xf5;" horiz-adv-x="1236" d="M53 471q8 207 135 346q150 160 418 160q102 0 195 -31q152 -51 244 -178t96 -287q2 -113 -41 -205q-63 -154 -201.5 -233.5t-308.5 -79.5q-227 0 -373 135q-76 70 -120 169.5t-44 203.5zM207 1192q127 219 264 219q57 0 160 -51l51 -27q70 -35 100 -35q20 0 37 13 q35 23 60 80l153 -101q-72 -133 -149 -182q-47 -31 -90 -31q-59 0 -162 56l-66 30q-72 33 -94 33q-47 -2 -109 -100zM391 465q0 -106 54.5 -183t156.5 -77q45 0 82 18q59 31 90 104.5t29 147.5q0 43 -12 90q-47 170 -193 170q-63 0 -100 -26q-43 -27 -75 -90.5t-32 -153.5z " />
<glyph unicode="&#xf6;" horiz-adv-x="1236" d="M53 471q8 207 135 346q150 160 418 160q102 0 195 -31q152 -51 244 -178t96 -287q2 -113 -41 -205q-63 -154 -201.5 -233.5t-308.5 -79.5q-227 0 -373 135q-76 70 -120 169.5t-44 203.5zM180 1260q0 68 47 112.5t115 44.5t114 -46t46 -114q0 -66 -45 -112.5t-113 -48.5 q-70 -2 -117 46t-47 118zM391 465q0 -106 54.5 -183t156.5 -77q45 0 82 18q59 31 90 104.5t29 147.5q0 43 -12 90q-47 170 -193 170q-63 0 -100 -26q-43 -27 -75 -90.5t-32 -153.5zM692 1255q0 70 47 117t115 45q66 0 113 -47t47 -112.5t-46 -112.5t-112 -49 q-68 0 -117 45.5t-47 113.5z" />
<glyph unicode="&#xf7;" horiz-adv-x="1366" d="M0 489v211h1366v-211h-1366zM543 262q2 59 43 100t98 41q59 -2 100 -43t39 -100q0 -35 -14 -61q-39 -76 -125 -74q-59 0 -100 39t-41 98zM543 926q2 59 42 99t99 40t100 -41t39 -100q0 -57 -40 -97.5t-99 -40.5t-99 40.5t-42 99.5z" />
<glyph unicode="&#xf8;" horiz-adv-x="1236" d="M33 2l137 143q-25 31 -39 54q-76 115 -76 270q0 186 111 322q74 92 190.5 139t243.5 47q147 0 268 -57q33 -16 58 -33l155 153l86 -84l-145 -151q63 -84 91 -155.5t28 -170.5q0 -190 -109 -325q-160 -190 -436 -191q-98 0 -169 21.5t-163 74.5l-147 -143zM391 465 q0 -33 10 -92l320 315q-55 47 -125 47q-100 0 -152.5 -83t-52.5 -187zM465 260q59 -53 135 -53q49 0 90 22q113 68 113 240q0 43 -15 111z" />
<glyph unicode="&#xf9;" horiz-adv-x="1236" d="M115 424v516h325v-510q2 -8 2 -20.5t2 -20.5q12 -160 134 -160q72 0 176 93v618h325v-940h-325v49q2 37 12 72q-53 -51 -64 -62q-121 -98 -249 -98q-31 0 -64 6t-77 23.5t-86 58.5t-68 101q-43 92 -43 274zM315 1446h330l135 -361h-215z" />
<glyph unicode="&#xfa;" horiz-adv-x="1236" d="M115 424v516h325v-510q2 -8 2 -20.5t2 -20.5q12 -160 134 -160q72 0 176 93v618h325v-940h-325v49q2 37 12 72q-53 -51 -64 -62q-121 -98 -249 -98q-31 0 -64 6t-77 23.5t-86 58.5t-68 101q-43 92 -43 274zM467 1085l131 361h324l-244 -361h-211z" />
<glyph unicode="&#xfb;" horiz-adv-x="1236" d="M115 424v516h325v-510q2 -8 2 -20.5t2 -20.5q12 -160 134 -160q72 0 176 93v618h325v-940h-325v49q2 37 12 72q-53 -51 -64 -62q-121 -98 -249 -98q-31 0 -64 6t-77 23.5t-86 58.5t-68 101q-43 92 -43 274zM223 1085l248 361h287l258 -361h-258l-140 189l-137 -189h-258z " />
<glyph unicode="&#xfc;" horiz-adv-x="1236" d="M115 424v516h325v-510q2 -8 2 -20.5t2 -20.5q12 -160 134 -160q72 0 176 93v618h325v-940h-325v49q2 37 12 72q-53 -51 -64 -62q-121 -98 -249 -98q-31 0 -64 6t-77 23.5t-86 58.5t-68 101q-43 92 -43 274zM180 1260q0 68 47 112.5t115 44.5t115 -46t47 -114 q0 -66 -46 -112.5t-112 -48.5q-70 -2 -118 46t-48 118zM692 1255q0 70 48 117t114 45q66 0 113 -47t47 -112.5t-46 -112.5t-112 -49q-68 0 -117 45.5t-47 113.5z" />
<glyph unicode="&#xfd;" d="M426 1099l131 361h324l-244 -361h-211zM6 940h359l151 -336q20 -55 27 -69q20 63 49 131l121 274h346l-658 -1470h-354l328 706z" />
<glyph unicode="&#xff;" d="M6 940h359l151 -336q20 -55 27 -69q20 63 49 131l121 274h346l-658 -1470h-354l328 706zM137 1260q0 66 47 111.5t113 45.5q68 0 115 -47t47 -115q0 -66 -46 -111.5t-112 -47.5q-70 -2 -117 46t-47 118zM647 1257q2 68 49 115t115 45q66 0 113 -47t45 -113 q0 -66 -46 -112.5t-112 -48.5q-68 0 -116 46.5t-48 114.5z" />
<glyph unicode="&#x152;" horiz-adv-x="2134" d="M53 719q2 184 81 343t226 259q92 61 214 92t210 34t236 -1h1005v-279h-622v-288h586v-279h-586v-319h639v-281h-1225l-104 6q-207 18 -346 111q-154 100 -234 258t-80 344zM426 727q0 -135 53 -224t121 -136q127 -88 352 -88q61 0 90 2v880h-139q-266 0 -391 -164 q-86 -108 -86 -270z" />
<glyph unicode="&#x153;" horiz-adv-x="1835" d="M53 469q0 106 43 207q20 49 56 96t93.5 96.5t148.5 79t202 29.5q145 0 254 -57q12 -6 34.5 -20.5t35.5 -22.5q150 100 321 100q190 0 324 -105q129 -106 164 -288q12 -55 14 -160h-658q0 -2 1 -13.5t3.5 -24.5t6.5 -26q20 -63 88.5 -112t187.5 -49q162 0 346 114v-239 q-131 -59 -222 -85t-212 -26q-143 0 -266 57q-47 20 -92 50l-25 -13q-23 -14 -30 -18t-32.5 -17.5t-40.5 -18.5l-43 -14q-28 -9 -51.5 -13.5t-54.5 -8.5t-61 -4q-90 0 -189 31q-162 53 -254 179t-92 296zM391 467q0 -59 19 -117q27 -80 78 -112.5t102 -32.5q45 0 88 24 q106 72 106 242q0 160 -98 231q-49 31 -98 31q-57 0 -101 -33q-96 -71 -96 -233zM1098 612h309q-31 158 -156 158q-33 0 -63 -14q-63 -29 -90 -144z" />
<glyph unicode="&#x178;" horiz-adv-x="1449" d="M2 1446h434l199 -320q47 -78 74 -143q25 66 114 221l144 242h442l-522 -770v-676h-361v676zM283 1696q0 29 10 53q14 39 53 64.5t82 25.5q31 0 55 -12q53 -23 72.5 -63t17.5 -72q0 -59 -39.5 -101.5t-99.5 -44.5q-63 -2 -107 42.5t-44 107.5zM872 1694q0 37 11 59 q14 39 51 62.5t80 23.5q25 0 55 -10q94 -41 90 -135q0 -92 -72 -127q-27 -20 -71.5 -20.5t-94 33.5t-49.5 114z" />
<glyph unicode="&#x2c6;" horiz-adv-x="598" d="M-289 1085l248 361h285l260 -361h-260l-138 189l-137 -189h-258z" />
<glyph unicode="&#x2dc;" horiz-adv-x="598" d="M-285 1192q127 219 265 219q59 0 161 -51l52 -27q70 -35 98 -35q20 0 39 13q29 18 59 80l154 -101q-76 -135 -150 -182q-45 -31 -92 -31q-55 0 -162 56l-63 30q-72 33 -96 33q-47 -2 -109 -100z" />
<glyph unicode="&#x2000;" horiz-adv-x="978" />
<glyph unicode="&#x2001;" horiz-adv-x="1959" />
<glyph unicode="&#x2002;" horiz-adv-x="978" />
<glyph unicode="&#x2003;" horiz-adv-x="1959" />
<glyph unicode="&#x2004;" horiz-adv-x="653" />
<glyph unicode="&#x2005;" horiz-adv-x="489" />
<glyph unicode="&#x2006;" horiz-adv-x="325" />
<glyph unicode="&#x2007;" horiz-adv-x="325" />
<glyph unicode="&#x2008;" horiz-adv-x="243" />
<glyph unicode="&#x2009;" horiz-adv-x="391" />
<glyph unicode="&#x200a;" horiz-adv-x="108" />
<glyph unicode="&#x2010;" horiz-adv-x="724" d="M29 350v328h626v-328h-626z" />
<glyph unicode="&#x2011;" horiz-adv-x="724" d="M29 350v328h626v-328h-626z" />
<glyph unicode="&#x2012;" horiz-adv-x="724" d="M29 350v328h626v-328h-626z" />
<glyph unicode="&#x2013;" d="M27 350v328h1011v-328h-1011z" />
<glyph unicode="&#x2014;" horiz-adv-x="1366" d="M0 496v211h1366v-211h-1366z" />
<glyph unicode="&#x2018;" horiz-adv-x="512" d="M31 1014q0 70 22 131q49 145 191 233q25 16 81 46t74 30q14 0 17 -24l4 -37q4 -27 -19 -47l-8 -13q-23 -29 -31 -41q-41 -59 -61 -176q31 -12 55 -29q68 -49 68 -141q0 -45 -21 -84q-23 -47 -67.5 -75.5t-95.5 -28.5q-70 0 -142 63q-67 74 -67 193z" />
<glyph unicode="&#x2019;" horiz-adv-x="512" d="M35 1282q0 41 14 76q23 49 70 82t100 30q78 0 139 -61q70 -70 70 -195q0 -63 -20 -129q-18 -55 -72.5 -126.5t-145.5 -124.5q-102 -57 -129 -58q-16 0 -18 25l-4 37q-4 25 18 45l11 12q27 37 28 41q39 61 62 176q-47 23 -52 27q-71 49 -71 143z" />
<glyph unicode="&#x201a;" horiz-adv-x="512" d="M35 170q0 49 18 82q27 59 78 83.5t88 22.5q76 0 142.5 -63.5t66.5 -192.5q0 -125 -74 -227q-49 -72 -131 -131q-39 -29 -95 -54.5t-68.5 -25.5t-16.5 25l-4 37q-4 27 18 47l11 12q20 25 28 39q39 59 62 178q-29 10 -52 25q-71 49 -71 143z" />
<glyph unicode="&#x201c;" horiz-adv-x="1067" d="M51 1014q0 70 21 131q51 143 190 233q127 76 156 76q16 0 18 -24l4 -37q4 -25 -18 -47l-10 -13q-16 -20 -29 -41q-41 -59 -61 -176q33 -12 53 -29q70 -51 69 -141q0 -45 -20 -84q-23 -47 -68 -75.5t-96 -28.5q-78 0 -141 63q-68 74 -68 193zM582 1014q0 70 22 131 q55 158 217 250q106 59 129 59q12 0 17 -24l4 -37q4 -27 -19 -47l-8 -13q-23 -29 -31 -41q-41 -59 -61 -176q27 -8 51 -26q72 -49 72 -144q0 -39 -14 -74q-23 -51 -70 -82.5t-100 -31.5q-78 0 -140 61q-69 76 -69 195z" />
<glyph unicode="&#x201d;" horiz-adv-x="1067" d="M49 1282q0 41 14 76q23 49 70 82t98 30q80 0 140 -61q70 -70 69 -195q0 -74 -20 -129q-18 -55 -72.5 -126.5t-144.5 -124.5q-102 -57 -129 -58q-12 0 -17 25l-4 37q-4 27 17 45l10 12l31 41q41 63 59 176q-39 20 -49 27q-72 47 -72 143zM580 1284q0 43 20 84q23 47 68 76 t96 26q86 0 147 -71q61 -70 62 -185q0 -68 -23 -129q-47 -141 -190 -235q-23 -14 -80 -44t-74 -30q-16 0 -18 25l-4 37q-4 27 18 45l8 12q23 27 31 41q39 61 61 176q-31 12 -55 29q-67 49 -67 143z" />
<glyph unicode="&#x201e;" horiz-adv-x="1067" d="M49 170q0 43 17 82q29 59 80 83.5t87 22.5q74 0 140.5 -63.5t66.5 -192.5t-71 -227q-55 -76 -131 -131q-41 -29 -96.5 -54.5t-68 -25.5t-16.5 25l-4 37q-6 29 17 47l10 12q20 25 31 39q41 63 59 178l-49 25q-72 47 -72 143zM580 172q0 45 16 78q23 49 69 79.5t99 28.5 q53 0 100 -28q109 -68 109 -226q0 -74 -25 -141q-49 -129 -182 -219q-39 -29 -94.5 -54.5t-67.5 -25.5t-16 25l-4 37q-6 29 18 47l8 12q20 20 31 39q39 59 61 178q-39 14 -55 27q-67 49 -67 143z" />
<glyph unicode="&#x2022;" horiz-adv-x="681" d="M49 723q0 57 27 119q16 35 42.5 68.5t89 68.5t138.5 35q66 0 123 -27q59 -27 111.5 -92.5t52.5 -173.5q0 -123 -81 -207t-204 -84q-125 0 -212 84t-87 209z" />
<glyph unicode="&#x2026;" horiz-adv-x="2048" d="M203 127q0 59 41 99t100 40q57 0 96 -39t41 -98q0 -23 -10 -51q-33 -90 -129 -90q-59 0 -99 40t-40 99zM885 127q0 59 41 99t100 40q57 0 96 -39t41 -98q0 -59 -39 -100t-98 -41q-57 0 -99 40t-42 99zM1569 127q0 59 40 99t99 40q35 0 59 -12q78 -35 78 -125 q0 -59 -40 -100t-97 -41q-59 0 -99 40t-40 99z" />
<glyph unicode="&#x202f;" horiz-adv-x="391" />
<glyph unicode="&#x2039;" horiz-adv-x="1366" d="M0 614v213l1366 625v-231l-1083 -500l1083 -498v-229z" />
<glyph unicode="&#x203a;" horiz-adv-x="1366" d="M0 -6v229l1081 498l-1081 500v231l1366 -625v-213z" />
<glyph unicode="&#x2044;" horiz-adv-x="256" d="M-293 0l737 1505l115 -57l-741 -1507z" />
<glyph unicode="&#x205f;" horiz-adv-x="489" />
<glyph unicode="&#x2122;" horiz-adv-x="1406" d="M16 1327v119h570v-119h-209v-561h-146v561h-215zM643 766v680h188l164 -514l156 514h190v-680h-141l4 393q0 59 10 137l-30 -112l-127 -418h-129l-131 420l-31 108q6 -45 10 -137l8 -391h-141z" />
<glyph unicode="&#xe000;" horiz-adv-x="940" d="M0 940h940v-940h-940v940z" />
<glyph unicode="&#xfb01;" horiz-adv-x="1323" d="M14 729v219h144v45q0 88 18 162q10 43 33.5 89t68 102.5t122 92.5t178.5 36q80 0 198 -35v-269q-100 35 -145 35q-90 0 -125 -80q-20 -43 -21 -137v-41h179v-219h-179v-729h-327v729h-144zM838 0v940h327v-940h-327zM840 1303q0 29 10 55q6 20 20.5 41.5t50 44t80.5 22.5 q39 0 66 -12q45 -20 72.5 -62t27.5 -92q0 -31 -12 -63q-25 -59 -73 -80.5t-85 -19.5q-66 2 -111.5 50t-45.5 116z" />
<glyph unicode="&#xfb02;" horiz-adv-x="1323" d="M14 729v219h144v45q0 88 18 162q10 43 33.5 89t68 102.5t122 92.5t178.5 36q80 0 198 -35v-269q-100 35 -145 35q-90 0 -125 -80q-20 -43 -21 -137v-41h179v-219h-179v-729h-327v729h-144zM838 0v1446h329v-1446h-329z" />
<glyph unicode="&#xfb03;" horiz-adv-x="2048" d="M1563 0v940h327v-940h-327zM1565 1303q0 29 10 55q6 20 20.5 41.5t50 44t80.5 22.5q39 0 66 -12q45 -20 72.5 -62t27.5 -92q0 -31 -12 -63q-25 -59 -73 -81q-44 -20 -78 -20q-3 0 -7 1q-66 2 -111.5 50t-45.5 116zM739 729v219h144v45q0 88 18 162q10 43 33.5 89 t68 102.5t122 92.5t178.5 36q80 0 198 -35v-269q-100 35 -145 35q-90 0 -125 -80q-20 -43 -21 -137v-41h179v-219h-179v-729h-327v729h-144zM14 729v219h144v45q0 88 18 162q10 43 33.5 89t68 102.5t122 92.5t178.5 36q80 0 198 -35v-269q-100 35 -145 35q-90 0 -125 -80 q-20 -43 -21 -137v-41h179v-219h-179v-729h-327v729h-144z" />
<glyph unicode="&#xfb04;" horiz-adv-x="2048" d="M1563 0v1446h329v-1446h-329zM739 729v219h144v45q0 88 18 162q10 43 33.5 89t68 102.5t122 92.5t178.5 36q80 0 198 -35v-269q-100 35 -145 35q-90 0 -125 -80q-20 -43 -21 -137v-41h179v-219h-179v-729h-327v729h-144zM14 729v219h144v45q0 88 18 162q10 43 33.5 89 t68 102.5t122 92.5t178.5 36q80 0 198 -35v-269q-100 35 -145 35q-90 0 -125 -80q-20 -43 -21 -137v-41h179v-219h-179v-729h-327v729h-144z" />
</font>
</defs>
</svg>
